<?xml version="1.0" encoding="utf-8"?>
<!-- Generator: Adobe Illustrator 27.5.0, SVG Export Plug-In . SVG Version: 6.00 Build 0)  -->
<svg version="1.1" id="Layer_1" xmlns="http://www.w3.org/2000/svg" xmlns:xlink="http://www.w3.org/1999/xlink" x="0px" y="0px"
	 viewBox="0 0 4000 4000" style="enable-background:new 0 0 4000 4000;" xml:space="preserve">
<g>
	<g>
		<g>
			<g>
				<rect style="fill:#53F2A2;" width="4000" height="4000"/>
			</g>
		</g>
	</g>
	<g>
		<g>
			<g>
				<g>
					<g>
						<path style="fill:#A26143;" d="M3040.63,2014.101c0,0,58.643-32.964,164.66,48.241
							c106.018,81.205,200.757,301.779,178.2,389.993c-22.557,88.214-150.966-23.662-180.373-57.952"/>
					</g>
				</g>
			</g>
			<g>
				<g>
					<g>
						<path style="fill:#FFC36A;" d="M2324.032,1745.369c0,0,421.849-26.492,620.35,159.903
							c198.501,186.395,252.637,432.641,273.69,572.682c21.053,140.041-63.159,281.397-135.341,353.58
							c0,0,63.159,159.402-54.137,222.561c-117.296,63.159-562.419,33.083-619.563,0c-57.144-33.083-65.472-90.228-65.472-90.228
							s-60.846,121.988-247.317,127.161c-186.47,5.173-569.719,8.181-618.702-57.986c0,0-274.229,42.106-465.372-42.106
							s-83.828-291.736,16.38-348.88C1128.757,2584.91,1539.768,1787.05,2324.032,1745.369z"/>
					</g>
				</g>
			</g>
			<g style="opacity:0.4;">
				<g>
					<g>
						<path style="fill:#FFFFFF;" d="M1716.2,1964.794c0,0,281.25-132.532,621.254-148.322
							c340.004-15.79,584.787,58.678,748.868,279.721l-18.157-42.12c0,0,94.267,10.525,171.712,99.249
							s136.524,196.697,136.524,196.697s-36.427-120.879-104.145-217.06s-108.321-114.921-154.938-125.476
							c-46.618-10.556-60.893,6.044-76.688,0c-15.795-6.044-92.31-161.832-366.549-231.724
							c-274.239-69.893-528.966-22.321-733.106,55.062C1736.835,1908.203,1716.2,1964.794,1716.2,1964.794z"/>
					</g>
				</g>
			</g>
			<g style="opacity:0.4;">
				<g>
					<g>
						<path style="fill:#FFFFFF;" d="M2370.684,2910.482c0,0,63.159-47.369,128.574-53.009
							c65.415-5.639,111.656,7.895,130.83-11.279c19.174-19.173,16.918-45.114,0-72.182
							c-16.917-27.068-99.684-161.656-46.114-292.112c53.57-130.456,181.014-183.343,181.014-183.343
							s-117.296,21.194-197.152,117.494c-79.856,96.3-44.633,242.149-25.026,296.671c19.607,54.522,25.026,75.951,25.026,75.951
							s6.988,16.918-7.674,16.918c-14.662,0-96.995,15.226-139.289,44.55S2370.684,2910.482,2370.684,2910.482z"/>
					</g>
				</g>
			</g>
			<g style="opacity:0.3;">
				<g>
					<g>
						<path style="fill:#391B47;" d="M918.771,2753.297c0,0,18.045,129.365,201.508,188.012s342.977,42.106,342.977,42.106
							s10.437-86.651,10.716-87.392c0.279-0.742,20.751-26.591,20.751-26.591s75.19,105.505,372.941,116.135
							s444.119-75.657,493.87-180.261c49.751-104.604,60.122-203.791,60.122-203.791s57.056,29.9,102.292,29.581l32.904,121.458
							l18.011,41.431c0,0,4.335,16.224-13.574,16.505s-141.233,1.872-199.755,91.534c-21.289,53.574,370.059,94.977,516.679,72.018
							c146.62-22.958,38.347-104.163,83.461-189.88c45.114-85.716,128.574-155.643,155.643-342.865
							c27.068-187.222-39.549-371.984-39.549-371.984s119.626,51.163,186.169,177.174c66.543,126.011,103.99,234.735,74.438,232.029
							c-29.552-2.706-111.783-60.458-111.783-60.458s-15.365-14.239-20.025-6.778c-4.66,7.461,25.294,65.845,10.317,165.227
							c-14.977,99.382-71.299,177.304-79.204,188.446c-7.905,11.143-54.949,66.579-54.949,66.579s68.961,184.555-92.59,237.206
							s-542.355-2.444-542.355-2.444s-60.526-15.199-78.964-47.406c-18.438-32.207-24.033-49.194-24.033-49.194l-10.721,9.293
							c0,0-54.363,99.348-237.826,112.04s-544.949-23.988-544.949-23.988s-36.813-8.479-50.49-16.614
							c-13.677-8.135-24.651-16.632-37.545-17.384c-12.895-0.752-196.704,30.12-380.37-17.272
							C899.222,2968.378,881.176,2863.036,918.771,2753.297z"/>
					</g>
				</g>
			</g>
			<g>
				<g>
					<g>
						<path style="fill:#391B47;" d="M1929.921,3109.691c-64.402,0-132.388-1.216-195.479-4.678
							c-185.071-10.156-241.682-34.487-263.159-54.677c-49.363,6.582-289.351,33.149-465.667-44.527
							c-90.83-40.019-112.747-103.603-115.139-149.902c-4.768-92.295,63.779-190.195,130.022-227.969
							c18.667-10.644,55.959-58.921,103.171-120.034c186.948-242.007,575.982-745.566,1199.417-778.757
							c18.552-1.165,431.382-24.497,632.417,164.28c149.744,140.605,240.886,331.016,278.638,582.109
							c19.951,132.71-51.157,274.585-132.625,360.015c21.531,63.042,32.205,180.396-65.22,232.852
							c-75.881,40.864-263.406,40.195-340.5,38.027c-119.531-3.379-259.214-17.607-294.91-38.271
							c-33.848-19.6-52.385-46.675-62.361-68.013c-31.443,38.901-104.033,103.301-241.833,107.129
							C2049.25,3108.588,1991.208,3109.691,1929.921,3109.691z M1477.541,3016.791c5.103,0,9.968,2.402,13.062,6.582
							c8.284,11.191,48.804,38.389,245.623,49.189c122.019,6.689,262.886,4.897,359.568,2.222
							c174.707-4.849,232.659-117.036,233.225-118.169c3.169-6.357,10.103-9.888,17.114-8.794
							c7.012,1.123,12.483,6.675,13.506,13.701c0.305,1.953,8.315,50.015,57.534,78.511c22.72,13.149,136.055,29.854,279.543,33.911
							c155.115,4.37,276.316-8.389,324.172-34.155c103.049-55.488,49.077-196.323,46.729-202.29
							c-2.368-6.016-0.95-12.886,3.623-17.456c58.708-58.711,152.314-196.318,130.764-339.673
							c-36.624-243.594-124.531-427.837-268.745-563.252c-191.023-179.373-604.06-155.793-608.21-155.53
							c-0.051,0.002-0.103,0.005-0.154,0.01c-608.618,32.344-991.501,527.981-1175.503,766.174
							c-53.279,68.97-88.477,114.531-112.793,128.398c-58.12,33.145-117.664,120.64-113.662,198.062
							c2.793,54.072,35.019,95.063,95.784,121.831c184.485,81.279,453.66,41.328,456.358,40.913
							C1475.9,3016.854,1476.723,3016.791,1477.541,3016.791z M2324.033,1745.37h0.051H2324.033z"/>
					</g>
				</g>
			</g>
			<g>
				<g>
					<g>
						<path style="fill:#391B47;" d="M2337.465,2990.262c-0.271,0-0.54-0.005-0.813-0.02c-8.94-0.444-15.84-8.003-15.432-16.943
							c0.129-2.842,3.84-70.176,61.152-121.899c46.953-42.378,114.988-61.348,202.219-56.396c8.96,0.513,15.811,8.188,15.3,17.148
							s-8.147,15.728-17.146,15.303c-77.939-4.478-137.908,11.616-178.181,47.695c-47.322,42.392-50.852,99.126-50.881,99.692
							C2353.225,2983.51,2346.049,2990.262,2337.465,2990.262z"/>
					</g>
				</g>
			</g>
			<g>
				<g>
					<g>
						<path style="fill:#391B47;" d="M1477.548,3049.296c-6.333,0-12.351-3.726-14.973-9.927
							c-1.445-3.418-34.997-84.585,0.945-160.161c22.881-48.12,68.183-82.31,134.646-101.626
							c202.471-58.843,549.631-26.04,564.309-24.604c8.933,0.864,15.471,8.809,14.604,17.744s-8.843,15.488-17.744,14.6
							c-3.538-0.337-355.649-33.623-552.102,23.471c-57.163,16.612-95.64,45-114.365,84.37
							c-29.744,62.544-0.659,132.847-0.361,133.55c3.496,8.262-0.369,17.798-8.635,21.294
							C1481.804,3048.881,1479.66,3049.296,1477.548,3049.296z"/>
					</g>
				</g>
			</g>
			<g>
				<g>
					<g>
						<path style="fill:#391B47;" d="M1568.601,2821.561c-2.539,0-5.112-0.596-7.517-1.855
							c-2.686-1.377-64.568-32.065-363.367-102.603c-8.735-2.061-14.146-10.815-12.083-19.551
							c2.061-8.73,10.825-14.155,19.548-12.08c306.753,72.417,368.564,104.16,371.047,105.478
							c7.927,4.204,10.947,14.043,6.741,21.968C1580.053,2818.421,1574.423,2821.561,1568.601,2821.561z"/>
					</g>
				</g>
			</g>
			<g>
				<g>
					<g>
						<path style="fill:#391B47;" d="M2569.499,2819.186c-7.22-13.204-13.302-25.712-19.009-38.914
							c-5.59-13.122-10.978-26.322-15.66-39.794c-9.579-26.852-17.446-54.403-22.729-82.616
							c-5.374-28.176-8.274-57.013-7.687-86.025c0.524-28.977,4.63-58.191,13.495-86.162c8.79-27.95,22.229-54.605,40.01-77.935
							c17.947-23.271,40.105-42.601,63.777-58.973c48.197-31.814,103.528-49.817,159.229-55.41c0.75-0.075,1.417,0.471,1.493,1.219
							c0.063,0.637-0.323,1.216-0.901,1.421c-52.522,18.609-103.323,39.904-146.824,71.24
							c-21.296,16.064-40.706,34.459-55.928,55.927c-14.971,21.586-26.335,45.449-33.363,70.717
							c-7.059,25.251-10.146,51.662-10.105,78.196c0.101,26.554,3.281,53.229,8.583,79.553
							c5.417,26.312,12.852,52.327,21.935,77.788c4.447,12.766,9.587,25.292,14.893,37.715
							c5.337,12.282,11.138,24.913,17.133,36.143l0.247,0.463c4.226,7.915,1.235,17.758-6.68,21.984
							C2583.541,2829.921,2573.769,2826.988,2569.499,2819.186z"/>
					</g>
				</g>
			</g>
			<g>
				<g>
					<g>
						<path style="fill:#391B47;" d="M2375.759,2898.08c-3.379,0-6.785-1.05-9.7-3.223c-7.173-5.347-8.669-15.483-3.367-22.671
							c0.955-1.323,67.061-95.889,36.992-326.47c-1.16-8.896,5.112-17.051,14.011-18.213c8.926-1.167,17.056,5.112,18.215,14.014
							c32.063,245.874-40.027,345.889-43.113,350.024C2385.61,2895.819,2380.715,2898.08,2375.759,2898.08z"/>
					</g>
				</g>
			</g>
			<g>
				<g>
					<g>
						<path style="fill:#391B47;" d="M3346.093,2501.703c-59.324,0.005-140.608-79.595-155.31-96.738
							c-5.842-6.816-5.056-17.075,1.755-22.915c6.809-5.84,17.07-5.054,22.913,1.753c29.387,34.268,103.511,92.544,136.387,84.805
							c3.118-0.728,11.396-2.661,15.906-20.298c20.354-79.594-68.535-293.559-172.334-373.066
							c-94.863-72.659-146.321-47.246-146.819-46.978c-7.82,4.399-17.727,1.621-22.126-6.201
							c-4.397-7.822-1.621-17.732,6.201-22.129c2.778-1.565,69.285-37.214,182.505,49.507
							c50.918,38.999,104.104,113.257,142.271,198.638c37.861,84.692,53.484,162.554,41.79,208.281
							c-7.766,30.376-26.04,40.635-40.005,43.896C3355.004,2501.244,3350.61,2501.703,3346.093,2501.703z"/>
					</g>
				</g>
			</g>
		</g>
		<g>
			<g>
				<g>
					<g>
						<g>
							<g>
								<path style="fill:#FFC36A;" d="M2583.94,1644.547c0.093-109.74-57.93-179.948-164.435-218.552
									c-148.976-53.999-261.158-176.816-357.78-193.148c-96.621-16.331-202.111,75.197-202.111,75.197l0.001,0.001
									c-91.527-10.896-173.315-1.611-226.773-6.198c-14.611-1.254-31.909-3.104-51.359-4.778v-0.01
									c-0.019,0.002-0.034,0.003-0.053,0.005c-0.019-0.001-0.034-0.003-0.053-0.005v0.01c-19.451,1.674-36.747,3.525-51.359,4.778
									c-53.458,4.587-135.246-4.698-226.773,6.198l0.001-0.001c0,0-105.49-91.528-202.111-75.197
									c-96.621,16.332-208.803,139.148-357.78,193.148c-106.503,38.604-164.527,108.812-164.435,218.552
									c0.003,0.089-0.003,0.175-0.003,0.264c0.075,43.699,9.33,93.642,28.443,150.377c2.941,8.734,6.228,17.117,9.693,25.299
									c51.031,120.489,154.694,181.599,195.943,201.905c10.899,5.366,17.499,7.93,17.534,7.943
									c-4.119,31.373-8.762,60.265-14.843,85.467c-11.162,46.283-33.102,101.236-53.065,159.646
									c-0.073,0.207-0.142,0.415-0.213,0.623c-14.318,41.938-27.577,85.643-35.09,129.209c-8.56,49.635-9.646,99.078,3.73,145.49
									c0.021,0.069,0.036,0.139,0.055,0.208c0.09,0.343,0.208,0.674,0.302,1.017c7.58,25.781,19.654,50.614,37.413,74.015
									c27.231,35.881,67.821,68.394,126.131,95.769c0,0-2.813-1.654-7.55-4.899c-35.296-24.175,1423.354-24.175,1388.059,0
									c-4.739,3.246-7.55,4.899-7.55,4.899c58.309-27.375,98.899-59.888,126.13-95.769c17.759-23.401,29.833-48.234,37.413-74.015
									c0.094-0.343,0.212-0.674,0.302-1.017c0.02-0.069,0.036-0.139,0.055-0.208c13.376-46.412,12.29-95.855,3.73-145.49
									c-7.513-43.566-20.772-87.271-35.09-129.209c-0.071-0.208-0.141-0.416-0.213-0.623
									c-19.963-58.41-41.903-113.363-53.065-159.646c-6.081-25.202-10.724-54.094-14.843-85.467
									c0.036-0.014,6.635-2.578,17.534-7.943c41.249-20.305,144.912-81.416,195.942-201.905
									c3.464-8.181,6.752-16.564,9.694-25.299c19.112-56.734,28.366-106.677,28.442-150.377
									C2583.943,1644.722,2583.937,1644.636,2583.94,1644.547z M835.186,1991.233l-0.42-0.715c0,0,3.052-25.531,7.142-59.698
									c0.516-4.315,1.05-8.757,1.595-13.314c2.45-20.457,5.151-43.002,7.744-64.578c0.07-0.589,0.142-1.182,0.212-1.77
									c1.767-14.714,3.998-29.983,6.389-44.807c1.659-10.293,3.394-20.361,5.109-29.877l-27.665,214.937L835.186,1991.233z
									 M2317.607,2007.851c-2.054,1.347-10.239,6.552-23.827,13.493c9.976-9.815,19.362-16.617,24.406-13.875
									C2318.186,2007.469,2317.952,2007.625,2317.607,2007.851z"/>
							</g>
						</g>
					</g>
				</g>
				<g>
					<g>
						<g>
							<path style="fill:#CEBCAE;" d="M1882.208,2688.882c-18.001,10.976-126.715,78.333-284.418,80.109
								C1740.635,2772.705,1850.085,2709.7,1882.208,2688.882z"/>
						</g>
					</g>
				</g>
				<g>
					<g>
						<g>
							<path style="fill:#CEBCAE;" d="M2267.911,2721.778c-0.296,0.135-0.58,0.249-0.874,0.384
								C2267.605,2721.914,2267.911,2721.778,2267.911,2721.778z"/>
						</g>
					</g>
				</g>
				<g>
					<g>
						<g>
							<path style="fill:#CEBCAE;" d="M2076.321,2763.772c-1.96-0.01-3.921-0.072-5.883-0.118c-0.748-0.024-1.519-0.022-2.263-0.052
								c-11.329-0.346-22.653-1.279-33.824-3c58.659,10.829,135.913,5.793,232.687-38.44c-8.239,3.586-74.398,31.579-150.379,39.524
								C2103.425,2763.069,2089.894,2763.84,2076.321,2763.772z"/>
						</g>
					</g>
				</g>
				<g>
					<g>
						<g>
							<path style="fill:#CEBCAE;" d="M1565.072,2768.991c-157.703-1.776-266.417-69.133-284.417-80.109
								C1312.776,2709.7,1422.229,2772.705,1565.072,2768.991z"/>
						</g>
					</g>
				</g>
				<g>
					<g>
						<g>
							<path style="fill:#CEBCAE;" d="M1128.511,2760.602c-11.171,1.722-22.495,2.654-33.824,3c-0.744,0.03-1.515,0.028-2.264,0.052
								c-1.962,0.046-3.922,0.108-5.883,0.118c-13.574,0.068-27.104-0.703-40.338-2.086c-75.98-7.945-142.14-35.938-150.379-39.524
								C992.598,2766.396,1069.852,2771.431,1128.511,2760.602z"/>
						</g>
					</g>
				</g>
				<g>
					<g>
						<g>
							<path style="fill:#CEBCAE;" d="M894.952,2721.778c0,0,0.306,0.136,0.872,0.384
								C895.531,2722.027,895.247,2721.913,894.952,2721.778z"/>
						</g>
					</g>
				</g>
			</g>
			<g>
				<g>
					<g>
						<path style="fill:#A26143;" d="M865.962,2706.943c0,0-160.73-172.544-25.388-345.789s440.723-278.51,757.216-278.51
							s693.945,135.341,754.849,392.49c60.904,257.149-210.841,286.086-210.841,286.086s-154.328,24.972-232.276-60.631
							c-17.645-18.277-25.714-8.622-53.596,6.873c-27.882,15.495-92.231,66.892-274.495,60.799
							c-182.749-6.109-273.503-61.198-291.974-73.574c-18.472-12.375-44.353,6.003-44.353,6.003S1062.783,2845.517,865.962,2706.943
							z"/>
					</g>
				</g>
			</g>
			<g>
				<g>
					<g>
						<path style="fill:#A26143;" d="M1161.367,2195.954c0,0-159.887-52.407-191.467-265.569
							c-31.58-213.163,69.122-337.226,251.107-364.294c181.985-27.068,245.719,161.224,240.633,281.369
							s-84.674,262.253-88.579,273.531C1369.157,2132.269,1161.367,2195.954,1161.367,2195.954z"/>
					</g>
				</g>
			</g>
			<g>
				<g>
					<g>
						<path style="fill:#A26143;" d="M1993.526,2195.954c0,0,159.887-52.407,191.467-265.569
							c31.58-213.163-69.122-337.226-251.107-364.294c-181.985-27.068-245.719,161.224-240.633,281.369
							c5.086,120.144,84.674,262.253,88.579,273.531C1785.735,2132.269,1993.526,2195.954,1993.526,2195.954z"/>
					</g>
				</g>
			</g>
			<g>
				<g>
					<g>
						<path style="fill:#FF68A2;" d="M1647.989,2354.602c0,0,3.195,54.399,12.256,101.406c9.06,47.007,16.339,86.589,61.127,91.768
							c44.788,5.179,86.083-32.04,81.789-69.822s5.334-61.988-28.24-94.436c-33.574-32.447-88.302-47.5-88.302-47.5
							S1645.565,2324.668,1647.989,2354.602z"/>
					</g>
				</g>
			</g>
			<g style="opacity:0.4;">
				<g>
					<g>
						<path style="fill:#FFFFFF;" d="M1110.505,2175.787c0,0,252.637-39.436,354.895-44.485l-18.369-23.638l-25.347-11.471
							C1421.685,2096.192,1222.276,2123.894,1110.505,2175.787z"/>
					</g>
				</g>
			</g>
			<g style="opacity:0.4;">
				<g>
					<g>
						<path style="fill:#FFFFFF;" d="M2001.711,1340.432c-127.299-47.459-416.165-43.362-416.165-43.362
							s-288.865-4.097-416.164,43.362c-127.299,47.458-264.953,136.269-300.868,404.937c0,0,124.659-291.311,300.997-354.471
							c101.474-30.076,311.364-30.076,416.035-30.076c104.672,0,314.562,0,416.036,30.076
							c176.338,63.16,300.997,354.471,300.997,354.471C2266.663,1476.7,2129.01,1387.89,2001.711,1340.432z"/>
					</g>
				</g>
			</g>
			<g style="opacity:0.4;">
				<g>
					<g>
						<path style="fill:#FFFFFF;" d="M2060.587,2175.787c0,0-252.637-39.436-354.895-44.485l18.369-23.638l25.347-11.471
							C1749.408,2096.192,1948.817,2123.894,2060.587,2175.787z"/>
					</g>
				</g>
			</g>
			<g style="opacity:0.3;">
				<g>
					<g>
						<path style="fill:#391B47;" d="M762.624,2275.448c0,0,46.693,312.47,249.544,333.523
							c202.851,21.053,241.846-236.837,305.057-290.227c63.211-53.39,197.394-75.132,196.845-136.443l67.409,20.646v80.336
							l-2.538,17.599l-18.614,17.863c0,0-102.173,14.926-146.39,60.281c-44.216,45.355-127.954,336.437-328.261,343.137
							c-204.876,6.853-385.834-158.925-364.763-269.93C741.985,2341.226,762.624,2275.448,762.624,2275.448z"/>
					</g>
				</g>
			</g>
			<g style="opacity:0.3;">
				<g>
					<g>
						<path style="fill:#391B47;" d="M2404.401,2275.448c0,0-46.693,312.47-249.544,333.523
							c-202.851,21.053-241.846-236.837-305.057-290.227s-197.394-75.132-196.845-136.443l-67.409,20.646v80.336l2.537,17.599
							l18.614,17.863c0,0,116.708,12.478,160.924,57.833c44.216,45.355,113.42,338.884,313.727,345.584
							c204.876,6.853,385.834-158.925,364.762-269.93C2425.039,2341.226,2404.401,2275.448,2404.401,2275.448z"/>
					</g>
				</g>
			</g>
			<g style="opacity:0.3;">
				<g>
					<g>
						<path style="fill:#391B47;" d="M1637.765,2360.688c0,0-133.295,4.239-197.568,80.396
							c-64.273,76.157-22.573,181.422,73.873,219.017c96.446,37.595,326.527-37.595,326.527-37.595l10.045-3.762l23.457,40.779
							c0,0,10.109,29.15,4.094,34.413c-6.015,5.263-137.543,73.114-305.807,71.52c-168.264-1.594-276.537-67.008-276.537-67.008
							l-13.573-29.743c0,0,48.064-58.914,64.09-126.806s20.824-140.074,60.719-171.654c39.895-31.58,160.575-48.497,205.688-48.497
							C1657.886,2321.747,1637.765,2360.688,1637.765,2360.688z"/>
					</g>
				</g>
			</g>
			<g style="opacity:0.3;">
				<g>
					<g>
						<path style="fill:#391B47;" d="M1666.909,2441.083c0,0,31.58,57.359,66.167,61.871c34.587,4.511,65.415-44.362,65.415-44.362
							s23.037,73.686-38.483,86.468S1659.39,2516.81,1666.909,2441.083z"/>
					</g>
				</g>
			</g>
			<g>
				<g>
					<g>
						<path style="fill:#391B47;" d="M1100.698,2170.829c36.169-17.93,73.711-31.616,111.83-44.01
							c38.122-12.315,76.991-22.221,116.198-30.615c78.49-16.411,158.663-25.274,238.972-26.358
							c40.159-0.574,80.338,0.922,120.358,4.198c40.01,3.504,79.841,8.86,119.258,16.397
							c78.792,15.125,155.913,38.741,228.984,70.88c2.74,1.206,3.986,4.406,2.78,7.147c-1.125,2.561-3.992,3.815-6.598,2.987
							l-0.077-0.025c-75.303-24.214-151.89-43.085-229.579-54.625c-19.453-2.67-38.857-5.552-58.412-7.263
							c-19.467-2.401-39.056-3.595-58.597-5.135c-9.783-0.61-19.589-0.908-29.378-1.379l-14.688-0.619l-14.702-0.274
							c-9.8-0.129-19.595-0.573-29.399-0.446l-29.406,0.266c-39.194,1.084-78.365,3.231-117.421,6.992
							c-39.035,3.903-78,8.892-116.702,15.649c-19.384,3.195-38.7,6.834-57.955,10.815l-28.859,6.137
							c-9.567,2.262-19.197,4.336-28.732,6.755c-38.196,9.297-76.389,19.866-113.513,32.442l-0.217,0.073
							c-2.835,0.96-5.912-0.559-6.872-3.395C1097.09,2174.821,1098.3,2172.014,1100.698,2170.829z"/>
					</g>
				</g>
			</g>
			<g>
				<g>
					<g>
						<path style="fill:#391B47;" d="M1671.801,2055.743c-9.934-7.372-52.897-9.571-90.37-9.322
							c-37.473-0.249-80.436,1.95-90.37,9.322c-16.326,12.117-48.182,36.841-44.03,51.92c4.097,14.88,64.142,89.76,129.295,107.802
							l-0.021,0.735c0.44-0.111,0.881-0.253,1.32-0.37c0.44,0.116,0.876,0.259,1.316,0.37l0.011-0.741
							c65.343-18.055,132.782-92.918,136.878-107.796C1719.984,2092.585,1688.127,2067.861,1671.801,2055.743z"/>
					</g>
				</g>
			</g>
			<g style="opacity:0.4;">
				<g>
					<g>
						<path style="fill:#FFFFFF;" d="M1470.339,2072.236c0,0,50.895,20.504,113.582,18.249s102.196-23.665,102.196-23.665
							s-26.181-13.377-40.883-16.234c-14.702-2.857-102.605-7.943-102.605-7.943S1474.526,2055.115,1470.339,2072.236z"/>
					</g>
				</g>
			</g>
			<g>
				<g>
					<g>
						<path style="fill:#A26143;" d="M851.459,1851.157c0,0,12.654-178.261,89.609-317.004s263.158-212.429,263.158-212.429
							l58.648-7.535l8.111-24.045c0,0-103.117-95.797-211.124-47.899c-108.006,47.899-178.684,124.592-292.221,171.21
							c-113.537,46.618-203.012,95.491-186.471,256.397c16.542,160.906,130.078,278.202,130.078,278.202
							s76.566,66.596,95.491,68.423s24.061-12.782,24.061-12.782L851.459,1851.157z"/>
					</g>
				</g>
			</g>
			<g>
				<g>
					<g>
						<path style="fill:#A26143;" d="M2311.403,1851.157c0,0-12.654-178.261-89.608-317.004
							c-76.954-138.744-263.158-212.429-263.158-212.429l-58.648-7.535l-8.111-24.045c0,0,103.117-95.797,211.124-47.899
							c108.006,47.899,178.685,124.592,292.221,171.21c113.536,46.618,203.012,95.491,186.47,256.397
							s-130.078,278.202-130.078,278.202s-76.566,66.596-95.491,68.423s-24.061-12.782-24.061-12.782L2311.403,1851.157z"/>
					</g>
				</g>
			</g>
			<g>
				<g>
					<g>
						<path style="fill:#FFFFFF;" d="M1712.37,2348.422c-8.162-4.8-16.804-8.904-25.752-12.405
							c-0.817,0.828-1.296,1.318-1.296,1.318l0.795,0.522c32.112,11.749,54.442,29.127,69.661,45.66l4.23,2.772
							C1748.527,2372.866,1733.475,2360.832,1712.37,2348.422z"/>
					</g>
				</g>
			</g>
			<g>
				<g>
					<g>
						<path style="fill:#391B47;" d="M1602.791,2026.314c11.906,0.551,23.512,1.139,34.974,1.745
							c-10.662-0.949-22.763-1.504-35.064-1.748C1602.731,2026.312,1602.761,2026.313,1602.791,2026.314z"/>
					</g>
				</g>
			</g>
			<g>
				<g>
					<g>
						<path style="fill:#FFFFFF;" d="M1686.117,2337.857l69.661,45.66C1740.559,2366.984,1718.229,2349.607,1686.117,2337.857z"/>
					</g>
				</g>
			</g>
			<g>
				<g>
					<g>
						<path style="fill:#FFFFFF;" d="M1450.493,2348.422c8.162-4.8,16.804-8.904,25.752-12.405c0.817,0.828,1.296,1.318,1.296,1.318
							l-0.795,0.522c-32.112,11.749-54.442,29.127-69.661,45.66l-4.23,2.772C1414.335,2372.866,1429.387,2360.832,1450.493,2348.422
							z"/>
					</g>
				</g>
			</g>
			<g>
				<g>
					<g>
						<path style="fill:#391B47;" d="M1560.072,2026.314c-11.906,0.551-23.512,1.139-34.974,1.745
							c10.662-0.949,22.763-1.504,35.064-1.748C1560.131,2026.312,1560.101,2026.313,1560.072,2026.314z"/>
					</g>
				</g>
			</g>
			<g>
				<g>
					<g>
						<path style="fill:#FFFFFF;" d="M1476.745,2337.857l-69.661,45.66C1422.303,2366.984,1444.633,2349.607,1476.745,2337.857z"/>
					</g>
				</g>
			</g>
			<g>
				<g style="opacity:0.3;">
					<g>
						<g>
							<path style="fill:#391B47;" d="M2583.939,1644.547c-80.27,164.592-201.38,96.248-278.357-77.951
								c-76.982-174.214-210.464-264.531-261.113-270.096c-50.65-5.565-102.615,27.113-102.615,27.113l0.732,0.262l76.129,27.219
								l0.287,0.103c0,0,5.626,2.388,15.166,7.334c38.123,19.762,139.206,80.743,198.544,196.371
								c1.867,3.637,3.695,7.32,5.474,11.066c0.794,1.677,1.577,3.361,2.354,5.048c0.772,1.682,1.586,3.312,2.338,5.015
								c1.22,2.758,2.374,5.548,3.556,8.325c2.505,5.829,4.902,11.721,7.232,17.653c0.678,1.729,1.379,3.448,2.045,5.182
								c1.302,3.404,2.577,6.82,3.824,10.253c51.963,141.394,60.344,293.556,61.418,313.377c0.067,1.231,0.111,2.058,0.129,2.234
								c0.228,2.06,3.902,34.459,6.593,58.18c1.171,10.317,2.154,18.984,2.587,22.803c0.153,1.346,0.239,2.104,0.239,2.104
								l0.022,0.007l19.341,6.243l0.013,0.004c0,0,38.751-11.979,47.412-19.868c8.661-7.889,113.427-86.919,148.083-180.835
								c0.15-0.404,0.287-0.803,0.435-1.206c33.077-90.234,37.85-170.318,38.135-175.675c0.011-0.189,0.016-0.304,0.016-0.304
								C2583.952,1644.522,2583.946,1644.534,2583.939,1644.547z"/>
						</g>
					</g>
				</g>
				<g style="opacity:0.3;">
					<g>
						<g>
							<path style="fill:#391B47;" d="M812.985,2022.395l0.012-0.004l19.341-6.243l0.022-0.007c0,0,0.086-0.758,0.239-2.104
								c0.434-3.82,1.416-12.487,2.587-22.803c2.69-23.721,6.365-56.12,6.593-58.18c0.019-0.175,0.062-1.003,0.13-2.234
								c1.075-19.821,9.455-171.983,61.418-313.377c1.248-3.433,2.522-6.85,3.824-10.253c0.666-1.733,1.366-3.453,2.045-5.182
								c2.33-5.933,4.727-11.824,7.232-17.653c1.182-2.777,2.336-5.567,3.556-8.325c0.752-1.703,1.566-3.333,2.338-5.015
								c0.777-1.688,1.56-3.371,2.354-5.048c1.78-3.745,3.607-7.429,5.474-11.066c59.338-115.628,160.421-176.609,198.544-196.371
								c9.541-4.946,15.166-7.334,15.166-7.334l0.287-0.103l76.129-27.219l0.731-0.262c0,0-51.965-32.678-102.615-27.113
								c-50.649,5.565-184.131,95.883-261.113,270.096c-76.977,174.199-198.087,242.544-278.357,77.951
								c-0.006-0.014-0.013-0.026-0.019-0.039c0,0,0.005,0.115,0.016,0.304c0.285,5.357,5.058,85.441,38.135,175.675
								c0.148,0.403,0.285,0.802,0.435,1.206c34.656,93.916,139.422,172.946,148.083,180.835
								C774.233,2010.417,812.985,2022.395,812.985,2022.395z"/>
						</g>
					</g>
				</g>
			</g>
			<g style="opacity:0.4;">
				<g>
					<g>
						<path style="fill:#FFFFFF;" d="M578.888,1623.526c0,0,52.849-91.498,130.746-136.011s111.222-60.731,111.222-60.731
							l-26.775,27.744c0,0,18.179,15.676,93.603-41.201c75.424-56.877,186.706-157.031,248.529-169.396
							c61.823-12.365-59.35-13.036-59.35-13.036s-128.592,85.988-160.74,105.771c-32.148,19.783-101.741,60.748-154.748,82.376
							c-53.008,21.628-117.545,58.875-155.74,113.133C567.44,1586.432,578.888,1623.526,578.888,1623.526z"/>
					</g>
				</g>
			</g>
			<g style="opacity:0.4;">
				<g>
					<g>
						<path style="fill:#FFFFFF;" d="M2581.996,1623.526c0,0-52.849-91.498-130.746-136.011s-111.222-60.731-111.222-60.731
							l26.775,27.744c0,0-18.179,15.676-93.604-41.201s-186.706-157.031-248.529-169.396c-61.823-12.365,59.35-13.036,59.35-13.036
							s128.592,85.988,160.74,105.771c32.148,19.783,101.741,60.748,154.748,82.376c53.008,21.628,117.545,58.875,155.74,113.133
							C2593.443,1586.432,2581.996,1623.526,2581.996,1623.526z"/>
					</g>
				</g>
			</g>
			<g>
				<g>
					<g>
						<g>
							<path style="fill:#391B47;" d="M2332.326,2046.59c-6.526,0-12.683-3.96-15.168-10.415
								c-3.223-8.379,0.952-17.778,9.329-21.006c1.565-0.605,159.092-63.313,213.613-225.168
								c31.504-93.516,35.989-170.229,13.33-228.005c-21.584-55.044-67.205-94.531-139.463-120.723
								c-75.393-27.329-141.462-71.753-199.756-110.947c-58.867-39.583-109.707-73.767-155.193-81.455
								c-87.81-14.846-187.761,70.591-188.762,71.457c-6.78,5.864-17.046,5.129-22.917-1.646c-5.874-6.78-5.146-17.031,1.628-22.91
								c4.541-3.945,112.471-96.384,215.466-78.948c52.393,8.855,105.925,44.851,167.913,86.531
								c56.741,38.152,121.052,81.394,192.695,107.361c163.875,59.399,212.947,190.5,145.859,389.661
								c-59.512,176.665-225.693,242.41-232.739,245.125C2336.242,2046.239,2334.267,2046.59,2332.326,2046.59z"/>
						</g>
					</g>
				</g>
				<g>
					<g>
						<g>
							<path style="fill:#391B47;" d="M2270.364,1329.147c11.222,10.971,22.031,22.34,32.639,33.904
								c5.344,5.742,10.596,11.575,15.8,17.453c5.25,5.834,10.447,11.719,15.552,17.693c10.348,11.814,20.399,23.916,30.485,35.984
								c10.126,12.029,19.429,24.852,25.527,40.766c0.291,0.758-0.088,1.608-0.846,1.899c-0.369,0.141-0.763,0.123-1.101-0.02
								c-15.687-6.661-28.171-16.414-39.833-26.961c-11.702-10.508-23.438-20.982-34.877-31.744
								c-5.789-5.314-11.486-10.717-17.129-16.171c-5.688-5.41-11.332-10.865-16.88-16.411
								c-11.18-11.011-22.158-22.218-32.723-33.823c-6.044-6.639-5.562-16.921,1.078-22.965
								C2254.448,1322.932,2264.251,1323.197,2270.364,1329.147z"/>
						</g>
					</g>
				</g>
				<g>
					<g>
						<g>
							<path style="fill:#391B47;" d="M1891.884,2698.563c-4.507,0-8.992-1.865-12.202-5.512
								c-63.242-71.821-78.403-171.934-86.55-225.718c-1.653-10.928-3.084-20.361-4.49-26.714
								c-13.291-59.941-82.234-96.245-199.372-104.985c-8.482-0.635-15.042-7.7-15.042-16.206v-92.422
								c0-8.975,7.275-16.25,16.25-16.25c8.975,0,16.25,7.275,16.25,16.25v77.51c155.818,15.205,202.346,78.115,213.642,129.072
								c1.648,7.427,3.152,17.368,4.895,28.877c7.646,50.483,21.88,144.458,78.806,209.111c5.933,6.733,5.281,17.002-1.455,22.935
								C1899.528,2697.23,1895.698,2698.563,1891.884,2698.563z"/>
						</g>
					</g>
				</g>
				<g>
					<g>
						<g>
							<path style="fill:#391B47;" d="M1577.854,2334.994c-0.058,0-0.115,0-0.176,0c-8.972-0.098-16.172-7.446-16.077-16.421
								l1.089-102.544c0.095-8.916,7.354-16.079,16.248-16.079c0.059,0,0.115,0,0.176,0c8.972,0.098,16.172,7.446,16.077,16.421
								l-1.089,102.544C1594.006,2327.831,1586.748,2334.994,1577.854,2334.994z"/>
						</g>
					</g>
				</g>
				<g>
					<g>
						<g>
							<path style="fill:#391B47;" d="M1589.902,2784.559c-2.834,0-5.691-0.014-8.564-0.049
								c-158.176-0.024-271.296-59.351-307.446-81.099c-14.187,14.487-43.516,39.878-88.84,57.847
								c-59.49,23.579-159.289,38.438-296.877-24.712c-263.855-123.877-182.424-351.284-122.966-517.329
								c13.899-38.808,27.026-75.469,34.688-107.226c10.864-45.054,17.297-103.755,24.106-165.901
								c19.199-175.242,43.093-393.335,182.695-522.41c152.859-141.333,330.068-138.767,447.341-137.051
								c29.028,0.417,54.102,0.784,74.592-0.974c0.461-0.039,0.925-0.059,1.389-0.059h102.825c0.464,0,0.928,0.02,1.389,0.059
								c20.491,1.768,45.564,1.399,74.592,0.974c117.273-1.709,294.482-4.277,447.341,137.051
								c139.6,129.075,163.496,347.168,182.695,522.41c6.809,62.146,13.242,120.847,24.106,165.901
								c7.661,31.758,20.789,68.418,34.688,107.226c59.458,166.045,140.889,393.452-122.837,517.271
								c-137.717,63.203-237.517,48.354-297.009,24.771c-44.529-17.651-73.621-42.476-88.081-57.08
								C1856.137,2727.382,1756.435,2784.559,1589.902,2784.559z M1271.025,2666.078c3.198,0,6.421,0.938,9.229,2.891
								c1.187,0.82,122.209,83.042,301.177,83.042c0.063,0,0.127,0,0.193,0c2.708,0.034,5.405,0.049,8.076,0.049
								c191.833,0.005,290.693-81.318,291.682-82.153c3.401-2.861,7.837-4.243,12.261-3.73c4.419,0.488,8.462,2.749,11.157,6.284
								c4.583,5.928,115.842,144.932,356.333,34.546c105.2-49.39,158.931-120.049,164.133-215.962
								c4.629-85.386-28.755-178.613-58.208-260.869c-14.202-39.653-27.615-77.109-35.681-110.566
								c-11.355-47.07-17.896-106.773-24.822-169.978c-18.608-169.861-41.77-381.26-172.454-502.087
								c-143.31-132.505-305.994-130.142-424.802-128.418c-29.592,0.43-55.183,0.806-77.139-1.028h-101.457
								c-21.958,1.833-47.549,1.458-77.139,1.028c-118.784-1.712-281.487-4.089-424.802,128.418
								c-130.684,120.828-153.845,332.227-172.456,502.087c-6.924,63.206-13.464,122.908-24.819,169.978
								c-8.066,33.457-21.479,70.913-35.681,110.566c-29.453,82.256-62.837,175.483-58.208,260.869
								c5.203,95.913,58.933,166.572,164.26,216.021c240.359,110.327,351.616-28.677,356.238-34.648
								C1261.296,2668.275,1266.132,2666.078,1271.025,2666.078z"/>
						</g>
					</g>
				</g>
				<g>
					<g>
						<g>
							<path style="fill:#391B47;" d="M830.537,2046.59c-1.943,0-3.916-0.352-5.835-1.089
								c-7.046-2.715-173.229-68.459-232.739-245.125c-67.089-199.16-18.015-330.261,145.857-389.661
								c71.643-25.967,135.955-69.209,192.698-107.363c61.985-41.677,115.518-77.673,167.913-86.528
								c103.015-17.41,210.923,75.002,215.466,78.948c6.78,5.881,7.507,16.145,1.624,22.922c-5.877,6.777-16.135,7.507-22.913,1.633
								l0,0c-1.001-0.864-100.984-86.318-188.762-71.457c-45.486,7.688-96.326,41.872-155.195,81.455
								c-58.291,39.194-124.36,83.618-199.756,110.947c-72.257,26.191-117.876,65.679-139.46,120.723
								c-22.657,57.776-18.174,134.49,13.328,228.005c54.69,162.351,212.034,224.558,213.616,225.168
								c8.377,3.228,12.551,12.627,9.329,21.006C843.22,2042.63,837.063,2046.59,830.537,2046.59z"/>
						</g>
					</g>
				</g>
				<g>
					<g>
						<g>
							<path style="fill:#391B47;" d="M915.885,1351.716c-10.565,11.605-21.543,22.812-32.723,33.823
								c-5.549,5.546-11.191,11.001-16.88,16.411c-5.645,5.454-11.341,10.857-17.129,16.171
								c-11.439,10.761-23.176,21.236-34.877,31.744c-11.661,10.547-24.145,20.3-39.833,26.961c-0.748,0.318-1.61-0.031-1.927-0.778
								c-0.154-0.364-0.15-0.758-0.02-1.101c6.099-15.915,15.402-28.738,25.528-40.766c10.086-12.068,20.136-24.169,30.484-35.984
								c5.105-5.974,10.302-11.859,15.552-17.693c5.204-5.877,10.455-11.711,15.8-17.453c10.607-11.564,21.417-22.934,32.639-33.904
								c6.42-6.276,16.713-6.16,22.99,0.26C921.53,1335.589,921.614,1345.396,915.885,1351.716z"/>
						</g>
					</g>
				</g>
				<g>
					<g>
						<g>
							<path style="fill:#391B47;" d="M1270.976,2698.563c-3.813,0-7.644-1.333-10.732-4.052
								c-6.736-5.933-7.388-16.201-1.455-22.935c62.48-70.957,81.482-164.785,90.613-209.878c1.13-5.581,2.129-10.503,3.047-14.644
								c18.306-82.554,86.807-130.449,203.687-142.5v-77.549c0-8.975,7.275-16.25,16.25-16.25s16.25,7.275,16.25,16.25v92.422
								c0,8.506-6.56,15.571-15.042,16.206c-165.894,12.378-183.599,92.217-189.417,118.457c-0.881,3.975-1.836,8.696-2.922,14.058
								c-9.69,47.852-29.854,147.432-98.076,224.902C1279.968,2696.698,1275.483,2698.563,1270.976,2698.563z"/>
						</g>
					</g>
				</g>
				<g>
					<g>
						<g>
							<path style="fill:#391B47;" d="M1578.952,2232.455c-1.318,0-2.659-0.161-3.994-0.498
								c-70.837-17.905-137.417-97.554-143.594-119.976c-6.467-23.481,20.217-47.178,50.015-69.287
								c4.355-3.232,17.661-13.086,100.208-12.524c8.975,0.059,16.201,7.383,16.142,16.357c-0.059,8.936-7.324,16.143-16.248,16.143
								c-0.036,0-0.073,0-0.11,0c-49.712-0.352-75.491,3.579-80.911,6.338c-29.849,22.178-36.021,32.226-37.295,35.415
								c6.863,14.092,61.921,81.406,119.756,96.021c8.701,2.202,13.972,11.035,11.773,19.736
								C1592.834,2227.548,1586.218,2232.455,1578.952,2232.455z M1500.747,2068.792c-0.012,0.01-0.022,0.02-0.034,0.025
								C1500.725,2068.812,1500.737,2068.802,1500.747,2068.792z"/>
						</g>
					</g>
				</g>
				<g>
					<g>
						<g>
							<path style="fill:#391B47;" d="M1583.908,2232.455c-7.266,0-13.882-4.907-15.742-12.275
								c-2.2-8.701,3.071-17.534,11.772-19.736c57.534-14.536,112.322-81.226,119.734-96.074
								c-1.328-3.257-7.607-13.315-37.271-35.361c-5.42-2.759-31.169-6.699-80.911-6.338c-0.037,0-0.073,0-0.11,0
								c-8.923,0-16.189-7.202-16.248-16.143c-0.059-8.975,7.168-16.299,16.143-16.357c82.563-0.464,95.854,9.292,100.21,12.529
								c29.795,22.105,56.475,45.801,50.012,69.277c-6.177,22.427-72.756,102.075-143.596,119.98
								C1586.567,2232.294,1585.227,2232.455,1583.908,2232.455z M1662.119,2068.798c0.01,0.005,0.02,0.015,0.029,0.02
								C1662.138,2068.812,1662.128,2068.802,1662.119,2068.798z"/>
						</g>
					</g>
				</g>
			</g>
			<g>
				<g>
					<g>
						
							<path style="fill:none;stroke:#391B47;stroke-width:25;stroke-linecap:round;stroke-linejoin:round;stroke-miterlimit:10;" d="
							M851.51,2697.593"/>
					</g>
				</g>
			</g>
			<g>
				<g>
					<g>
						<path style="fill:#391B47;" d="M1652.897,1644.5c-0.564,12.201-0.456,24.736,0.809,36.762
							c0.54,6.035,1.401,12.002,2.629,17.822c1.101,5.837,2.559,11.545,4.382,17.056c3.639,11.003,8.573,21.306,15.33,30.042
							c6.551,8.908,14.94,16.076,24.297,22.051l-18.775,9.864c0.401-4.36,0.914-7.791,1.579-11.54
							c0.623-3.673,1.412-7.281,2.245-10.871c0.804-3.601,1.86-7.121,2.808-10.674l3.537-10.435
							c5.059-13.779,11.678-27.02,19.961-39.153c3.901-6.214,8.689-11.844,13.336-17.476c5.227-5.175,9.924-10.784,15.773-15.227
							c10.925-9.676,23.717-16.887,36.646-22.813c2.096-0.961,4.573-0.04,5.534,2.056c0.811,1.77,0.281,3.812-1.166,4.983
							l-0.27,0.217c-10.606,8.582-21.05,16.863-29.507,27.103c-4.583,4.728-8.275,10.241-12.302,15.358
							c-3.424,5.62-7.281,10.859-10.24,16.709c-6.209,11.456-11.456,23.441-15.334,35.89c-1.806,6.265-3.536,12.536-4.925,18.87
							c-0.675,3.171-1.314,6.339-1.79,9.507c-0.51,3.075-0.912,6.516-1.11,9.056l-0.01,0.123
							c-0.533,6.855-6.523,11.98-13.378,11.447c-1.949-0.152-3.809-0.777-5.388-1.706c-12.249-7.268-23.273-17.219-31.365-29.082
							c-8.181-11.814-13.539-25.167-16.582-38.599c-1.44-6.75-2.385-13.523-2.903-20.268c-0.411-6.762-0.324-13.482,0.083-20.131
							c1.078-13.333,3.306-26.24,7.986-38.87c0.804-2.171,3.217-3.279,5.388-2.475c1.753,0.649,2.813,2.347,2.733,4.119
							L1652.897,1644.5z"/>
					</g>
				</g>
			</g>
			<g>
				<g>
					<g>
						<path style="fill:#391B47;" d="M1507.776,1642.57c4.681,12.63,6.909,25.537,7.987,38.87c0.407,6.649,0.494,13.37,0.082,20.131
							c-0.518,6.745-1.462,13.518-2.902,20.268c-3.043,13.432-8.401,26.785-16.581,38.599
							c-8.093,11.864-19.117,21.814-31.366,29.082c-5.913,3.509-13.551,1.56-17.06-4.353c-0.998-1.682-1.555-3.503-1.704-5.329
							l-0.012-0.182c-0.197-2.54-0.6-5.98-1.11-9.056c-0.476-3.168-1.115-6.337-1.79-9.507c-1.389-6.334-3.12-12.605-4.925-18.87
							c-3.878-12.449-9.125-24.434-15.334-35.89c-2.959-5.851-6.816-11.089-10.24-16.709c-4.027-5.117-7.719-10.63-12.302-15.358
							c-8.456-10.24-18.901-18.521-29.506-27.103l-0.267-0.216c-1.793-1.45-2.07-4.079-0.62-5.871
							c1.225-1.514,3.292-1.944,4.985-1.169c12.928,5.926,25.72,13.138,36.646,22.813c5.849,4.443,10.547,10.052,15.773,15.227
							c4.648,5.633,9.435,11.262,13.336,17.476c8.284,12.133,14.903,25.374,19.962,39.153l3.537,10.435
							c0.948,3.553,2.004,7.073,2.809,10.674c0.833,3.59,1.623,7.198,2.245,10.871c0.664,3.749,1.178,7.18,1.578,11.54
							l-18.774-9.864c9.357-5.974,17.747-13.143,24.298-22.051c6.757-8.736,11.691-19.039,15.33-30.042
							c1.823-5.51,3.281-11.219,4.382-17.056c1.227-5.821,2.089-11.787,2.629-17.822c1.265-12.026,1.374-24.56,0.809-36.762
							l-0.013-0.279c-0.107-2.313,1.682-4.275,3.995-4.382C1505.519,1639.753,1507.158,1640.907,1507.776,1642.57z"/>
					</g>
				</g>
			</g>
			<g>
				<g>
					<g>
						<path style="fill:#391B47;" d="M1787.921,1800.682c0,0,103.957,89.476,228.62,96.995c0,0,8.95,162.41-124.663,162.41
							S1787.921,1800.682,1787.921,1800.682z"/>
					</g>
				</g>
			</g>
			<g>
				<g>
					<g>
						<path style="fill:#391B47;" d="M1791.388,1796.52c21.474,10.761,42.491,21.949,63.53,32.354
							c21.024,10.474,42.083,20.397,63.503,29.084c10.734,4.259,21.544,8.25,32.489,11.721c10.95,3.422,22.003,6.417,33.183,8.904
							c11.196,2.304,22.489,4.208,33.972,5.321c11.474,0.993,23.04,1.18,34.934,0.958l0.186-0.004
							c3.029-0.056,5.53,2.353,5.586,5.381c0.044,2.361-1.422,4.405-3.501,5.216c-11.745,4.552-24.194,7.384-36.825,9.037
							c-12.629,1.349-25.426,1.594-38.121,0.683c-25.377-2.006-50.153-8.255-73.616-17.109
							c-23.488-8.863-45.757-20.406-66.37-34.214c-20.52-13.997-39.743-29.606-55.885-49.007c-1.944-2.337-1.626-5.808,0.711-7.752
							c1.733-1.442,4.089-1.639,5.983-0.693L1791.388,1796.52z"/>
					</g>
				</g>
			</g>
			<g>
				<g>
					<g>
						<path style="fill:#391B47;" d="M1837.098,1683.027c15.956-12.743,34.338-20.519,53.839-25.578
							c19.486-4.875,40.319-6.189,60.885-2.857c20.525,3.105,40.784,11.161,57.449,23.678
							c16.704,12.471,29.688,28.997,37.635,47.104c1.227,2.795-0.044,6.056-2.839,7.282c-2.032,0.892-4.312,0.464-5.875-0.912
							l-0.133-0.119c-13.979-12.337-27.788-23.238-43.088-30.623c-15.131-7.553-31.111-12.37-47.805-14.444
							c-16.665-2.168-33.874-2.003-51.426-0.591c-17.534,1.298-35.583,4.05-53.898,6.799l-0.463,0.069
							c-3.026,0.454-5.848-1.631-6.302-4.657C1834.772,1686.157,1835.61,1684.222,1837.098,1683.027z"/>
					</g>
				</g>
			</g>
			<g>
				<g>
					<g>
						
							<ellipse transform="matrix(0.7071 -0.7071 0.7071 0.7071 -803.2551 1871.3135)" style="fill:#FFFFFF;" cx="1857.248" cy="1905.271" rx="34.63" ry="34.63"/>
					</g>
				</g>
			</g>
			<g>
				<g>
					<g>
						<ellipse style="fill:#978FAA;" cx="1915.474" cy="2015.489" rx="17.357" ry="10.667"/>
					</g>
				</g>
			</g>
			<g>
				<g>
					<g>
						<path style="fill:#391B47;" d="M1314.422,1800.682c0,0-103.957,89.476-228.62,96.995c0,0-8.95,162.41,124.663,162.41
							S1314.422,1800.682,1314.422,1800.682z"/>
					</g>
				</g>
			</g>
			<g>
				<g>
					<g>
						<path style="fill:#391B47;" d="M1317.889,1804.844c-16.142,19.401-35.365,35.009-55.884,49.007
							c-20.614,13.808-42.883,25.351-66.37,34.214c-23.464,8.854-48.239,15.103-73.616,17.109
							c-12.695,0.911-25.491,0.667-38.121-0.683c-12.631-1.653-25.081-4.484-36.824-9.037c-2.824-1.095-4.226-4.271-3.132-7.095
							c0.854-2.202,2.974-3.54,5.205-3.503l0.197,0.005c11.895,0.222,23.461,0.036,34.935-0.958
							c11.483-1.113,22.776-3.017,33.972-5.321c11.181-2.486,22.234-5.482,33.184-8.904c10.945-3.47,21.755-7.462,32.49-11.721
							c21.421-8.687,42.479-18.61,63.503-29.084c21.039-10.405,42.056-21.593,63.53-32.354l0.236-0.119
							c2.718-1.362,6.026-0.263,7.388,2.455C1319.588,1800.872,1319.241,1803.214,1317.889,1804.844z"/>
					</g>
				</g>
			</g>
			<g>
				<g>
					<g>
						<path style="fill:#391B47;" d="M1260.501,1692.767c-18.314-2.749-36.363-5.501-53.897-6.799
							c-17.552-1.412-34.761-1.577-51.426,0.591c-16.695,2.074-32.675,6.891-47.805,14.444
							c-15.301,7.385-29.109,18.286-43.088,30.623l-0.13,0.114c-2.289,2.02-5.781,1.802-7.801-0.487
							c-1.469-1.664-1.751-3.97-0.917-5.879c7.949-18.106,20.931-34.633,37.635-47.104c16.666-12.516,36.924-20.572,57.448-23.678
							c20.567-3.332,41.4-2.018,60.886,2.857c19.5,5.059,37.882,12.835,53.838,25.578c2.391,1.91,2.781,5.397,0.871,7.788
							c-1.276,1.598-3.256,2.302-5.143,2.024L1260.501,1692.767z"/>
					</g>
				</g>
			</g>
			<g>
				<g>
					<g>
						
							<ellipse transform="matrix(0.9732 -0.2298 0.2298 0.9732 -404.4346 337.0325)" style="fill:#FFFFFF;" cx="1245.094" cy="1905.271" rx="34.63" ry="34.63"/>
					</g>
				</g>
			</g>
			<g>
				<g>
					<g>
						<ellipse style="fill:#978FAA;" cx="1186.868" cy="2015.489" rx="17.357" ry="10.667"/>
					</g>
				</g>
			</g>
			<g>
				<g>
					<g>
						<path style="fill:#391B47;" d="M1734.389,2565.194c-18.677,0-35.972-5.503-50.398-16.289
							c-18.293-13.672-40.1-41.88-40.1-98.584c0-74.355-20.537-117.529-20.745-117.959c-3.918-8.071-0.549-17.793,7.524-21.714
							c8.076-3.911,17.795-0.552,21.714,7.524c0.981,2.021,24.006,50.405,24.006,132.148c0,33.745,9.609,59.512,27.058,72.554
							c13.562,10.142,32.012,12.48,51.963,6.602c38.718-11.426,32.976-90.151,32.908-90.942
							c-0.779-8.936,5.825-16.817,14.758-17.607c8.877-0.83,16.811,5.796,17.612,14.727c0.388,4.312,8.723,105.869-56.082,124.995
							C1754.301,2563.69,1744.155,2565.194,1734.389,2565.194z"/>
					</g>
				</g>
			</g>
			<g>
				<g>
					<g>
						<path style="fill:#391B47;" d="M1726.819,2340.988c3.215,6.006,5.389,11.095,7.582,16.736
							c2.068,5.542,3.959,11.12,5.517,16.789c3.231,11.293,5.504,22.841,6.768,34.496c0.736,5.803,1.131,11.665,1.401,17.497
							c-0.009,5.879,0.23,11.692-0.148,17.54c-0.219,11.61-2.937,23.447-10.322,34.028c-0.492,0.706-1.464,0.879-2.17,0.386
							c-0.215-0.15-0.38-0.344-0.492-0.561l-0.033-0.065c-5.919-11.554-7.693-21.95-9.531-32.498
							c-1.663-10.503-4.167-20.82-6.896-30.995c-1.37-5.087-2.958-10.113-4.421-15.147l-5.026-14.898
							c-1.804-4.909-3.584-9.807-5.487-14.63c-1.857-4.69-3.955-9.855-5.641-13.809l-0.356-0.833
							c-3.519-8.249,0.315-17.79,8.564-21.31C1713.914,2330.393,1722.88,2333.681,1726.819,2340.988z"/>
					</g>
				</g>
			</g>
		</g>
		<g>
			<g>
				<g>
					<g>
						<path style="fill:#FF4040;" d="M1881.162,1108.185c-93.662-45.114-140.068-76.693-150.701-108.273
							c-10.631-31.58-10.631-60.904,29.971-94.739c40.601-33.835,124.167-94.739,74.489-130.83
							c-49.678-36.091-129.184,2.256-144.695,0c-15.312-2.227-20.051-33.013-112.374-33.799v-0.037c-0.61,0-1.175,0.016-1.778,0.018
							c-0.603-0.003-1.168-0.018-1.778-0.018v0.037c-92.323,0.785-97.062,31.571-112.374,33.799
							c-15.511,2.256-95.019-36.091-144.696,0c-49.678,36.091,33.886,96.995,74.489,130.83
							c40.603,33.835,40.603,63.159,29.971,94.739c-10.633,31.58-57.039,63.159-150.701,108.273
							c-93.662,45.114-231.207,187.153-101.474,282.713c123.682,91.102,382.668,74.105,406.563,72.321
							c23.895,1.784,282.881,18.781,406.563-72.321C2112.369,1295.338,1974.824,1153.298,1881.162,1108.185z"/>
					</g>
				</g>
			</g>
			<g style="opacity:0.4;">
				<g>
					<g>
						<path style="fill:#FFFFFF;" d="M1373.669,877.54c5.072,0.175-32.144-54.701-19.173-70.49
							c12.97-15.79,81.769,12.406,108.273,6.203c26.504-6.203,41.73-29.324,77.257-33.271c35.527-3.948,83.461-9.587,100.378,9.023
							c16.918,18.609,27.632,26.504,47.37,23.685c19.737-2.82,93.047-25.94,109.401-13.534
							c16.354,12.406-11.279,72.182-11.279,72.182s60.904-36.091,59.212-67.107c-1.692-31.016-18.242-40.545-40.14-42.978
							c-21.898-2.434-79.96,10.015-99.59,10.761c-19.629,0.746-28.78-5.843-28.78-5.843s-66.95-30.174-113.885-27.919
							c-46.935,2.256-67.424,17.02-81.992,24.018c-14.568,6.998-3.854,12.073-21.335,8.126
							c-17.482-3.947-79.807-16.993-114.905-8.496s-44.177,15.871-35.099,45.937C1318.46,837.902,1357.315,876.977,1373.669,877.54z
							"/>
					</g>
				</g>
			</g>
			<g style="opacity:0.4;">
				<g>
					<g>
						<path style="fill:#FFFFFF;" d="M1389.495,1124.667c-5.432-10.439-31.366-14.417-59.028-0.024
							c-27.662,14.393-46.576,41.707-41.144,52.146c5.432,10.439,33.152,0.049,60.814-14.344
							C1377.798,1148.052,1394.926,1135.105,1389.495,1124.667z"/>
					</g>
				</g>
			</g>
			<g style="opacity:0.4;">
				<g>
					<g>
						<path style="fill:#FFFFFF;" d="M1756.143,1124.667c5.432-10.439,31.366-14.417,59.028-0.024
							c27.662,14.393,46.576,41.707,41.144,52.146c-5.432,10.439-33.152,0.049-60.814-14.344
							C1767.84,1148.052,1750.712,1135.105,1756.143,1124.667z"/>
					</g>
				</g>
			</g>
			<g style="opacity:0.4;">
				<g>
					<g>
						<ellipse style="fill:#FFFFFF;" cx="1570.666" cy="1183.826" rx="39.851" ry="47.069"/>
					</g>
				</g>
			</g>
			<g>
				<g>
					<g>
						<path style="fill:#FFD243;" d="M1454.122,941.583h251.134h11.278l4.511,9.455c0,0-2.256,33.835,0,39.099s0,15.79,0,15.79
							h-281.961c0,0-9.775-6.015-9.775-8.271s0-47.37,0-47.37L1454.122,941.583z"/>
					</g>
				</g>
			</g>
			<g>
				<g style="opacity:0.3;">
					<g>
						<g>
							<path style="fill:#391B47;" d="M1970.124,1185.471c0,0-131.782,132.493-400.307,132.493
								c-268.524,0-400.306-132.493-400.306-132.493c-31.929,31.044-50.133,88.261-50.133,88.261
								c11.882,154.269,450.439,153.479,450.439,153.479s438.558,0.79,450.439-153.479
								C2020.255,1273.732,2002.052,1216.515,1970.124,1185.471z"/>
						</g>
					</g>
				</g>
				<g style="opacity:0.3;">
					<g>
						<g>
							<path style="fill:#391B47;" d="M1733.257,1038.258l-21.053-29.324l-28.573-3.008c0,0,1.128-27.82,0-26.692
								c-1.127,1.128-113.815,0-113.815,0s-112.687,1.128-113.815,0c-1.127-1.128,0,26.692,0,26.692l-28.571,3.008l-21.054,29.324
								c0,0,72.402-0.752,71.164,7.519c-1.238,8.271-26.939,117.411-26.939,117.411l55.778-120.794l63.438,0.752l63.439-0.752
								l55.778,120.794c0,0-25.703-109.14-26.941-117.411C1660.856,1037.506,1733.257,1038.258,1733.257,1038.258z"/>
						</g>
					</g>
				</g>
				<g style="opacity:0.3;">
					<g>
						<g>
							<path style="fill:#391B47;" d="M1703.933,893.945c-18.798-0.802-41.729,1.829-43.986-3.058
								c-2.256-4.888-2.249-39.668-3.113-38.711c-0.864,0.957-87.018,41.768-87.018,41.768s-86.155-40.811-87.018-41.768
								c-0.864-0.958-0.857,33.823-3.111,38.711c-2.256,4.887-25.188,2.256-43.987,3.058c-18.796,0.802,16.167,31.529,16.543,38.672
								l-2.256,1.504l119.83,4.136l119.83-4.136l-2.255-1.504C1687.767,925.474,1722.731,894.747,1703.933,893.945z"/>
						</g>
					</g>
				</g>
			</g>
			<g>
				<g>
					<g>
						<path style="fill:#391B47;" d="M1649.47,1481.884c-36.67,0-63.704-1.672-73.396-2.371
							c-34.561,2.495-290.068,17.375-416.199-75.532c-54.128-39.868-62.017-85.498-59.101-116.755
							c8.188-87.791,104.421-165.388,163.159-193.682c91.257-43.955,133.831-73.508,142.351-98.818
							c9.368-27.825,8.284-49.355-24.973-77.07c-3.491-2.91-7.305-6.021-11.326-9.302c-38.052-31.057-85.408-69.71-84.309-108.762
							c0.293-10.437,4.348-25.574,22-38.396c42.783-31.082,100.144-16.108,134.424-7.158c6.267,1.636,13.906,3.63,17.305,4.065
							c1.094-0.715,2.903-2.158,4.412-3.364c17.971-14.348,42.717-29.7,109.221-30.432c0.415-0.032,0.835-0.049,1.257-0.049
							l1.846,0.02l1.711-0.02c0.425,0,0.845,0.017,1.26,0.049c66.506,0.732,91.25,16.084,109.221,30.432
							c1.509,1.204,3.318,2.649,4.411,3.364c3.398-0.435,11.035-2.429,17.302-4.065c34.275-8.95,91.641-23.926,134.426,7.158
							c17.651,12.822,21.704,27.959,22,38.396c1.099,39.05-46.26,77.703-84.312,108.76c-4.019,3.281-7.832,6.394-11.326,9.304
							c-33.257,27.715-34.341,49.246-24.973,77.07c8.521,25.31,51.094,54.863,142.351,98.818
							c58.738,28.294,154.973,105.894,163.159,193.682c2.915,31.257-4.971,76.887-59.099,116.755
							C1901.484,1470.853,1743.674,1481.884,1649.47,1481.884z M1576.074,1446.969c0.403,0,0.808,0.015,1.211,0.044
							c11.182,0.837,275.369,19.446,395.715-69.199c33.64-24.78,49.121-54.243,46.013-87.571
							c-6.575-70.5-88.694-140.342-144.902-167.417c-103.899-50.046-147.004-81.953-159.05-117.729
							c-10.825-32.153-15.137-70.654,34.968-112.407c3.572-2.976,7.471-6.16,11.582-9.517c25.52-20.828,73.022-59.6,72.373-82.666
							c-0.054-1.887-0.193-6.902-8.613-13.018c-30.354-22.058-78.406-9.502-107.114-2.007c-14.355,3.748-23.02,5.991-30.369,4.941
							c-8.496-1.235-14.26-5.837-19.834-10.288c-10.688-8.535-28.579-22.817-90.342-23.342c-0.264-0.002-0.527-0.012-0.789-0.027
							l-0.784,0.01l-0.913-0.01c-0.264,0.015-0.527,0.024-0.793,0.027c-61.76,0.525-79.651,14.807-90.339,23.342
							c-5.574,4.451-11.338,9.053-19.834,10.288c-7.349,1.055-16.016-1.194-30.371-4.941c-28.711-7.498-76.768-20.039-107.112,2.007
							c-8.42,6.116-8.56,11.13-8.613,13.018c-0.649,23.069,46.853,61.838,72.373,82.669c4.111,3.354,8.01,6.538,11.579,9.514
							c50.105,41.753,45.793,80.254,34.968,112.407c-12.046,35.776-55.151,67.683-159.05,117.729
							c-56.208,27.073-138.325,96.914-144.9,167.417c-3.108,33.328,12.373,62.791,46.013,87.571
							c120.347,88.638,384.524,70.032,395.715,69.199C1575.266,1446.984,1575.671,1446.969,1576.074,1446.969z"/>
					</g>
				</g>
			</g>
			<g>
				<g>
					<g>
						<path style="fill:#391B47;" d="M1501.835,954.083c-11.44,0-22.163-0.005-31.819-0.012c-14.495-0.012-26.58-0.032-35.049-0.066
							c-18.398-0.073-21.228-0.085-24.617-7.368c-2.913-6.26-0.2-13.694,6.06-16.607c2.061-0.957,4.246-1.323,6.365-1.121
							c11.919,0.349,225.591,0.083,307.666-0.046c0.007,0,0.012,0,0.02,0c6.894,0,12.488,5.583,12.5,12.48
							c0.012,6.904-5.576,12.507-12.481,12.52c0,0-77.141,0.125-154.312,0.186C1550.444,954.068,1524.712,954.083,1501.835,954.083z
							"/>
					</g>
				</g>
			</g>
			<g>
				<g>
					<g>
						<path style="fill:#391B47;" d="M1730.461,1021.434h-308.777c-6.904,0-12.5-5.596-12.5-12.5s5.596-12.5,12.5-12.5h308.777
							c6.904,0,12.5,5.596,12.5,12.5S1737.365,1021.434,1730.461,1021.434z"/>
					</g>
				</g>
			</g>
			<g>
				<g>
					<g>
						<path style="fill:#391B47;" d="M1480.501,843.593c8.927,6.492,16.612,13.57,24.452,20.725
							c7.747,7.188,15.195,14.624,22.563,22.129c14.668,15.072,28.583,30.767,42.096,46.837l-18.578-0.362
							c7.366-7.851,14.82-15.622,22.431-23.247l11.361-11.489l11.612-11.257c7.69-7.552,15.689-14.818,23.672-22.099
							c8.065-7.205,16.183-14.361,24.716-21.134c1.824-1.448,4.476-1.143,5.923,0.681c1.171,1.474,1.191,3.494,0.194,4.977
							c-6.088,9.034-12.59,17.685-19.145,26.286c-6.638,8.525-13.259,17.066-20.19,25.321l-10.319,12.453l-10.57,12.221
							c-7.009,8.182-14.176,16.217-21.43,24.173c-4.598,5.042-12.412,5.403-17.454,0.805c-0.35-0.32-0.679-0.655-0.984-1.004
							l-0.141-0.164c-13.754-15.783-27.165-31.889-39.922-48.533c-6.345-8.353-12.634-16.753-18.695-25.342
							c-6.012-8.579-12.029-17.379-17.515-26.114l-0.132-0.209c-1.239-1.973-0.644-4.576,1.329-5.815
							C1477.277,842.49,1479.149,842.615,1480.501,843.593z"/>
					</g>
				</g>
			</g>
			<g>
				<g>
					<g>
						<path style="fill:#391B47;" d="M1442.909,1169.532c5.08-14.237,10.606-28.259,16.243-42.228
							c5.704-13.936,11.426-27.863,17.48-41.631c5.958-13.813,12.032-27.57,18.325-41.222c6.137-13.727,12.565-27.313,19.024-40.885
							c2.067-4.345,6.366-6.91,10.872-6.976l0.244,0c14.236-0.182,28.473-0.152,42.709-0.013
							c14.237,0.138,28.473,0.071,42.709,0.378l0.5,0.011c4.497,0.097,8.344,2.759,10.181,6.546l19.794,41.018
							c6.41,13.768,12.973,27.459,19.257,41.291c12.64,27.628,24.979,55.409,36.438,83.636c0.869,2.14-0.162,4.579-2.301,5.447
							c-1.918,0.779-4.077,0.03-5.129-1.675c-16.026-25.909-31.173-52.264-46.017-78.773c-7.458-13.236-14.638-26.614-21.971-39.914
							l-21.433-40.186l10.681,6.556c-14.237,0.307-28.473,0.24-42.709,0.378c-14.236,0.14-28.472,0.17-42.709-0.012l11.115-6.976
							c-6.614,13.497-13.259,26.978-20.194,40.32c-6.78,13.417-13.778,26.728-20.892,39.982
							c-7.02,13.301-14.37,26.442-21.739,39.574c-7.435,13.1-14.982,26.146-22.974,38.977c-1.224,1.964-3.809,2.565-5.773,1.341
							C1442.937,1173.436,1442.26,1171.349,1442.909,1169.532z"/>
					</g>
				</g>
			</g>
		</g>
	</g>
</g>
</svg>
