<?xml version="1.0" encoding="utf-8"?>
<!-- Generator: Adobe Illustrator 27.5.0, SVG Export Plug-In . SVG Version: 6.00 Build 0)  -->
<svg version="1.1" id="Layer_1" xmlns="http://www.w3.org/2000/svg" xmlns:xlink="http://www.w3.org/1999/xlink" x="0px" y="0px"
	 viewBox="0 0 4000 4000" style="enable-background:new 0 0 4000 4000;" xml:space="preserve">
<g>
	<g>
		<rect x="2.613" y="2.613" style="fill:#5EFCA1;" width="3994.774" height="3994.774"/>
	</g>
	<g>
		<g>
			<g>
				<path style="fill:#FFFFFF;" d="M2939.556,2404.17c0,14.46-5.264,28.709-15.442,42.467
					c-84.933,115.257-508.685,202.926-1018.844,202.926c-510.229,0-934.262-87.668-1018.914-202.996
					c-10.178-13.758-15.442-27.937-15.442-42.396c0-135.542,463.06-245.323,1034.357-245.323S2939.556,2268.628,2939.556,2404.17z"
					/>
			</g>
			<g>
				<path style="fill:#232333;" d="M1905.271,2661.113c-507.449,0-939.884-87.357-1028.229-207.713
					c-11.723-15.844-17.68-32.42-17.68-49.23c0-91.562,169.575-150.994,311.826-184.729
					c196.181-46.523,456.883-72.144,734.083-72.144c277.192,0,537.882,25.621,734.043,72.144
					c142.236,33.735,311.792,93.167,311.792,184.729c0,16.855-5.957,33.454-17.708,49.338
					C2844.761,2573.796,2412.365,2661.113,1905.271,2661.113z M1905.271,2170.4c-611.817,0-1022.806,120.875-1022.806,233.77
					c0,11.756,4.432,23.709,13.174,35.526c83.001,113.073,517.039,198.315,1009.632,198.315
					c492.258,0,926.269-85.219,1009.542-198.225c8.758-11.836,13.19-23.813,13.19-35.615
					C2928.003,2291.275,2517.045,2170.4,1905.271,2170.4z"/>
			</g>
		</g>
		<g>
			<g>
				<path style="fill:#FFB839;" d="M955.717,2457.406c18.874-114.344,161.023-283.192,378.588-320.905
					c238.528-41.346,369.882,157.332,607.037,144.113C1568.286,2364.931,1164.824,2607.688,955.717,2457.406z"/>
			</g>
			<g>
				<path style="fill:#FFB839;" d="M1941.342,2280.607c-373.051,84.332-776.518,327.1-985.606,176.8
					c6.397-38.945,27.153-84.244,60.311-128.542c64.184-85.637,174.842-167.488,318.266-192.378
					c39.99-6.919,76.933-7.093,111.876-2.655C1619.812,2155.807,1743.916,2291.616,1941.342,2280.607z"/>
			</g>
			<g>
				<path style="fill:#FF8A33;" d="M1941.342,2280.607c-373.051,84.332-776.518,327.1-985.606,176.8
					c6.397-38.945,27.153-84.244,60.311-128.542c13.838,23.584,58.179,44.994,178.323,38.902
					c214.483-10.878,355.166-78.152,251.818-233.935C1619.812,2155.807,1743.916,2291.616,1941.342,2280.607z"/>
			</g>
			<g style="opacity:0.7;">
				<path style="fill:#FFFFFF;" d="M1250.635,2457.407c0,0,32.212-124.666,22.758-191.812
					c-7.071-50.222-41.339-67.554-91.294-77.064c45.168-23.933,96.211-42.34,152.214-52.044c20.104-3.481,39.424-5.265,58.092-5.57
					c-80.806,181.847,135.809,231.323,135.809,231.323L1250.635,2457.407z"/>
			</g>
			<g>
				<path style="fill:#232333;" d="M1125.686,2520.666c-67.989,0-128.601-14.563-178.957-50.752
					c-4.755-3.417-7.162-9.238-6.207-15.015c18.211-110.338,155.121-292.66,391.152-333.573
					c130.24-22.574,230.589,24.208,327.626,69.456c84.885,39.579,172.669,80.52,281.183,74.455
					c8.056-0.416,15.004,5.312,16.112,13.244c1.108,7.933-4.046,15.39-11.859,17.157c-115.751,26.161-234.931,67.856-350.19,108.181
					C1424.424,2463.337,1260.56,2520.666,1125.686,2520.666z M972.765,2450.414c138.229,89.962,368.299,9.452,611.61-75.671
					c85.049-29.756,172.216-60.251,258.95-84.873c-72.136-12.928-135.319-42.392-197.043-71.173
					c-97.002-45.232-188.648-87.949-309.349-67.022C1131.49,2187.288,996.487,2344.592,972.765,2450.414z"/>
			</g>
			<g>
				<path style="fill:#232333;" d="M1020.608,2501.695c-1.771,0-3.57-0.408-5.255-1.272c-5.68-2.906-7.927-9.866-5.021-15.546
					c1.436-2.803,3-5.901,4.697-9.261c34.287-67.909,125.363-248.302,309.852-283.709c110.278-21.158,208.153,24.008,294.521,63.854
					c62.5,28.837,121.56,56.061,174.877,52.983c6.292-0.396,11.832,4.494,12.199,10.865c0.367,6.368-4.498,11.83-10.865,12.199
					c-59.114,3.447-120.698-24.991-185.886-55.069c-87.28-40.27-177.545-81.91-280.492-62.143
					c-173.336,33.265-260.698,206.295-293.585,271.432c-1.717,3.404-3.3,6.538-4.752,9.376
					C1028.855,2499.399,1024.806,2501.695,1020.608,2501.695z"/>
			</g>
			<g>
				<path style="fill:#232333;" d="M1102.021,2516.318c-1.373,0-2.766-0.246-4.123-0.764c-5.957-2.28-8.938-8.951-6.663-14.906
					c3.32-8.694,83.613-213.205,282.435-241.608c79.08-11.302,128.344,17.085,175.992,44.532
					c38.82,22.363,75.487,43.486,127.93,43.564c6.382,0.01,11.543,5.188,11.536,11.569c-0.008,6.373-5.181,11.534-11.551,11.534
					c-0.004,0-0.012,0-0.016,0c-58.607-0.086-99.694-23.756-139.431-46.648c-46.283-26.664-90.019-51.846-161.192-41.682
					c-185.183,26.456-263.358,224.989-264.127,226.99C1111.048,2513.494,1106.667,2516.318,1102.021,2516.318z"/>
			</g>
			<g>
				<path style="fill:#232333;" d="M1194.354,2512.491c-1.997,0-4.018-0.519-5.863-1.607c-5.493-3.244-7.315-10.328-4.069-15.821
					c3.542-6,88.135-147.237,203.137-170c56.13-11.106,93.019,14.862,122.672,35.733c19.451,13.689,36.246,25.513,54.597,25.558
					c6.382,0.016,11.539,5.2,11.524,11.581c-0.016,6.369-5.185,11.522-11.551,11.522c-0.008,0-0.02,0-0.027,0
					c-25.638-0.064-46.135-14.493-67.837-29.768c-28.744-20.233-58.455-41.151-104.89-31.964
					c-83.988,16.625-159.526,111.333-187.735,159.089C1202.156,2510.461,1198.306,2512.491,1194.354,2512.491z"/>
			</g>
		</g>
		<g>
			<g>
				<path style="fill:#FFB839;" d="M1171.133,2603.548c-215.158-172.598,564.809-655.694,757.153-116.218
					c0,0-143.617,283.018-151.31,285.583L1171.133,2603.548z"/>
			</g>
			<g style="opacity:0.7;">
				<path style="fill:#FFFFFF;" d="M1736.214,2607.706c-9.356,28.763-223.491,22.323-251.776,4.004
					c-28.284-18.363,24.085-168.425,16.046-268.891c-5.439-67.978-72.31-75.658-72.31-75.658
					c69.971-23.062,145.034-33.724,216.311-24.586c-19.712,17.036-44.978,26.087-37.725,87.272
					C1614.676,2396.627,1745.526,2578.9,1736.214,2607.706z"/>
			</g>
			<g>
				<path style="fill:#232333;" d="M1776.974,2788.314c-1.393,0-2.789-0.189-4.147-0.57l-605.84-169.365
					c-2.001-0.56-3.87-1.517-5.489-2.819c-40.326-32.346-52.759-78.095-35.013-128.814
					c42.347-121.043,254.511-262.229,464.584-262.854c0.456-0.002,0.921-0.002,1.377-0.002c77.426,0,145.84,19.432,203.367,57.764
					c65.707,43.782,115.158,111.241,146.984,200.501c1.42,3.983,1.139,8.372-0.772,12.142
					c-0.363,0.708-36.359,71.629-72.834,141.951c-76.611,147.697-79.318,148.598-87.351,151.273
					C1780.263,2788.051,1778.62,2788.314,1776.974,2788.314z M1178.413,2589.592l592.264,165.568
					c20.676-34.558,93.585-175.792,140.855-268.845c-70.79-191.043-212.023-231.619-319.11-231.619c-0.425,0-0.839,0-1.264,0.002
					c-194.554,0.577-397.382,132.982-435.602,242.222C1142.429,2534.443,1150.122,2565.603,1178.413,2589.592z"/>
			</g>
			<g>
				<path style="fill:#232333;" d="M1226.522,2630.585c-4.202,0-8.255-2.302-10.295-6.302
					c-8.263-16.192-25.486-59.851-7.006-115.437c20.025-60.226,74.188-112.404,160.985-155.083
					c215.191-105.801,352.086-31.911,400.948,4.767c76.271,57.247,136.517,174.235,139.041,179.188
					c2.902,5.682,0.648,12.638-5.036,15.538c-5.68,2.897-12.64,0.646-15.538-5.034c-0.597-1.166-60.378-117.206-132.335-171.215
					c-45.46-34.119-173.184-102.663-376.886-2.512c-81.038,39.848-131.254,87.503-149.254,141.641
					c-15.729,47.303-1.283,84.044,5.657,97.646c2.902,5.682,0.644,12.64-5.036,15.54
					C1230.084,2630.179,1228.29,2630.585,1226.522,2630.585z"/>
			</g>
			<g>
				<path style="fill:#232333;" d="M1284.209,2646.706c-5.372,0-10.182-3.763-11.298-9.232c-0.663-3.25-15.651-80.41,36.086-152.01
					c57.281-79.289,209.359-145.142,336.01-112.847c159.175,40.576,227.597,227.256,230.433,235.183
					c2.15,6.004-0.979,12.611-6.983,14.76c-5.977,2.153-12.612-0.971-14.77-6.975c-0.651-1.826-67.236-183.071-214.384-220.583
					c-114.288-29.132-258.755,30.872-311.581,103.991c-45.62,63.138-32.309,133.185-32.173,133.885
					c1.248,6.248-2.793,12.335-9.039,13.597C1285.738,2646.632,1284.969,2646.706,1284.209,2646.706z"/>
			</g>
			<g>
				<path style="fill:#232333;" d="M1829.94,2689.736c-4.81,0-9.3-3.027-10.935-7.832
					c-37.744-110.847-99.799-184.218-179.461-212.183c-66.05-23.19-140.133-13.389-203.293,26.861
					c-90.721,57.819-80.844,150.11-80.379,154.01c0.753,6.324-3.749,12.08-10.073,12.848c-6.289,0.78-12.07-3.708-12.854-10.028
					c-0.558-4.479-12.448-110.453,90.893-176.312c69.183-44.091,150.592-54.725,223.356-29.177
					c60.386,21.197,143.004,77.707,193.68,226.534c2.056,6.039-1.174,12.603-7.213,14.658
					C1832.429,2689.535,1831.173,2689.736,1829.94,2689.736z"/>
			</g>
			<g>
				<path style="fill:#232333;" d="M1799.675,2746.478c-4.701,0-9.117-2.893-10.837-7.561
					c-38.087-103.324-91.302-172.237-153.9-199.292c-41.66-18.006-86.746-16.954-134.016,3.127
					c-81.152,34.476-75.663,124.043-75.39,127.839c0.457,6.355-4.315,11.891-10.67,12.363c-6.324,0.441-11.887-4.279-12.367-10.631
					c-0.086-1.094-7.205-109.796,89.391-150.832c53.317-22.65,104.523-23.682,152.219-3.072
					c68.539,29.625,126.085,103.109,166.407,212.509c2.208,5.986-0.858,12.626-6.843,14.832
					C1802.351,2746.246,1801.001,2746.476,1799.675,2746.478z"/>
			</g>
		</g>
		<g>
			<path style="fill:#FFAD40;" d="M1156.628,1744.367c49.996,222.837,331.052,502.919,722.528,538.053
				c398.296,35.746,198.333-315.026,198.333-315.026c-131.131-18.516-474.474-22.72-669.828-401.034L1156.628,1744.367z"/>
		</g>
		<g>
			<path style="fill:#FFAD40;" d="M2113.312,2206.458c-26.022,52.218-91.946,88.727-234.152,75.977
				c-391.501-35.16-672.519-315.22-722.517-538.058l251.036-178.018c57.613,111.615,128.151,190.681,202.299,247.163
				c177.148,134.895,375.053,140.813,467.521,153.868C2077.499,1967.389,2160.177,2112.423,2113.312,2206.458z"/>
		</g>
		<g>
			<path style="fill:#777782;" d="M2117.694,2206.458c-25.239,50.652-88.073,86.551-221.707,76.978
				c-4.091-0.304-8.225-0.609-12.446-1c-373.834-33.594-646.931-290.417-714.335-507.555c-3.177-10.269-5.919-20.452-8.181-30.504
				l251.036-178.018c57.613,111.615,128.151,190.681,202.299,247.163c177.148,134.895,375.053,140.813,467.521,153.868
				C2081.882,1967.389,2164.559,2112.423,2117.694,2206.458z"/>
		</g>
		<g>
			<path style="fill:#5D5D6D;" d="M1891.605,2283.435c-4.091-0.304-8.225-0.609-12.446-1
				c-373.834-33.594-646.931-290.417-714.336-507.555c69.057,3.394,189.245,9.704,189.245,9.704s-9.66,198.166,232.847,348.291
				c181.107,112.137,281.931,55.133,281.931,55.133S1881.335,2235.134,1891.605,2283.435z"/>
		</g>
		<g>
			<path style="fill:#5D5D6D;" d="M2113.312,2206.458c-312.957-50.738-501.767-268.876-503.334-392.937
				c177.148,134.895,375.053,140.813,467.521,153.868C2077.499,1967.389,2160.177,2112.423,2113.312,2206.458z"/>
		</g>
		<g>
			<path style="fill:#FF9343;" d="M2449.636,2195.231c-24.02,5.222-47.605,9.399-70.755,12.663l-35.552-82.286
				C2364.304,2135.616,2407.427,2160.507,2449.636,2195.231z"/>
		</g>
		<g>
			<path style="fill:#232333;" d="M1932.579,2300.355c-17.243,0-35.504-0.864-54.799-2.596
				c-232.036-20.824-398.713-121.363-497.673-202.039c-124.782-101.722-211.711-228.556-238.504-347.982l30.054-6.741
				c50.922,226.98,336.423,492.656,708.877,526.083c110.625,9.919,182.48-9.542,213.537-57.877
				c47.692-74.225-11.001-197.837-26.434-227.601c-9.632-1.252-20.263-2.471-32.169-3.837
				c-149.289-17.122-459.937-52.749-641.493-404.338l27.37-14.134c174.015,336.993,462.598,370.088,617.633,387.87
				c14.746,1.691,28.673,3.289,40.665,4.982c4.72,0.665,8.867,3.48,11.228,7.623c3.839,6.737,93.323,166.152,29.114,266.086
				C2088.161,2275.383,2025.231,2300.355,1932.579,2300.355z"/>
		</g>
		<g>
			<g>
				<path style="fill:#FFB839;" d="M1946.936,2354.569c241.416,63.987,649.969-456.747,819.214,0c0,0-44.383,213.982-50.2,215.921
					L1946.936,2354.569z"/>
			</g>
			<g>
				<path style="fill:#FFB839;" d="M2766.145,2354.583c0,0-44.385,213.962-50.216,215.92l-768.99-215.92
					c161.57,42.819,397.984-176.234,587.404-188.94c51.522-3.481,99.606,8.354,141.727,44.863
					C2710.49,2240.314,2740.95,2286.614,2766.145,2354.583z"/>
			</g>
			<g style="opacity:0.7;">
				<path style="fill:#FFFFFF;" d="M2713.666,2500.923c-7.615-1.131-314.654-128.238-314.871-130.065
					c0.261-1.827,115.835-50.912,157.697-135.199c10.704-21.584,1.697-50.913-22.149-70.015
					c51.522-3.481,99.606,8.354,141.727,44.863c-38.206,11.27-64.837,39.033-53.044,110.266
					C2642.607,2438.698,2721.281,2502.011,2713.666,2500.923z"/>
			</g>
			<g>
				<path style="fill:#232333;" d="M2715.949,2585.891c-1.401,0-2.801-0.191-4.163-0.573l-769.013-215.921
					c-8.15-2.288-12.925-10.72-10.697-18.884c2.224-8.159,10.611-13.012,18.803-10.832c83.434,22.096,190.583-31.527,304.047-88.304
					c129.202-64.648,262.809-131.49,373.843-87.655c65.489,25.853,115.15,86.529,151.821,185.496
					c1.003,2.709,1.225,5.649,0.64,8.477c-0.113,0.536-11.251,54.202-22.958,107.416c-25.521,116.014-27.113,116.545-37.455,119.99
					C2719.238,2585.628,2717.595,2585.891,2715.949,2585.891z M2052.844,2368.309l653.489,183.485
					c8.454-30.936,27.437-117.132,43.829-195.993c-33.257-87.834-76.693-141.315-132.701-163.427
					c-98.227-38.785-225.595,24.93-348.751,86.553C2193.152,2316.734,2120.248,2353.209,2052.844,2368.309z"/>
			</g>
			<g>
				<path style="fill:#232333;" d="M2739.063,2433.167c-0.496-1.728-51.101-172.961-166.524-193.975
					c-78.686-14.329-174.662,34.002-267.474,80.742c-83.11,41.85-161.64,81.392-231.88,81.392c-0.312,0-0.613,0-0.925-0.002
					l0.117-23.103c0.265,0.002,0.538,0.002,0.808,0.002c64.759,0,140.894-38.338,221.488-78.922
					c96.214-48.45,195.713-98.545,282.002-82.837c129.569,23.586,182.41,202.708,184.594,210.323L2739.063,2433.167z"/>
			</g>
			<g>
				<path style="fill:#232333;" d="M2732.876,2495.765c-16.763-8.278-30.565-32.672-48.035-63.555
					c-26.996-47.723-60.596-107.118-112.618-118.08c-79.474-16.765-161.453,25.939-233.8,63.593
					c-60.05,31.256-116.792,60.78-164.815,52.426l3.956-22.759c40.353,7.01,93.713-20.758,150.194-50.159
					c75.788-39.445,161.675-84.146,249.232-65.707c62.227,13.114,98.672,77.543,127.958,129.313
					c13.654,24.131,27.769,49.086,38.157,54.214L2732.876,2495.765z"/>
			</g>
			<g>
				<path style="fill:#232333;" d="M2723.01,2547.974c-33.819-9.162-54.593-42.591-76.583-77.982
					c-22.931-36.905-46.646-75.064-85.575-85.024c-59.411-15.195-126.803,18.207-180.951,45.045
					c-42.6,21.121-76.244,37.791-100.618,29.859l7.155-21.967c15.386,5.023,48.335-11.304,83.204-28.59
					c57.569-28.537,129.226-64.053,196.938-46.728c47.926,12.261,75.308,56.329,99.471,95.209c19.521,31.42,37.966,61.096,63,67.878
					L2723.01,2547.974z"/>
			</g>
		</g>
		<g>
			<path style="fill:#FFFFFF;" d="M1856.488,2157.158c-113.138,264.638-174.624,363.722-174.624,533.467
				c0,0,707.315,132.153,762.378-23.246c93.25-263.174-97.465-583.458-97.465-583.458l-446.871-50.544L1856.488,2157.158z"/>
		</g>
		<g>
			<path style="fill:#777782;" d="M2438.542,2303.519c-223.322,93.179-527.194,1.194-630.577-35.115
				c14.939-33.729,31.111-70.539,48.515-111.238l30.918-128.025c31.65-107.156,459.389,54.791,459.389,54.791
				S2402.041,2176.765,2438.542,2303.519z"/>
		</g>
		<g>
			<path style="fill:#5D5D6D;" d="M2404.163,2203.978c-220.01,37.074-403.902-7.659-539.103-82.33l22.323-92.512
				c31.679-107.132,459.384,54.785,459.384,54.785S2374.834,2131.047,2404.163,2203.978z"/>
		</g>
		<g>
			<path style="fill:#232333;" d="M1856.489,2157.158c-27.428,90.349-64.093,177.833-98.026,265.52
				c-33.91,86.023-58.955,174.932-61.195,267.949c-0.002,0-12.575-15.141-12.575-15.141
				c56.805,10.269,114.351,19.025,171.787,26.698c114.597,14.908,230.424,26.467,345.883,25.319
				c56.216-1.184,114.717-4.209,168.012-21.156c23.59-7.957,50.378-20.502,59.257-43.878c0.35-1.119,2.091-6.078,2.5-7.391
				c43.533-132.918,17.979-277.752-27.736-407.108c-19.36-53.613-42.708-106.686-70.851-156.167c0,0,7.779,6.523,7.779,6.523
				c-50.305-18.61-101.931-35.415-153.533-50.358c-51.501-14.632-103.838-27.59-156.682-35.339l4.28-30.505
				c81.699,12.198,160.944,34.997,239.274,60.391c26.004,8.55,51.7,17.38,77.568,27.002c3.397,1.248,6.094,3.618,7.781,6.525
				c15.069,26.124,27.833,52.229,40.204,79.448c65.364,147.791,109.147,315.65,70.626,476.736
				c-3.777,14.801-8.067,29.627-13.499,43.923c-13.228,31.846-46.83,49.327-77.235,59.422c-57.98,18.404-117.56,21.38-177.31,22.733
				c-117.526,1.157-234.169-10.482-350.371-25.586c-57.984-7.75-115.597-16.506-173.386-26.951
				c-7.094-1.04-12.254-6.998-12.53-13.909c-5.285-97.169,22.702-193.392,62.227-281.341
				C1767.16,2323.627,1810.374,2240.127,1856.489,2157.158L1856.489,2157.158z"/>
		</g>
		<g>
			<g>
				<path style="fill:#FFB839;" d="M1445.275,2687.686c-230.627-230.121,630.065-627.253,822.408-87.777
					c0,0-143.617,283.018-151.31,285.583C2108.679,2888.057,1445.275,2687.686,1445.275,2687.686z"/>
			</g>
			<g>
				<path style="fill:#FFB839;" d="M2267.702,2599.917c0,0-143.642,283.019-151.344,285.586
					c-7.659,2.568-671.082-197.817-671.082-197.817c-128.76-128.455,82.591-308.954,327.926-349.51
					c69.798-11.574,142.38-11.792,210.654,3.83C2105.392,2369.638,2213.308,2447.312,2267.702,2599.917z"/>
			</g>
			<g style="opacity:0.7;">
				<path style="fill:#FFFFFF;" d="M1824.94,2454.339c9.791-80.502-29.721-98.626-51.739-116.163
					c69.798-11.574,142.38-11.792,210.654,3.83c-16.405,16.057-42.514,29.018-55.57,68.528
					c-43.189,130.703,98.649,297.386,98.649,297.386l-297.378-4.742C1729.557,2703.178,1812.439,2557.124,1824.94,2454.339z"/>
			</g>
			<g>
				<path style="fill:#232333;" d="M2117.041,2900.88c-7.104,0-25.966-5.062-113.079-30.425
					c-56.013-16.311-133.54-39.238-230.425-68.145c-164.933-49.211-331.055-99.38-332.717-99.879
					c-2.423-0.733-4.631-2.052-6.425-3.843c-44.508-44.411-55.213-97.492-30.956-153.502
					c56.059-129.444,283.832-237.084,487.382-230.331c190.251,6.302,329.245,105.735,391.371,279.983
					c1.42,3.983,1.139,8.372-0.772,12.142c-0.363,0.708-36.359,71.629-72.834,141.951
					c-76.607,147.696-79.314,148.597-87.343,151.273C2119.971,2900.529,2118.914,2900.88,2117.041,2900.88z M1453.511,2674.084
					c240.896,72.749,595.81,178.891,656.177,194.301c20.138-33.415,93.671-175.848,141.237-269.487
					c-78.932-212.474-259.738-249.999-361.121-253.358c-206.757-6.833-412.351,106.166-458.096,211.787
					C1413.118,2600.251,1420.456,2639.514,1453.511,2674.084z"/>
			</g>
			<g>
				<path style="fill:#232333;" d="M1496.61,2714.711c-3.573,0-7.088-1.652-9.343-4.767c-0.819-1.129-80.134-114.154,58.119-224.977
					c122.484-98.186,316.797-130.96,462.028-77.922c193.848,70.794,238.13,244.639,239.921,252.004
					c1.506,6.199-2.298,12.447-8.497,13.952c-6.203,1.52-12.445-2.3-13.95-8.495c-0.41-1.674-43.502-169.333-225.4-235.76
					c-135.912-49.634-324.923-17.719-439.651,74.247c-120.686,96.742-56.621,189.529-53.836,193.432
					c3.698,5.179,2.52,12.39-2.645,16.106C1501.311,2714.003,1498.947,2714.711,1496.61,2714.711z"/>
			</g>
			<g>
				<path style="fill:#232333;" d="M1561.272,2734.174c-3.975,0-7.841-2.054-9.983-5.74c-1.697-2.926-41.106-72.567,1.233-153.787
					c21.616-41.459,72.604-81.195,136.392-106.291c51.862-20.401,135.838-40.835,241.372-22.326
					c160.048,28.075,270.798,204.457,290.952,262.085c2.106,6.021-1.069,12.61-7.093,14.717c-6.031,2.104-12.608-1.073-14.715-7.09
					c-16.354-46.763-121.813-220.413-273.139-246.956c-174.857-30.673-317.534,47.972-353.28,116.543
					c-36.304,69.634-3.152,129.038-1.724,131.533c3.164,5.524,1.272,12.583-4.245,15.762
					C1565.22,2733.675,1563.23,2734.174,1561.272,2734.174z"/>
			</g>
			<g>
				<path style="fill:#232333;" d="M2180.318,2781.348c-4.49,0-8.762-2.637-10.635-7.03
					c-0.585-1.375-59.969-138.296-181.232-209.378c-96.569-56.606-225.346-52.367-313.165,10.307
					c-80.102,57.171-46.4,156.82-44.926,161.033c2.107,6.015-1.057,12.606-7.069,14.721c-6.019,2.12-12.593-1.032-14.719-7.038
					c-0.421-1.194-41.102-120.151,53.294-187.52c96.503-68.873,232.438-73.469,338.265-11.434
					c128.012,75.037,188.308,214.376,190.813,220.272c2.493,5.869-0.242,12.646-6.109,15.142
					C2183.361,2781.05,2181.827,2781.348,2180.318,2781.348z"/>
			</g>
			<g>
				<path style="fill:#232333;" d="M2144.384,2849.287c-3.944,0-7.783-2.019-9.944-5.653c-0.804-1.355-81.031-135.9-130.064-176.018
					c-92.044-75.304-170.683-76.109-209.378-69.897c-36.683,5.899-68.024,23.015-81.788,44.672
					c-29.383,46.225-15.234,114.815-15.09,115.503c1.33,6.234-2.645,12.372-8.879,13.707c-6.226,1.317-12.37-2.629-13.709-8.861
					c-0.683-3.177-16.338-78.437,18.179-132.742c17.465-27.474,53.957-48.066,97.618-55.088
					c42.503-6.837,128.629-6.207,227.675,74.828c52.174,42.687,131.929,176.426,135.299,182.098
					c3.258,5.483,1.451,12.571-4.034,15.829C2148.422,2848.764,2146.389,2849.287,2144.384,2849.287z"/>
			</g>
		</g>
		<g>
			<path style="fill:#FFB839;" d="M1786.865,2627.645c385.104,29.581,859.666-653.599,1083.514-49.493
				c0,0-58.702,283.018-66.396,285.583L1786.865,2627.645z"/>
			<path style="fill:#232333;" d="M2803.982,2879.136c-1.167,0-2.337-0.133-3.484-0.4l-1017.118-236.09
				c-7.845-1.82-12.964-9.378-11.739-17.339c1.225-7.96,8.387-13.654,16.4-13.02c136.431,10.49,287.468-73.174,433.577-154.07
				c168.807-93.456,328.25-181.737,464.748-131.11c83.793,31.077,148.712,111.444,198.455,245.694
				c1.002,2.709,1.225,5.649,0.64,8.479c-0.148,0.708-14.875,71.658-30.355,142.01c-33.152,150.686-35.668,151.524-46.252,155.053
				C2807.275,2878.871,2805.628,2879.136,2803.982,2879.136z M1890.619,2635.917l903.927,209.815
				c11.442-39.378,41.208-176.667,59.851-266.358c-46.201-122.83-104.695-195.924-178.743-223.385
				c-123.253-45.72-276.673,39.241-439.113,129.178C2122.034,2548.563,2004.536,2613.609,1890.619,2635.917z"/>
		</g>
		<g>
			<g>
				<path style="fill:#FFB839;" d="M1014.904,2486.741c0,0-103.866-50.01,0-141.052c103.866-91.043,312.879-69.244,520.61,121.818
					s277.005,213.594,277.005,213.594l-534.746,9.525L1014.904,2486.741z"/>
			</g>
			<g>
				<path style="fill:#FF8A33;" d="M1812.539,2681.115l-534.751,9.53l-262.872-203.909c0,0-60.442-29.112-42.993-83.331
					c57.048,46.126,168.837,120.405,326.839,151.562c187.591,36.987,287.327,14.969,257.127-68.884
					C1747.833,2660.054,1812.539,2681.115,1812.539,2681.115z"/>
			</g>
			<g style="opacity:0.7;">
				<path style="fill:#FFFFFF;" d="M1404.328,2688.382l-126.541,2.263l-39.685-30.765c47.605-108.699,16.231-261.305-22.323-362.563
					c52,7.397,108.786,26.587,167.705,59.006C1327.612,2476.51,1359.445,2606.096,1404.328,2688.382z"/>
			</g>
			<g>
				<path style="fill:#232333;" d="M1744.119,2694.277c-1.014,0-2.04-0.133-3.066-0.414
					c-79.646-21.86-152.039-86.05-228.685-154.008c-95.094-84.319-193.427-171.51-313.461-184.45
					c-46.993-5.064-92.754,8.855-128.968,39.179c-30,25.121-49.892,58.862-51.913,88.059c-0.441,6.365-5.965,11.146-12.324,10.726
					c-6.363-0.441-11.165-5.957-10.724-12.322c2.442-35.245,25.482-75.162,60.128-104.177
					c41.075-34.392,92.995-50.17,146.274-44.436c127.368,13.732,228.506,103.41,326.315,190.134
					c74.574,66.123,145.013,128.578,219.475,149.014c6.152,1.689,9.768,8.044,8.079,14.196
					C1753.844,2690.91,1749.19,2694.277,1744.119,2694.277z"/>
			</g>
			<g>
				<path style="fill:#232333;" d="M1649.805,2694.277c-0.768,0-1.549-0.078-2.333-0.238
					c-64.681-13.268-128.242-69.643-195.533-129.325c-77.621-68.844-157.879-140.032-244.294-149.078
					c-49.86-5.229-80.122,14.067-96.737,31.172c-24.589,25.313-32.614,58.911-29.656,80.98c0.847,6.322-3.593,12.135-9.917,12.981
					c-6.289,0.862-12.133-3.591-12.983-9.915c-4.514-33.688,9.613-72.996,35.988-100.145c20.181-20.77,56.641-44.225,115.708-38.052
					c93.792,9.821,176.874,83.51,257.218,154.772c64.915,57.573,126.225,111.953,184.848,123.978
					c6.25,1.281,10.276,7.387,8.996,13.636C1659.987,2690.51,1655.177,2694.277,1649.805,2694.277z"/>
			</g>
			<g>
				<path style="fill:#232333;" d="M1543.206,2697.45c-0.468,0-0.936-0.029-1.412-0.086c-35.438-4.315-71.797-38.877-113.894-78.897
					c-56.352-53.573-126.487-120.245-212.753-127.374c-19.95-1.637-36.105,3.46-48.019,15.187
					c-17.883,17.6-24.355,48.394-22.841,71.104c0.425,6.365-4.389,11.869-10.755,12.294c-6.32,0.439-11.867-4.391-12.292-10.757
					c-1.732-25.923,5.005-64.816,29.68-89.104c16.927-16.658,39.167-23.965,66.132-21.749
					c94.376,7.8,167.784,77.584,226.766,133.655c39.129,37.193,72.916,69.315,100.771,72.706
					c6.332,0.772,10.841,6.531,10.069,12.864C1553.942,2693.151,1548.96,2697.448,1543.206,2697.45z"/>
			</g>
			<g>
				<path style="fill:#232333;" d="M1277.772,2706.027c-3.414,0-6.737-1.135-9.441-3.232l-261.732-203.002
					c-8.567-4.525-47.091-26.98-52.607-67.451c-4.346-31.853,12.733-64.905,50.762-98.235
					c56.805-49.796,140.082-66.994,234.478-48.409c101.012,19.882,207.069,78.831,306.708,170.472
					c200.219,184.154,270.81,210.096,271.5,210.336c7.045,2.458,11.391,9.638,10.209,17.005
					c-1.182,7.367-7.397,12.856-14.859,12.989l-534.746,9.525C1277.955,2706.025,1277.861,2706.027,1277.772,2706.027z
					 M1167.436,2309.208c-56.996,0-106.224,16.371-142.38,48.064c-20.415,17.893-44.021,44.695-40.564,70.767
					c3.737,28.162,36.811,44.686,37.143,44.849c0.94,0.46,1.884,1.042,2.711,1.683l258.576,200.558l472.452-8.415
					c-43.264-28.279-116.348-83.077-230.289-187.871c-95.457-87.799-196.36-144.137-291.798-162.924
					C1210.461,2311.428,1188.42,2309.208,1167.436,2309.208z"/>
			</g>
		</g>
		<g>
			<g>
				<path style="fill:#FFFFFF;" d="M1169.846,2435.21c-2.291,20.858,14.309,45.046,40.844,57.3
					c26.543,12.267,54.211,8.548,66.627-7.631c17.129,20.286,46.791,31.976,71.073,26.77c24.282-5.206,35.1-25.574,27.214-47.842
					c26.529,7.83,51.887,0.181,59.681-19.448c7.802-19.615-4.568-44.71-28.124-60.027c20.382-9.204,26.586-31.704,13.327-54.26
					c-13.251-22.542-41.566-37.657-66.995-37.039c2.291-20.858-14.302-45.033-40.844-57.3c-26.535-12.254-54.189-8.538-66.612,7.628
					c-17.144-20.283-46.798-31.959-71.08-26.753s-35.108,25.56-27.237,47.831c-26.521-7.817-51.865-0.171-59.666,19.445
					c-7.794,19.628,4.568,44.71,28.124,60.027c-20.382,9.204-26.578,31.717-13.327,54.26
					C1116.109,2420.726,1144.416,2435.828,1169.846,2435.21z"/>
			</g>
			<g>
				<g>
					<path style="fill:#232333;" d="M1336.281,2524.442c-20.758,0-42.741-8.616-59.262-23.36
						c-17.739,12.841-45.082,13.972-71.172,1.912c-26.13-12.064-44.13-34.27-47.274-56.82c-26.497-3.275-52.392-19.541-65.68-42.152
						c-8.469-14.409-10.771-29.789-6.476-43.309c2.083-6.558,5.653-12.415,10.451-17.29c-19.751-18.534-27.745-43.16-19.549-63.803
						c8.118-20.421,30.448-31.523,56.313-29.5c0.035-7.707,1.904-15.082,5.579-21.653c6.558-11.729,18.394-19.95,33.324-23.151
						c24.499-5.267,53.336,3.599,73.802,21.85c17.735-12.823,45.078-13.96,71.153-1.917c26.126,12.072,44.13,34.275,47.278,56.822
						c26.497,3.273,52.388,19.539,65.68,42.152c8.473,14.411,10.775,29.793,6.48,43.309c-2.083,6.558-5.653,12.415-10.455,17.29
						c19.759,18.542,27.757,43.172,19.545,63.809c-8.114,20.43-30.476,31.515-56.317,29.506c-0.031,7.707-1.9,15.08-5.571,21.653
						c-6.558,11.731-18.39,19.952-33.316,23.153C1346.1,2523.953,1341.224,2524.442,1336.281,2524.442z M1276.886,2466.466
						l9.253,10.96c14.575,17.26,40.295,27.109,59.828,22.929c8.458-1.814,14.68-5.906,17.992-11.836
						c3.215-5.75,3.484-13.156,0.757-20.855l-7.557-21.345l21.714,6.409c21.086,6.224,40.299,0.909,45.675-12.632
						c5.528-13.898-4.654-33.706-23.684-46.078l-17.711-11.516l19.252-8.696c6.332-2.86,10.654-7.447,12.503-13.268
						c2.282-7.184,0.726-15.924-4.381-24.61c-10.806-18.394-35.329-31.853-56.754-31.346l-13.205,0.322l1.443-13.129
						c1.771-16.141-12.936-35.725-34.209-45.554c-20.785-9.599-43.404-7.804-52.607,4.18l-8.735,11.36l-9.246-10.943
						c-14.586-17.253-40.318-27.094-59.836-22.915c-8.462,1.814-14.688,5.908-18.008,11.84c-3.211,5.746-3.484,13.151-0.761,20.848
						l7.537,21.326l-21.694-6.396c-21.082-6.205-40.283-0.901-45.667,12.632c-5.516,13.898,4.666,33.708,23.688,46.074
						l17.715,11.516l-19.256,8.696c-6.328,2.858-10.65,7.445-12.499,13.268c-2.282,7.188-0.73,15.926,4.373,24.61
						c10.814,18.396,35.399,31.954,56.758,31.346l13.205-0.322l-1.443,13.131c-1.775,16.145,12.932,35.727,34.205,45.552
						c20.801,9.607,43.412,7.814,52.619-4.176L1276.886,2466.466z"/>
				</g>
				<g>
					<path style="fill:#F34E6C;" d="M1245.902,2418.486c27.266,8.067,70.195,5.168,78.98-26.658
						c5.535-30.875-20.91-58.831-47.282-72.49c-17.764-9.086-40.653-15.138-59.635-9.016c-19.059,5.506-26.295,25.642-17.556,42.802
						c8.592,17.428,28.918,29.956,48.263,31.87c21.474,2.582,32.931-15.169,19.387-31.767c-7.954-9.906-25.464-19.032-37.521-11.975
						c-3.102,2.115-4.675,5.653-4.003,10.05c0.468,2.762-1.425,5.382-4.196,5.803c-7.609,0.455-6.808-9.79-5.396-15.091
						c3.162-11.476,16.891-16.623,27.156-15.433c20.011,1.772,40.263,15.191,44.59,36.044c5.147,24.98-18.324,41.867-41.317,39.475
						c-26.488-2.088-50.933-16.833-63.717-40.647c-21.953-48.019,21.313-81.139,67.268-71.17
						c37.005,6.949,71.8,30.885,86.624,66.291c18.468,45.183-13.629,79.415-58.964,78.631c-12.431-0.001-24.642-2.432-36.015-6.762
						c-2.712-1.032-4.074-4.069-3.041-6.78C1240.507,2419.085,1243.306,2417.728,1245.902,2418.486L1245.902,2418.486z"/>
				</g>
			</g>
		</g>
		<g>
			<g>
				<g>
					<path style="fill:#BF8C73;" d="M2406.711,2568.509c52.588-3.938,79.652-35.292,192.285-56.383
						c115.238-21.579,190.965-283.423,81.87-235.91C2393.808,2401.235,2346.565,2573.013,2406.711,2568.509z"/>
				</g>
				<g style="opacity:0.7;">
					<path style="fill:#FFFFFF;" d="M2731.695,2294.656c-8.355-9.722-22.464-11.952-43.342-2.865
						c-224.854,97.956-302.582,224.581-296.742,272.67c-32.683-26.544,31.956-176.193,289.251-288.236
						C2710.366,2263.382,2726.344,2273.139,2731.695,2294.656z"/>
				</g>
				<g>
					<path style="fill:#F4C3B0;" d="M2643.25,2460.439c-15.442,15.916-30.967,25.426-46.141,28.267
						c-60.897,11.404-97.849,26.285-124.829,37.152c-22.205,8.943-36.876,14.851-55.825,16.27c-0.15,0.011-0.272,0.015-0.365,0.016
						c-1.236-1.632-3.66-10.069,3.413-28.634c8.574-22.505,27.226-49.258,52.518-75.332c34.563-35.63,99.121-88.277,210.399-136.74
						c13.182-5.742,15.496-2.6,17.025-0.521c15.615,21.219-6.255,108.038-56.18,159.505
						C2643.259,2460.43,2643.256,2460.433,2643.25,2460.439z"/>
				</g>
				<g>
					<path style="fill:#BF8C73;" d="M2615.499,2446.635c15.424-24.929,31.412-50.481,43.331-77.083
						c3.337-7.93,6.699-15.509,6.984-23.337c-0.007-2.352-0.883-1.897,0.479-0.866c-6.129,0.303-13.644,4.107-19.75,6.868
						c-19.626,9.659-38.465,21.151-56.913,33.138c-36.906,23.999-73.375,50.395-105.476,80.18
						c-9.89,9.963-22.935,21.256-27.016,34.226c-0.089,0.683,0.061,0.492-0.201,0.102c-0.177-0.251-0.045-0.142-0.406-0.441
						c-1.09-0.788-1.366-0.669-1.185-0.673c0.281,0.104,1.695,0.176,3.075,0.061c34.702-5.949,69.211-22.861,100.464-39.164
						c12.334-6.963,24.432-13.983,32.965-25.361c6.075-8.285,13.512-18.591,14.206-28.658c0.029,0.027,0.319,0.443,0.627,0.571
						c0.304,0.15,0.374,0.063,0.095,0.023c-0.556-0.103-1.929,0.049-3.32,0.447c-25.346,9.806-49.136,24.609-70.927,40.714
						c-1.681,1.373-4.183,1.094-5.502-0.639c-1.249-1.633-0.98-3.952,0.565-5.271c17.451-14.826,36.195-27.607,56.368-38.34
						c7.853-3.668,14.422-8.813,23.716-8.86c26.529,4.703-2.18,47.962-12.481,57.786c-8.421,8.562-18.767,14.749-28.757,20.782
						c-26.579,15.294-53.785,28.172-82.912,38.103c-7.46,2.344-14.769,4.59-23.722,5.516c-4.498,0.19-9.58,0.555-14.387-3.119
						c-7.352-5.632-7.325-16.199-4.036-23.311c7.36-15.995,18.361-26.158,29.951-37.912c22.139-21.21,46.068-39.629,70.494-57.358
						c23.138-16.119,105.374-74.959,130.592-65.759c19.317,8.828,6.854,34.117,0.498,47.224
						c-14.324,27.146-31.962,51.37-51.209,74.967C2618.643,2454.878,2612.902,2450.608,2615.499,2446.635L2615.499,2446.635z"/>
				</g>
				<g>
					<path style="fill:#232333;" d="M2404.54,2580.143c-15.437,0-27.148-9.131-30.924-24.386
						c-12.339-49.833,63.764-186.096,302.639-290.13c27.729-12.084,44.04-5.557,52.853,2.042
						c17.672,15.242,21.023,49.16,9.191,93.056c-19.334,71.734-72.659,150.674-137.176,162.756
						c-59.992,11.233-95.114,25.377-123.331,36.741c-24.796,9.985-44.379,17.871-70.221,19.806l0,0
						C2406.545,2580.106,2405.535,2580.143,2404.54,2580.143z M2406.709,2568.51h0.039H2406.709z M2704.195,2282.019
						c-6.086,0-13.014,2.304-18.718,4.787c-228.018,99.308-298.473,226.916-289.438,263.398c1.33,5.385,4.018,7.211,9.807,6.788l0,0
						c22.264-1.67,39.484-8.604,63.316-18.201c29.165-11.744,65.461-26.362,127.708-38.019
						c54.557-10.215,102.097-82.878,119.125-146.059c9.012-33.44,8.235-60.741-1.978-69.55
						C2711.392,2282.901,2707.955,2282.019,2704.195,2282.019z"/>
				</g>
			</g>
			<g>
				<g>
					<path style="fill:#BF8C73;" d="M2492.33,2660.213c55.26,1.757,81.606-31.44,199.058-42.394
						c120.168-11.207,181.463-306.56,69.633-264.456C2466.767,2464.15,2429.129,2658.204,2492.33,2660.213z"/>
				</g>
				<g style="opacity:0.7;">
					<path style="fill:#FFFFFF;" d="M2814.624,2376.556c-9.569-10.493-24.029-13.765-44.029-6.253
						c-234.823,88.419-306.226,229.86-293.375,284.401c-38.667-32.513,17.402-201.054,283.798-301.351
						C2789.471,2342.644,2806.727,2353.778,2814.624,2376.556z"/>
				</g>
				<g>
					<path style="fill:#F4C3B0;" d="M2734.439,2563.05c-15.173,16.646-30.891,25.835-46.715,27.31
						c-63.502,5.923-101.468,18.775-129.187,28.16c-22.814,7.723-37.886,12.826-57.799,12.192c-0.157-0.005-0.286-0.015-0.384-0.025
						c-1.422-2.046-4.584-12.15,1.562-32.885c7.449-25.136,25.24-53.998,50.092-81.269c33.961-37.266,98.388-90.706,212.455-133.652
						c13.512-5.088,16.18-1.156,17.944,1.446c18.006,26.556,1.103,124.875-47.953,178.706
						C2734.448,2563.04,2734.445,2563.043,2734.439,2563.05z"/>
				</g>
				<g>
					<path style="fill:#BF8C73;" d="M2704.365,2544.565c14.529-26.447,29.321-53.662,39.832-81.791
						c3.337-9.576,7.146-19.931,6.189-29.487c-0.398-1.773-0.423-2.531-1.841-2.78c-12.137,0.755-23.57,7.496-34.733,12.659
						c-13.349,6.716-26.453,14.345-39.313,22.352c-38.294,23.889-76.055,50.9-108.274,82.146
						c-9.44,9.553-20.629,21.124-25.241,33.095c-0.953,3.321-1.253,4.717-0.208,6.08c0.235,0.267-0.292-0.304-0.399-0.314
						c-0.664-0.357,0.205,0.144,1.4,0.228c21.3,0.2,42.473-8.166,62.781-15.116c14.118-5.293,28.065-11.25,41.344-18.12
						c12.783-6.722,25.215-13.71,33.141-25.947c5.687-8.452,11.042-18.334,12.519-28.289c0.292-1.718,0.012-3.66-0.281-4.535
						c-4.966-1.078-11.616,3.038-16.626,4.753c-20.697,8.828-40.55,20.62-58.402,34.219c-1.67,1.405-4.195,1.15-5.531-0.583
						c-1.258-1.623-1.005-3.942,0.529-5.272c20.984-18.01,44.279-32.695,69.837-43.244c8.281-3.764,19.77-2.574,22.373,7.84
						c2.931,15.618-5.159,30.167-12.801,42.926c-8.577,14.327-23.429,23.823-37.582,31.536
						c-28.001,14.961-56.673,26.895-87.617,34.715c-11.551,2.042-23.643,6.052-35.271-0.517c-8.279-5.784-9.499-17.473-6.295-26.051
						c6.367-16.985,17.532-28.167,29.183-40.535c22.412-22.42,47.084-41.465,72.408-59.561
						c23.722-16.244,105.228-73.122,131.548-60.038c19.401,11.28,7.632,38.105,1.616,53.595
						c-12.863,28.816-29.435,54.906-47.845,80.255C2707.94,2552.648,2701.968,2548.681,2704.365,2544.565L2704.365,2544.565z"/>
				</g>
				<g>
					<path style="fill:#232333;" d="M2496.478,2675.682c-1.529,0-3.07-0.025-4.635-0.074h-0.004
						c-20.855-0.663-36.191-15.447-40.022-38.58c-6.25-37.72,17.021-92.134,60.733-142.002
						c38.532-43.964,111.979-106.729,243.045-156.077c30.183-11.358,48.694-1.763,58.927,8.278
						c30.265,29.709,23.629,99.768,3.632,156.023c-27.218,76.562-74.075,125.125-125.336,129.906
						c-61.938,5.776-97.677,17.873-126.393,27.595C2542.855,2668.73,2522.315,2675.682,2496.478,2675.682z M2492.819,2644.82
						c22.525,0.712,39.788-5.142,63.729-13.246c30.242-10.237,67.876-22.978,133.407-29.089
						c45.928-4.283,81.347-59.401,99.175-109.554c21.027-59.145,18.452-109.353,3.815-123.723c-2.079-2.041-8.407-8.245-26.497-1.43
						c-218.187,82.146-292.789,212.618-284.245,264.217c2.079,12.554,8.064,12.743,10.619,12.825H2492.819z"/>
				</g>
			</g>
		</g>
		<g>
			<g>
				<path style="fill:#FFFFFF;" d="M1041.633,2559.648c-2.021,20.886,14.891,44.857,41.583,56.766
					c26.7,11.922,54.317,7.845,66.522-8.493c17.39,20.063,47.201,31.367,71.414,25.848s34.766-26.026,26.593-48.19
					c26.628,7.486,51.885-0.491,59.424-20.219c7.547-19.714-5.146-44.647-28.899-59.658c20.261-9.467,26.173-32.046,12.623-54.427
					c-13.542-22.369-42.05-37.116-67.469-36.169c2.021-20.886-14.883-44.844-41.583-56.766c-26.692-11.909-54.295-7.835-66.508,8.49
					c-17.405-20.06-47.207-31.35-71.42-25.831c-24.213,5.52-34.774,26.012-26.615,48.18c-26.62-7.473-51.863,0.501-59.41,20.216
					c-7.539,19.727,5.146,44.647,28.899,59.658c-20.261,9.467-26.165,32.059-12.623,54.427
					C987.714,2545.861,1016.214,2560.594,1041.633,2559.648z"/>
			</g>
			<g>
				<g>
					<path style="fill:#232333;" d="M1208.234,2646.724c-20.473,0.002-42.132-8.294-58.583-22.597
						c-17.571,13.065-44.906,14.553-71.141,2.834c-26.282-11.725-44.575-33.694-48.011-56.204
						c-26.532-2.932-52.634-18.86-66.214-41.296c-8.657-14.303-11.157-29.655-7.038-43.229c1.997-6.581,5.493-12.484,10.229-17.419
						c-19.993-18.281-28.307-42.8-20.376-63.546c7.857-20.524,30.054-31.9,55.931-30.228c-0.066-7.707,1.705-15.103,5.294-21.722
						c6.406-11.813,18.133-20.188,33.023-23.583c24.433-5.567,53.379,2.912,74.075,20.895c17.571-13.057,44.894-14.545,71.13-2.84
						c26.278,11.735,44.567,33.704,48.004,56.206c26.532,2.932,52.638,18.86,66.222,41.296c8.657,14.304,11.157,29.655,7.042,43.225
						c-2.001,6.583-5.497,12.488-10.233,17.423c20.001,18.285,28.311,42.807,20.372,63.55
						c-7.849,20.534-30.035,31.905-55.935,30.232c0.07,7.709-1.701,15.105-5.29,21.726c-6.402,11.815-18.125,20.19-33.011,23.584
						C1218.712,2646.172,1213.512,2646.724,1208.234,2646.724z M1149.073,2589.515l9.398,10.839
						c14.793,17.072,40.642,26.602,60.117,22.151c8.43-1.921,14.598-6.096,17.836-12.066c3.136-5.791,3.308-13.201,0.484-20.865
						l-7.833-21.246l21.796,6.129c21.179,5.951,40.311,0.388,45.511-13.221c5.345-13.968-5.095-33.644-24.281-45.77l-17.855-11.286
						l19.139-8.943c6.289-2.939,10.552-7.584,12.328-13.43c2.189-7.213,0.519-15.932-4.697-24.55
						c-11.052-18.251-35.692-31.467-57.16-30.608l-13.198,0.491l1.272-13.147c1.564-16.161-13.397-35.551-34.794-45.107
						c-20.898-9.323-43.498-7.237-52.552,4.863l-8.586,11.471l-9.39-10.822c-14.797-17.06-40.63-26.588-60.124-22.137
						c-8.438,1.923-14.61,6.097-17.848,12.07c-3.14,5.787-3.316,13.194-0.492,20.855l7.814,21.224l-21.776-6.111
						c-21.168-5.941-40.295-0.38-45.503,13.223c-5.337,13.964,5.103,33.642,24.285,45.764l17.86,11.288l-19.143,8.942
						c-6.289,2.938-10.549,7.582-12.324,13.426c-2.188,7.217-0.523,15.936,4.693,24.554c11.048,18.251,35.575,31.387,57.156,30.608
						l13.198-0.491l-1.272,13.147c-1.564,16.167,13.396,35.557,34.794,45.105c20.934,9.345,43.521,7.25,52.564-4.857
						L1149.073,2589.515z"/>
				</g>
				<g>
					<path style="fill:#F34E6C;" d="M1117.467,2541.939c27.368,7.714,70.255,4.258,78.628-27.678
						c5.134-30.944-21.671-58.555-48.217-71.871c-17.879-8.857-40.845-14.61-59.746-8.243c-18.986,5.752-25.961,25.981-17,43.026
						c8.816,17.313,29.304,29.582,48.672,31.242c21.505,2.304,32.731-15.594,18.974-32.015c-8.081-9.802-25.708-18.7-37.672-11.489
						c-3.075,2.156-4.602,5.714-3.872,10.103c0.5,2.756-1.354,5.399-4.121,5.858c-7.604,0.55-6.936-9.703-5.592-15.021
						c3.012-11.518,16.675-16.841,26.954-15.782c20.031,1.509,40.456,14.668,45.052,35.461c5.471,24.911-17.78,42.104-40.802,40.008
						c-26.512-1.745-51.147-16.174-64.239-39.818c-22.572-47.731,20.26-81.41,66.341-72.034
						c37.093,6.468,72.194,29.954,87.474,65.164c19.054,44.938-12.602,79.584-57.941,79.388c-12.429,0.158-24.67-2.112-36.1-6.296
						c-2.725-0.999-4.125-4.016-3.128-6.741C1112.081,2542.607,1114.861,2541.217,1117.467,2541.939L1117.467,2541.939z"/>
				</g>
			</g>
		</g>
		<g>
			<g>
				<path style="fill:#FFFFFF;" d="M1443.756,2743.405c144.612,121.022,280.61,36.821,334.071-36.454s6.706-198.407-104.429-279.49
					s-244.567-87.415-298.027-14.14C1321.91,2486.595,1333.367,2651.024,1443.756,2743.405z"/>
			</g>
			<g>
				<path style="fill:#E2E2E2;" d="M1777.826,2706.945c-53.466,73.284-189.455,157.474-334.061,36.45
					c-84.359-70.575-110.958-183.177-94.951-265.083c15.99,41.639,42.068,81.36,79.604,112.786
					c144.605,121.024,280.599,36.805,334.061-36.45c3.875-5.309,7.23-10.905,10.062-16.76
					C1805.817,2599.077,1810.224,2662.524,1777.826,2706.945z"/>
			</g>
			<g>
				<path style="fill:#232333;" d="M1594.639,2815.998c-54.542,0-107.672-21.368-158.293-63.735
					c-52.708-44.108-88.092-107.76-99.627-179.225c-10.459-64.772,0.503-127.027,29.321-166.526
					c57.125-78.308,198.061-73.092,314.167,11.618c55.556,40.533,97.447,93.079,117.951,147.961
					c21.129,56.547,17.224,108.99-10.997,147.668c-31.077,42.597-91.193,91.408-166.704,100.654
					C1611.823,2815.47,1603.209,2815.998,1594.639,2815.998z M1451.17,2734.548c53.477,44.752,109.443,63.903,166.481,56.933
					c68.176-8.348,122.625-52.656,150.846-91.338c23.493-32.2,26.341-76.934,8.021-125.966
					c-18.944-50.695-57.983-99.487-109.927-137.385c-105.811-77.2-232.263-84.673-281.889-16.666
					C1338.029,2484.099,1340.736,2642.128,1451.17,2734.548z"/>
			</g>
			<g>
				
					<ellipse transform="matrix(0.5894 -0.8078 0.8078 0.5894 -1427.3822 2365.4033)" style="fill:#FFA64D;" cx="1613.231" cy="2586.863" rx="90.408" ry="137.122"/>
			</g>
			<g>
				<path style="fill:#FF8745;" d="M1724.015,2667.698c-29.454,40.333-102.903,36.848-164.072-7.806
					c-51.33-37.44-77.685-91.924-67.483-132.317c11.529,24.362,31.486,48.539,58.248,68.036
					c61.174,44.625,134.652,48.115,164.077,7.777c4.743-6.51,8.054-13.746,9.994-21.52
					C1739.677,2613.249,1740.572,2644.993,1724.015,2667.698z"/>
			</g>
			<g style="opacity:0.7;">
				
					<ellipse transform="matrix(0.5894 -0.8078 0.8078 0.5894 -1384.0803 2361.7041)" style="fill:#FFFFFF;" cx="1631.235" cy="2542.411" rx="23.379" ry="35.459"/>
			</g>
			<g>
				<path style="fill:#232333;" d="M1660.935,2769.243c-58.985,0-126.893-22.558-187.942-67.1l0,0
					c-116.102-84.709-164.082-217.329-106.954-295.631c57.125-78.308,198.061-73.092,314.167,11.618
					c55.556,40.533,97.447,93.079,117.951,147.961c21.129,56.547,17.224,108.99-10.997,147.668
					C1760.071,2750.89,1714.127,2769.243,1660.935,2769.243z M1486.608,2683.48c105.811,77.194,232.262,84.676,281.889,16.664
					c23.493-32.2,26.341-76.934,8.021-125.966c-18.944-50.695-57.983-99.487-109.927-137.385
					c-105.811-77.2-232.263-84.673-281.889-16.666C1335.084,2488.136,1380.809,2606.279,1486.608,2683.48L1486.608,2683.48z"/>
			</g>
		</g>
		<g>
			<g>
				<path style="fill:#777782;" d="M2413.476,2288.077c-136.849-2.901-243.153,19.844-327.81,55.118
					c-87.029,36.262-153.026,142.873-98.633,199.261c44.335,45.96,125.075,25.644,235.704,1.632
					c56.814-12.332,250.237-15.352,305.435-88.479c114.589-151.81-125.032-301.528-184.864-329.986"/>
			</g>
			<g>
				<path style="fill:#5D5D6D;" d="M2528.18,2455.623c-55.22,73.105-248.643,76.151-305.429,88.465
					c-110.657,24.02-191.377,44.341-235.718-1.653c-24.934-25.848-24.586-62.269-8.442-97.647
					c1.131,30.765,13.228,65.577,61.181,68.579c87.9,5.526,122.407-13.881,233.369-26.37
					c101.52-11.444,269.529-32.592,281.104-150.604C2564.123,2374.468,2558.857,2414.98,2528.18,2455.623z"/>
			</g>
			<g>
				<path style="fill:#5D5D6D;" d="M2449.636,2195.231c-24.02,5.222-47.605,9.399-70.755,12.663l-35.552-82.286
					C2364.304,2135.616,2407.427,2160.507,2449.636,2195.231z"/>
			</g>
			<g>
				<g>
					<path style="fill:#232333;" d="M2413.476,2288.076c-106.233,8.01-212.782,24.299-311.525,65.292
						c-49.341,18.739-93.241,58.52-111.951,108.188c-16.392,43.366,3.461,81.171,49.807,89.036
						c14.121,2.478,29.539,2.563,45.175,1.354c46.25-3.916,93.191-15.731,138.905-24.86c19.017-3.347,38.186-5.119,56.677-7.243
						c68.514-8.66,187.555-18.545,233.807-71.624c52.245-65.072,26.922-136.136-24.489-193.344
						c-42.553-47.151-96.547-86.542-153.188-115.346c0,0.001,13.229-27.816,13.229-27.816
						c84.029,43.279,186.627,119.765,217.057,213.119c15.46,46.421,5.05,98.543-24.449,137.185
						c-49.883,67.91-180.444,79.259-258.235,89.82c-18.496,2.334-36.61,4.263-54.277,7.561
						c-47.309,10.031-92.985,22.33-142.306,26.776c-26.462,2.198-56.143,1.571-81.747-9.893
						c-51.306-22.679-67.167-76.12-47.78-126.157c23.309-59.916,73.387-103.924,132.352-125.578
						C2192.946,2285.665,2305.133,2275.297,2413.476,2288.076L2413.476,2288.076z"/>
				</g>
				<g>
					<path style="fill:#232333;" d="M2089.491,2467.449c-21.366,20.594-38.281,45.726-50.414,72.639
						c-4.075,8.801-7.224,17.942-10.14,27.02l-21.351-8.824C2027.033,2521.978,2055.025,2489.964,2089.491,2467.449
						L2089.491,2467.449z"/>
				</g>
				<g>
					<path style="fill:#232333;" d="M2037.723,2426.111c-25.671,24.734-46.801,54.518-58,88.238c0,0-21.094-9.419-21.094-9.419
						C1977.733,2472.323,2005.866,2445.855,2037.723,2426.111L2037.723,2426.111z"/>
				</g>
			</g>
		</g>
		<g>
			<g>
				<path style="fill:#F38E0A;" d="M1963.425,2724.396"/>
			</g>
			<g style="opacity:0.3;">
				<path style="fill:#FFFFFF;" d="M1151.974,3071.058c-70.439-95.544-129.853-240.117-80.245-281.1
					c66.618-55.035,159.691,92.95,251.054,188.437c150.552,157.347,257.587,176.875,252.682,255.716
					C1572.449,3282.591,1353.156,3343.947,1151.974,3071.058z"/>
			</g>
			<g>
				<g>
					<path style="fill:#FFFFFF;" d="M2769.031,2303.799c57.899,24.833,90.261,52.573,90.261,81.844
						c0,11.344-4.856,22.522-14.244,33.315c-78.342,90.419-469.211,159.195-939.782,159.195
						c-470.635,0-861.763-68.776-939.846-159.25c-9.388-10.792-14.244-21.916-14.244-33.26c0-14.634,8.089-28.884,23.415-42.58
						c15.326-13.696-37.651,8.484-8.706-3.931c0,0-62.253-8.065-35.092,101.844c30.323,122.706,284.135,281.656,974.434,281.656
						c705.762,0,961.186-148.596,982.945-271.397C2911.712,2318.387,2769.031,2303.799,2769.031,2303.799z"/>
				</g>
				<g>
					<path style="fill:#232333;" d="M2769.031,2303.798c80.07,24.161,146.436,84.619,50.049,147.784
						c-39.695,24.929-83.675,39.906-127.933,53.572c-65.916,19.513-133.475,33.076-201.215,43.901
						c-270.803,41.479-545.981,47.288-819.261,34.699c-136.746-7.035-273.422-20.048-408.082-45.534
						c-85.807-17.426-246.319-49.889-302.022-117.55c-22.003-27.534-13.362-57.749,14.026-77.606
						c-24.228,24.264-28.892,53.262-0.715,77.01c9.741,9.31,22.004,16.767,33.841,23.149c39.515,20.902,82.904,34.361,126.03,46.28
						c264.229,65.171,538.971,76.637,810.308,76.926c226.333-2.922,454.162-16.782,675.857-64.162
						c59.558-13.638,211.798-49.24,230.94-109.709C2859.523,2352.553,2798.201,2320.974,2769.031,2303.798L2769.031,2303.798z"/>
				</g>
				<g>
					<g>
						<path style="fill:#DB2626;" d="M1905.258,2988.244c100.098,0,188.174,23.616,262.752,60.396
							c209.818,103.478,291.888,346.305,273.803,404.618c-25.93,83.611-283.641,159.813-536.555,159.813
							s-510.625-76.202-536.555-159.813c-18.084-58.313,63.985-301.14,273.803-404.618
							C1717.084,3011.86,1805.16,2988.244,1905.258,2988.244z"/>
					</g>
					<g>
						<path style="fill:#3A3A3A;" d="M1905.26,3628.473c-235.711,0-520.081-70.084-551.267-170.652
							c-11.668-37.623,10.475-120.621,52.65-197.353c54.792-99.684,136.138-179.818,229.052-225.64
							c83.395-41.13,174.089-61.985,269.565-61.985c95.473,0,186.167,20.855,269.561,61.987
							c92.914,45.821,174.26,125.954,229.052,225.638c42.175,76.732,64.318,159.73,52.65,197.353
							C2425.337,3558.388,2140.971,3628.473,1905.26,3628.473z M1905.26,3003.646c-90.709,0-176.82,19.787-255.943,58.808
							c-208.875,103.012-280.11,340.439-265.902,386.243c20.922,67.476,258.365,148.973,521.845,148.973
							s500.919-81.497,521.841-148.973c14.208-45.803-57.027-283.231-265.902-386.241
							C2082.075,3023.432,1995.965,3003.646,1905.26,3003.646z"/>
					</g>
					<g>
						<path style="fill:#FF3333;" d="M2939.556,2404.17c0,0,68.842,1093.351-1034.287,1093.351S870.913,2404.17,870.913,2404.17
							c0,14.46,5.264,28.639,15.442,42.396c84.652,115.328,508.685,202.996,1018.914,202.996
							c510.159,0,933.911-87.668,1018.844-202.926C2934.292,2432.879,2939.556,2418.63,2939.556,2404.17z"/>
					</g>
					<g>
						<path style="fill:#FF3333;" d="M2939.556,2404.17c0,0,68.842,1093.351-1034.287,1093.351S870.913,2404.17,870.913,2404.17
							c0,14.46,5.264,28.639,15.442,42.396c84.652,115.328,508.685,202.996,1018.914,202.996
							c510.159,0,933.911-87.668,1018.844-202.926C2934.292,2432.879,2939.556,2418.63,2939.556,2404.17z"/>
					</g>
					<g>
						<path style="fill:#DB2626;" d="M2880.676,2549.33c-14.775,161.171-68.445,427.618-255.039,625.891
							c-167.31,177.848-409.691,267.967-720.355,267.967c-64.208,0-125.537-3.857-183.824-11.516
							c223.858-29.496,403.88-115.379,536.586-256.451c148.243-157.532,212.56-358.032,240.155-514.586
							C2655.514,2635.32,2791.48,2598.545,2880.676,2549.33z"/>
					</g>
					<g>
						<path style="fill:#FFFFFF;" d="M2931.072,2695.405c-1.97,3.649-4.305,7.298-6.934,10.874
							c-84.948,115.236-508.744,202.958-1018.874,202.958c-510.204,0-934.291-87.722-1018.876-203.031
							c-2.699-3.649-5.035-7.298-7.006-11.02c-13.283-112.316-8.465-188.581-8.465-188.581c0,14.45,5.254,28.608,15.471,42.401
							c84.585,115.308,508.672,202.958,1018.876,202.958c510.13,0,933.926-87.649,1018.874-202.885
							c10.145-13.793,15.4-28.024,15.4-42.474C2939.538,2506.606,2944.354,2583.016,2931.072,2695.405z"/>
					</g>
					<g>
						<path style="fill:#232333;" d="M2479.247,2608.325c122.591-24.34,334.718-69.004,423.589-154.991
							c14.247-14.471,24.671-31.449,25.173-49.187l23.079-0.726c1.749,36.443,0.703,72.034-1.27,108.233
							c-23.177,387.045-196.058,755.561-569.894,911.145c-82.968,34.596-171.003,57.921-259.914,70.902
							c-177.648,25.292-360.51,20.662-535.437-20.521c-425.614-102.004-656.252-434.486-713.497-854.25
							c-9.439-71.497-14.674-143.274-11.711-215.51c0,0,23.08,0.726,23.08,0.726c0.423,13.278,6.151,25.384,14.233,36.103
							c107.157,124.764,493.377,176.054,659.208,194.958c-125.487-8.173-250.759-22.072-374.028-48.039
							c-80.754-17.615-162.817-39.329-236.795-78.223c-39.198-22.422-85.311-54.453-85.722-104.799c0.001,0,23.08,0.726,23.08,0.726
							c-2.822,70.217,2.285,141.235,11.543,210.941c57.743,422.169,291.624,748.947,721.872,840.78
							c221.826,47.105,491.456,40.2,705.847-36.144c396.597-138.658,580.849-510.008,605.069-910.132
							c1.99-34.933,2.882-70.702,1.278-105.445c0,0,23.079-0.726,23.079-0.726c0.393,13.184-3.421,26.232-9.457,37.217
							C2880.797,2547.641,2596.701,2592.957,2479.247,2608.325L2479.247,2608.325z"/>
					</g>
					<g style="opacity:0.3;">
						<path style="fill:#FFFFFF;" d="M1178.074,3074.184c-81.553-110.621-150.343-278.006-92.908-325.456
							c77.13-63.719,184.89,107.617,290.669,218.171c174.308,182.175,298.232,204.785,292.554,296.067
							C1664.898,3319.096,1411.003,3390.134,1178.074,3074.184z"/>
					</g>
				</g>
			</g>
		</g>
		<g>
			<g>
				<path style="fill:#777782;" d="M1434.998,1700.754c0,0,0.26-177.87-88.847-265.896
					c-73.868-72.972-193.917-114.854-262.053-41.527c-61.582,66.274,24.818,143.113,17.354,143.566
					c-24.167,1.466-80.623,11.849-72.187,67.331c8.514,55.994,87.279,35.69,98.706,67.305
					c7.155,19.794,12.427,178.536,119.99,149.514C1337.258,1803.477,1393.827,1772.748,1434.998,1700.754z"/>
			</g>
			<g>
				<path style="fill:#5D5D6D;" d="M1354.069,1784.584l-0.044,0.087c-29.329,16.971-64.053,28.11-106.045,36.378
					c-107.568,29.024-112.834-129.717-120.013-149.516c-11.445-31.635-90.206-11.314-98.691-67.317
					c-0.609-3.96-0.871-7.702-0.871-11.227c11.662,8.225,27.153,16.057,47.562,21.279c87.029,22.323,93.034-70.45,116.445-94.383
					c23.367-23.933,61.965-6.527,61.965-4.874s-37.204,179.26-11.531,237.894C1258.478,1788.609,1305.55,1805.471,1354.069,1784.584
					z"/>
			</g>
			<g>
				<path style="fill:#232333;" d="M1434.998,1700.755c-17.802-82.844-37.903-189.135-98.061-250.988
					c-54.834-54.883-159.544-110.009-230.214-55.506c-48.575,37.648-28.088,86.023,4.1,127.176c1.799,2.508,4.516,6.187,5.643,9.753
					c3.579,10.43-4.229,21.321-15.602,21.195c-20.832,1.837-48.098,8.681-54.589,29.85c-2.245,7.924-1.58,18.314,1.329,26.257
					c3.266,8.06,8.964,12.355,17.173,16.104c24.79,11.248,68.947,9.262,79.609,42.421c2.805,10.339,4.226,24.252,5.973,34.637
					c5.459,33.508,13.67,71.299,34.848,96.853c15.12,18.287,38.822,23.87,62.754,22.54c-11.314,6.03-24.453,9.804-38.445,9.162
					c-44.329-1.859-70.974-46.644-82.133-84.663c-7.229-22.345-10.589-45.624-15.399-68.182c-0.526-0.959-0.781-1.235-2.264-2.307
					c-5.756-3.62-12.519-5.184-20.299-7.221c-18.618-4.432-43.493-9.851-59.303-25.594c-23.812-23.763-24.486-66.786-2.025-91.731
					c17.775-20.163,49.565-27.728,71.779-28.935c-9.47,0.708-16.083,11.682-12.351,20.11
					c-36.056-44.289-63.516-105.349-16.589-157.722c81.155-89.873,220.107-32.695,290.367,42.222
					C1426.472,1496.831,1448.442,1607.767,1434.998,1700.755L1434.998,1700.755z"/>
			</g>
			<g>
				<g>
					<g>
						<path style="fill:#E09F69;" d="M868.266,1218.611L868.266,1218.611c6.507-8.137,21.51-7.313,33.619,2.052
							c187.42,144.947,374.84,289.896,562.26,434.843c12.109,9.365,13.585,28.343,2.821,41.805l0,0
							c-10.765,13.463-29.601,16.198-41.401,6.446c-182.633-150.934-365.267-301.869-547.9-452.803
							C865.865,1241.204,861.759,1226.749,868.266,1218.611z"/>
					</g>
				</g>
				<g>
					<g>
						<path style="fill:#232333;" d="M1442.186,1721.134c-8.895,0-17.286-2.939-23.976-8.471l-547.9-452.802
							c-16.818-13.898-21.679-35.184-11.068-48.46v-0.002c10.619-13.274,32.458-13.221,49.708,0.129l562.26,434.843
							c7.947,6.144,13.01,15.269,14.255,25.691c1.365,11.395-2.091,23.229-9.48,32.465c-7.381,9.236-18.164,15.208-29.582,16.389
							C1444.99,1721.06,1443.578,1721.134,1442.186,1721.134z M877.288,1225.825c-1.666,2.089,0.004,9.835,7.736,16.227
							l547.9,452.802c2.934,2.421,6.866,3.531,11.107,3.08c5.298-0.546,10.369-3.402,13.911-7.835
							c3.546-4.434,5.216-10.006,4.584-15.294c-0.503-4.225-2.438-7.833-5.446-10.161L894.82,1229.8
							C886.873,1223.662,878.961,1223.734,877.288,1225.825z"/>
					</g>
				</g>
			</g>
			<g>
				<g>
					<g>
						<path style="fill:#FFD399;" d="M909.694,1185.068L909.694,1185.068c6.69-7.988,21.671-6.823,33.564,2.815
							c184.083,149.163,368.165,298.328,552.248,447.491c11.894,9.638,12.939,28.644,1.872,41.859l0,0
							c-11.067,13.215-29.961,15.523-41.537,5.505c-179.161-155.04-358.322-310.08-537.484-465.12
							C906.781,1207.6,903.004,1193.056,909.694,1185.068z"/>
					</g>
				</g>
				<g>
					<g>
						<path style="fill:#E09F69;" d="M915.146,1183.243c-0.511-0.439-1.031-0.918-1.503-1.365c-1.532,0.803-2.845,1.854-3.953,3.177
							c-6.685,7.988-2.908,22.542,8.655,32.572c179.183,155.042,358.342,310.068,537.485,465.119
							c0.844,0.725,1.72,1.404,2.644,2.008c11.646,7.62,28.634,4.74,38.916-7.525c10.274-12.307,10.084-29.583,0.455-39.702
							c-1.04,1.854-2.241,3.637-3.669,5.343c-10.266,12.241-27.253,15.12-38.875,7.516c-0.924-0.604-1.825-1.297-2.669-2.024
							L915.146,1183.243z"/>
					</g>
				</g>
				<g>
					<g>
						<path style="fill:#232333;" d="M1472.977,1700.495c-9.238,0-17.906-3.146-24.698-9.023l-537.484-465.12
							c-16.494-14.274-20.867-35.666-9.956-48.698l0,0c10.908-13.038,32.734-12.486,49.689,1.254l552.25,447.491
							c7.802,6.322,12.659,15.558,13.666,26.003c1.104,11.424-2.618,23.179-10.213,32.247c-7.592,9.066-18.507,14.795-29.945,15.714
							C1475.178,1700.45,1474.074,1700.495,1472.977,1700.495z M922.459,1191.296c-1.9,0-3.297,0.456-3.909,1.186v0.002
							c-1.716,2.05-0.222,9.833,7.365,16.398l537.484,465.12c2.879,2.491,6.815,3.683,11.036,3.332
							c5.306-0.427,10.439-3.166,14.083-7.515c3.644-4.356,5.442-9.893,4.931-15.195c-0.41-4.233-2.263-7.882-5.216-10.276
							l-552.25-447.491C930.964,1192.788,925.892,1191.296,922.459,1191.296z M909.695,1185.068h0.039H909.695z"/>
					</g>
				</g>
			</g>
			<g>
				<g>
					<path style="fill:#777782;" d="M1350.801,1671.066c0-94.092-39.854-216.632-103.916-208.136
						c-65.9,8.739-12.888,124.192-21.324,164.659c-5.257,25.219-24.836,80.668-6.007,142.967L1350.801,1671.066z"/>
				</g>
				<g>
					<path style="fill:#5D5D6D;" d="M1251.679,1633.588c-5.875,40.947-19.06,74.497-8.834,119.317l-23.28,17.667
						c-18.842-62.313,0.74-117.751,6.005-142.989c7.833-37.597-37.422-139.987,9.095-161.265
						C1218.956,1518.275,1260.208,1573.843,1251.679,1633.588z"/>
				</g>
				<g>
					<path style="fill:#232333;" d="M1350.802,1671.067c-12.928-51.927-37.17-154.304-78.757-186.495
						c-13.861-10.874-35.888-7.618-39.464,5.158c-6.536,17.865-1.189,42.777,1.961,62.732c3.007,17.954,6.849,36.627,7.709,55.486
						c1.278,12.096-2.76,28.564-6.908,40.406c-5.237,16.855-10.042,33.679-13.078,51.011c-4.146,22.952-5.232,46.621-2.711,71.19
						c-11.598-21.872-16.951-47.323-17.489-72.678c-0.441-18.955,1.927-37.874,5.412-56.36c2.161-11.709,4.478-18.993,2.646-31.203
						c-5.823-50.143-40.541-149.018,33.88-162.542c30.644-5.479,59.981,16.463,75.726,40.014
						C1354.507,1539.048,1363.741,1611.629,1350.802,1671.067L1350.802,1671.067z"/>
				</g>
			</g>
			<g>
				<path style="fill:#232333;" d="M1105.179,1521.953c26.284,12.77,54.227,28.473,69.012,54.522
					c-20.975-17.663-50.146-22.263-76.468-24.636c-8.668-0.381-15.384-7.719-15-16.386
					C1082.975,1524.414,1095.363,1517.075,1105.179,1521.953L1105.179,1521.953z"/>
			</g>
		</g>
		<g>
			<g>
				<g>
					<g style="opacity:0.5;">
						<path style="fill:#FFFFFF;" d="M2906.065,1982.9c1.34,2.872,2.681,5.745,3.962,8.65c-2.289-0.313-4.558-0.873-6.798-1.526
							C2904.156,1987.712,2905.11,1985.306,2906.065,1982.9z"/>
					</g>
					<g>
						<g>
							<g>
								<path style="fill:#C97043;" d="M2242.955,768.899c17.283-89.829-36.956-260.768-187.045-289.951
									c-158.729-30.863-294.973,68.949-296.045,229.697c-0.832,124.813,82.645,202.256,149.951,239.384L2242.955,768.899z"/>
							</g>
							<g>
								<path style="fill:#777782;" d="M2242.941,768.881l-159.653,85.884l-173.459,93.286
									c-67.317-37.127-150.818-114.611-149.947-239.385c0.108-20.215,2.414-39.495,6.616-57.633
									c29.062-126.193,150.68-199.045,289.434-172.083C2205.978,508.107,2260.256,679.085,2242.941,768.881z"/>
							</g>
							<g>
								<path style="fill:#232333;" d="M2235.393,767.445c1.013-105.922-48.032-226.574-153.646-264.422
									c-51.137-17.211-108.355-17.999-159.785-1.764c-98.644,31.736-153.526,124.367-145.424,226.297
									c4.733,89.501,62.475,166.238,137.06,213.77c7.891,5.117,1.171,17.479-7.501,13.446
									c-114.504-52.956-183.528-171.685-156.813-298.066c25.276-130.017,141.88-208.457,271.416-198.791
									c76.296,3.656,144.525,41.001,186.923,104.692c39.135,58.793,65.135,138.24,42.895,207.747
									C2247.407,778.667,2235.119,776.207,2235.393,767.445L2235.393,767.445z"/>
							</g>
						</g>
						<g>
							<path style="fill:#FFFFFF;" d="M2211.512,2125.815c197.769,53.75,536.703,82.714,687.182-80.636
								c123.681-132.636,287.458-565.551,149.906-868.043c-61.362-142.552-174.329-253.339-346.567-363.126
								c-96.25-61.407-138.921-75.37-151.187-206.261c-52.637-12.128-120.822,18.367-128.908,86.132
								c-121.232-83.541-179.033-23.373-233.539-109.417c-25.797,34.375-48.25,92.007-5.259,153.071
								c-381.125,37.277-508.817,411.708-575.483,567.636c-337.969,456.367,290.891,706.023,359.828,728.953"/>
						</g>
						<g>
							<path style="fill:#FFFFFF;" d="M2898.706,2045.188c-47.812,51.904-114.68,84.397-189.981,102.831
								c-161.678,39.608-362.304,14.45-497.23-22.208l-244.005-91.689c-44.37-14.733-320.413-123.342-421.745-320.452
								c-56.176-109.258-58.627-245.738,61.894-408.501c66.666-155.923,194.366-530.355,575.496-567.621
								c-42.977-61.068-20.524-118.718,5.273-153.069c54.503,86.023,112.302,25.877,233.523,109.408
								c8.079-67.784,76.282-98.263,128.929-86.146c12.241,130.896,54.911,144.858,151.187,206.262
								c172.231,109.794,285.178,220.586,346.542,363.12C3186.156,1479.646,3022.387,1912.543,2898.706,2045.188z"/>
						</g>
						<g>
							<path style="fill:#DFE7F2;" d="M2708.725,2148.018c-161.678,39.608-362.304,14.45-497.23-22.208
								c0,0-60.715-15.483-132.108-42.772c-74.379-28.43-111.896-48.917-111.896-48.917
								c-44.37-14.733-320.413-123.342-421.745-320.452C1595.704,1757.834,2042.27,2153.853,2708.725,2148.018z"/>
						</g>
						<g>
							<path style="fill:#232333;" d="M2211.512,2125.816c179.383,30.182,419.621,53.693,586.462-27.874
								c69.054-33.177,112.686-86.284,150.068-151.661c115.135-205.069,180.449-487.924,104.915-716.22
								c-39.539-117.617-117.758-218.418-212.841-297.006c-57.243-48.35-119.761-90.005-183.685-129.505
								c-47.3-28.862-89.632-59.996-106.453-116.778c-8.29-25.844-11.914-51.875-14.466-77.585l11.876,13.57
								c-35.781-8.154-78.295,6.781-98.132,38.487c-6.519,10.277-10.495,22.065-12.024,34.461
								c-1.044,8.464-8.75,14.477-17.213,13.434c-2.535-0.313-4.845-1.219-6.82-2.575c-17.525-11.902-35.772-22.555-55.029-30.499
								c-19.227-8.147-39.208-13.574-60.309-17.3c-34.306-5.608-73.642-10.66-99.571-37.37
								c-9.084-8.815-16.486-18.644-22.902-28.688l25.328,1.003c-31.591,41.224-36.014,92.697-4.982,134.958
								c4.927,6.974,3.232,16.633-3.776,21.507c-232.746,27.234-378.133,163.846-483.253,366.706
								c-33.07,62.955-59.289,128.494-86.887,194.345c-46.439,64.716-86.355,137.546-94.751,217.462
								c-22.291,209.559,169.957,354.964,332.317,448.846c35.118,20.203,71,39.334,108.099,56.59
								c-9.994-2.278-19.878-5.079-29.673-8.118c-176.773-56.829-381.1-185.153-434.411-373.489
								c-35.885-125.551,16-256.919,91.88-356.511c19.696-48.602,54.749-134.825,86.113-193.369
								c100.179-199.169,269.062-361.256,500.249-380.427c-0.002-0.003-11.096,24.19-11.096,24.19
								c-8.603-12.331-15.934-25.956-20.649-40.767c-9.838-29.373-7.716-62.708,3.939-91.107
								c5.639-14.179,13.272-27.283,22.243-39.306c5.077-6.804,14.708-8.204,21.513-3.129c1.562,1.175,2.838,2.559,3.817,4.131
								c10.439,16.479,23.31,30.66,41.084,38.393c17.009,7.49,38.583,9.745,60.889,13.845c22.353,3.924,45.258,10.081,66.69,19.194
								c21.572,8.916,41.65,20.661,60.603,33.544l-24.031,10.857c3.502-33.269,23.528-65.08,52.113-82.528
								c14.092-8.907,29.794-14.831,46.017-17.735c16.224-2.881,33.073-2.795,49.524,0.948c6.556,1.357,11.216,6.817,11.843,13.149
								c2.385,24.566,5.922,49.003,13.138,71.395c13.898,48.402,51.98,74.615,93.552,100.193
								c21.26,13.282,42.953,26.809,64.131,40.885c127.696,84.225,248.963,189.482,315.512,330.184
								c92.172,187.213,73.415,408.18,14.816,602.621c-35.972,113.272-94.206,257.15-186.991,335.045
								C2709.892,2221.921,2405.3,2196.022,2211.512,2125.816L2211.512,2125.816z"/>
						</g>
						<g>
							<path style="fill:#232333;" d="M2641.246,1325.89c0,0-6.215-148.661-92.853-146.941
								c-23.061,0.458-48.677,36.085-38.37,61.738C2528.077,1285.618,2641.246,1325.89,2641.246,1325.89z"/>
						</g>
						<g>
							<path style="fill:#232333;" d="M1923.375,1028.93c0,0,79.752-98.992,130.351-45.201
								c13.342,14.183,15.564,48.206-12.767,64.139C2003.702,1068.822,1923.375,1028.93,1923.375,1028.93z"/>
						</g>
						<g>
							
								<path style="fill:none;stroke:#6B184E;stroke-width:30.803;stroke-linecap:round;stroke-linejoin:round;stroke-miterlimit:10;" d="
								M1938.896,1091.217"/>
						</g>
						<g>
							<path style="fill:#232333;" d="M2194.166,726.781c20.562,23.277,49.421,38.763,79.221,47.267
								c18.978,5.525,39.039,7.58,58.771,7.801c-26.642,5.038-54.642,5.98-81.388,0.837c-28.001-5.43-56.099-16.331-78.657-34.398
								C2172.114,748.288,2194.166,726.781,2194.166,726.781L2194.166,726.781z"/>
						</g>
						<g>
							<g>
								<g>
									<path style="fill:#232333;" d="M1946.468,1522.148c-9.777,24.619,9.029,57.267,24.929,78.727
										c11.009,14.858,29.525,22.212,47.728,18.956c26.291-4.703,62.372-15.552,72.15-40.171
										C2107.156,1539.672,1962.349,1482.161,1946.468,1522.148z"/>
								</g>
								<g style="opacity:0.35;">
									<path style="fill:#FFFFFF;" d="M1984.251,1527.128c-1.809,4.554,6.747,12.61,13.591,18.13
										c4.739,3.822,11.589,6.542,17.658,7.013c8.766,0.68,20.517,0.689,22.326-3.865
										C2040.763,1541.009,1987.189,1519.731,1984.251,1527.128z"/>
								</g>
							</g>
						</g>
					</g>
					<g>
						<path style="fill:#777782;" d="M1950.054,1476.209c81.409-85.799,128.63-277.839,17.445-324.357
							c-91.703-38.367-200.496-9.799-281.432,79.85c-60.597,67.12-88.731,160.291-49.745,216.74
							c25.722,37.245,80.416,55.343,109.87,64.481C1859.646,1548.122,1919.397,1508.668,1950.054,1476.209z"/>
					</g>
					<g>
						<g>
							<g>
								<path style="fill:#777782;" d="M2864.583,1024.857c67.917-85.065,251.084-187.233,419.791-66.605
									c133.082,95.156,162.126,316.275,20.983,445.381c-99.579,91.087-246.87,81.544-332.482,49.343
									c0,0-52.538-19.892-92.018-187.005C2839.157,1089.455,2864.583,1024.857,2864.583,1024.857z"/>
							</g>
							<g>
								<path style="fill:#777782;" d="M3008.834,1411.59c74.098,21.979,187.258,23.288,262.31-45.361
									c53.614-49.043,80.697-116.691,76.257-190.484c-4.333-72.045-38.916-137.937-92.511-176.259
									c-23.456-16.77-48.217-29.092-73.596-36.621c-113.601-33.704-222.527,31.972-270.479,85.794
									c-3.528,19.42-9.878,81.819,19.379,205.657c26.878,113.775,58.123,146.767,64.911,152.814
									c4.398,1.561,9.011,3.061,13.719,4.458C3008.827,1411.588,3008.832,1411.589,3008.834,1411.59z"/>
							</g>
							<g>
								<path style="fill:#5D5D6D;" d="M2910.179,1139.055c2.951,30.281,8.921,68.372,19.997,115.273
									c26.892,113.785,58.145,146.746,64.922,152.776c4.399,1.569,9.021,3.1,13.735,4.498
									c74.114,21.988,187.251,23.3,262.303-45.382c12.343-11.302,23.288-23.601,32.78-36.701
									c-86.262,51.396-207.426,50.85-276.76,3.841C2938.459,1273.223,2910.179,1139.055,2910.179,1139.055z"/>
							</g>
						</g>
						<g>
							<g>
								<path style="fill:#232333;" d="M2864.584,1024.858c46.285-71.788,126.652-120.088,210.695-133.988
									c116.241-19.352,241.911,39.072,300.233,141.876c111.537,193.774-9.457,443.924-237.999,455.144
									c-56.803,2.595-114.504-8.035-164.637-34.914c27.336,5.882,54.543,9.397,81.679,10.737
									c78.642,3.596,162.368-9.933,224.925-60.075c82.502-64.936,117.752-179.09,92.007-280.189
									c-23.295-103.461-109.488-183.866-213.832-201.175C3050.914,905.857,2943.169,952.22,2864.584,1024.858L2864.584,1024.858z"
									/>
							</g>
						</g>
					</g>
					<g>
						<path style="fill:#777782;" d="M2209.275,1598.732c6.137-113.796,131.724-305.179,296.495-231.893
							c173.16,77.016,230.762,325.12,94.071,471.143c-67.308,72.237-199.638,7.853-291.206-52.566
							C2220.213,1727.071,2205.076,1676.603,2209.275,1598.732z"/>
					</g>
					<g>
						<g>
							<g>
								
									<ellipse transform="matrix(0.4096 -0.9123 0.9123 0.4096 -31.8819 3127.7244)" style="fill:#232333;" cx="2400.521" cy="1588.494" rx="170.71" ry="147.826"/>
							</g>
						</g>
						<g>
							<g>
								
									<ellipse transform="matrix(0.4096 -0.9123 0.9123 0.4096 15.4759 3152.9983)" style="fill:#FFFFFF;" cx="2443.733" cy="1564.542" rx="61.015" ry="48.197"/>
							</g>
						</g>
						<g style="opacity:0.2;">
							<g>
								
									<ellipse transform="matrix(0.4096 -0.9123 0.9123 0.4096 -117.4398 3103.2402)" style="fill:#FFFFFF;" cx="2338.827" cy="1642.353" rx="41.292" ry="26.694"/>
							</g>
						</g>
					</g>
					<g>
						<g>
							<g>
								
									<ellipse transform="matrix(0.4096 -0.9123 0.9123 0.4096 -130.2073 2482.5894)" style="fill:#232333;" cx="1852.928" cy="1341.892" rx="155.928" ry="135.025"/>
							</g>
						</g>
						<g>
							<g>
								
									<ellipse transform="matrix(0.4096 -0.9123 0.9123 0.4096 -86.9505 2505.6741)" style="fill:#FFFFFF;" cx="1892.398" cy="1320.015" rx="55.731" ry="44.024"/>
							</g>
						</g>
						<g style="opacity:0.2;">
							<g>
								
									<ellipse transform="matrix(0.4096 -0.9123 0.9123 0.4096 -208.3594 2460.2195)" style="fill:#FFFFFF;" cx="1796.576" cy="1391.087" rx="37.716" ry="24.382"/>
							</g>
						</g>
					</g>
				</g>
			</g>
			<g>
				<path style="fill:#232333;" d="M1985.127,1663.027c-1.507-28.187-2.19-54.952,4.503-83.42c0.001,0,28.065,12.696,28.065,12.696
					C2003.215,1612.546,1993.291,1638.825,1985.127,1663.027L1985.127,1663.027z"/>
			</g>
		</g>
		<g>
			<g>
				<path style="fill:#FFB839;" d="M2065.22,1784.888c0,0-25.834,20.46-30.188,71.352c-4.163,48.645-29.961,56.578-35.529,77.188
					c-4.884,18.079,16.462,37.732,34.515,37.556c23.202-0.226,48.78-41.351,51.709-84.934c3.639-54.142,38.429-81.347,38.429-81.347
					"/>
			</g>
			<g style="opacity:0.7;">
				<path style="fill:#FFFFFF;" d="M2035.256,1891.131c7.702-16.279,5.456-39.474,14.055-38.135
					c8.6,1.338,7.898,29.717,2.723,45.288c-5.176,15.571-19.96,27.72-27.503,24.757
					C2016.989,1920.078,2029.94,1902.367,2035.256,1891.131z"/>
			</g>
			<g>
				<path style="fill:#FF8A33;" d="M2085.731,1886.029c-2.951,43.579-28.514,84.74-51.713,84.961
					c-18.041,0.186-39.378-19.473-34.493-37.561c0.929-3.422,2.426-6.536,4.298-9.504c4.058,10.144,10.364,19.713,20.077,23.515
					c23.953,9.365,43.122-34.861,42.71-71.257c-0.328-30.438-5.698-39.509-25.758-50.118c9.003-28.985,24.375-41.169,24.375-41.169
					l58.92,19.828C2124.148,1804.724,2089.355,1831.897,2085.731,1886.029z"/>
			</g>
			<g>
				<path style="fill:#232333;" d="M2033.779,1982.536c-13.615,0-28.392-7.757-37.74-19.841
					c-7.841-10.137-10.572-21.603-7.685-32.28c2.625-9.724,8.415-16.968,14.017-23.974c8.805-11.017,18.784-23.502,21.152-51.185
					c4.724-55.23,33.312-78.46,34.529-79.423l14.43,18.043c-0.905,0.743-22.124,18.72-25.943,63.351
					c-2.965,34.664-16.35,51.409-26.126,63.639c-4.685,5.862-8.387,10.494-9.757,15.575c-1.291,4.765,1.736,9.64,3.655,12.121
					c4.888,6.32,13.049,10.872,19.459,10.872c0.043,0,0.09,0,0.133-0.002c13.954-0.135,37.56-33.411,40.299-74.155
					c3.94-58.615,41.251-88.431,42.839-89.672l14.231,18.199c-1.217,0.969-30.8,25.084-34.022,73.022
					c-3.023,45.007-29.692,95.383-63.121,95.709C2034.013,1982.534,2033.896,1982.536,2033.779,1982.536z"/>
			</g>
			<g>
				<g>
					<path style="fill:#FFB839;" d="M2159.096,1807.756c-34.592,34.801-26.963,85.141-27.338,135.567
						c-0.47,63.232-25.268,91.025-37.232,94.279c-13.303,3.618-35.186-0.005-41.352-16.714
						c-9.914-26.865,17.405-36.993,20.307-95.231c3.031-60.834-11.371-80.7,26.886-140.437L2159.096,1807.756z"/>
				</g>
				<g style="opacity:0.7;">
					<path style="fill:#FFFFFF;" d="M2078.458,1928.04c1.374-28.87-3.298-64.287,7.856-62.266
						c9.895,1.792,18.992,45.906,9.191,98.682c-7.733,41.642-37.183,48.16-29.641,23.278S2077.085,1956.91,2078.458,1928.04z"/>
				</g>
				<g>
					<path style="fill:#FF8A33;" d="M2131.776,1943.311c-0.508,63.248-25.27,91.058-37.269,94.299
						c-13.289,3.613-35.184-0.015-41.345-16.74c-2.941-7.989-2.582-14.539-0.565-21.271c7.649,7.444,17.66,13.009,29.927,11.44
						c30.314-3.782,32.623-48.606,30.147-83.913c-3.289-47.061,11.75-76.912-39.064-70.728c1.389-20.526,7.204-40.628,26.757-71.186
						l58.72,22.527C2124.512,1842.565,2132.135,1892.899,2131.776,1943.311z"/>
				</g>
				<g>
					<path style="fill:#232333;" d="M2084.205,2050.484c-17.348,0-35.497-8.335-41.867-25.598
						c-6.523-17.672-0.737-30.47,5.391-44.017c5.723-12.661,12.85-28.42,14.216-55.788c0.757-15.181,0.386-27.969,0.063-39.253
						c-0.995-34.515-1.713-59.455,28.634-106.839l19.451,12.46c-26.5,41.381-25.935,61.08-24.995,93.713
						c0.339,11.709,0.722,24.979-0.082,41.069c-1.58,31.746-10.053,50.479-16.237,64.156c-5.953,13.16-7.853,18.138-4.767,26.498
						c3.8,10.309,19.666,11.69,27.484,9.57c4.373-1.225,28.256-21.768,28.708-83.219c0.058-7.941-0.086-16.051-0.226-23.896
						c-0.769-42.792-1.564-87.042,30.925-119.728l16.385,16.287c-25.599,25.753-24.956,61.564-24.21,103.027
						c0.144,7.988,0.292,16.248,0.23,24.482c-0.507,68.293-27.636,100.411-45.749,105.339
						C2093.318,2049.901,2088.789,2050.484,2084.205,2050.484z"/>
				</g>
			</g>
			<g>
				<g>
					<path style="fill:#FFFFFF;" d="M1948.801,1768.415c86.929-10.659,112.85,82.233,211.618,57.032
						c0,0,42.645-54.355-61.642-91.874C1994.49,1696.054,1948.801,1768.415,1948.801,1768.415z"/>
				</g>
				<g>
					<g>
						<path style="fill:#FFFFFF;" d="M2200.373,1759.697c-52.056,24.179-51.162,96.247-5.677,119.134"/>
					</g>
					<g>
						<path style="fill:#232333;" d="M2200.373,1759.697c-25.194,23.727-34.352,57.114-23.1,89.155
							c3.375,10.092,8.881,19.671,17.424,29.978c-13.501-0.696-26.316-9.224-34.358-20.926
							C2135.232,1822.756,2156.008,1764.367,2200.373,1759.697L2200.373,1759.697z"/>
					</g>
				</g>
				<g>
					<path style="fill:#232333;" d="M1948.8,1768.414c51.238-21.665,91.716,16.766,134.82,37.237
						c23.44,11.335,47.858,13.105,73.943,8.603c0,0,5.711,22.385,5.711,22.385C2065.495,1867.405,2034.44,1780.035,1948.8,1768.414
						L1948.8,1768.414z"/>
				</g>
			</g>
		</g>
	</g>
</g>
</svg>
