<?xml version="1.0" encoding="utf-8"?>
<!-- Generator: Adobe Illustrator 27.5.0, SVG Export Plug-In . SVG Version: 6.00 Build 0)  -->
<svg version="1.1" xmlns="http://www.w3.org/2000/svg" xmlns:xlink="http://www.w3.org/1999/xlink" x="0px" y="0px"
	 viewBox="0 0 500 500" style="enable-background:new 0 0 500 500;" xml:space="preserve">
<g id="BACKGROUND">
	<rect style="fill:#FCEACF;" width="500" height="500"/>
</g>
<g id="OBJECTS">
	<g>
		<g>
			<ellipse style="fill:#D9C9B2;" cx="222.551" cy="409.641" rx="112.045" ry="16.191"/>
		</g>
		<g>
			<g>
				<path style="fill:#6D7797;" d="M169.46,391.68c-4.943-1.077-6.605,0.509-7.682,1.456c-1.077,0.946-1.38,1.777-1.38,1.777
					s2.863-0.636,6.908,0c1.686,0.265,3.105-1.678,3.105-1.678L169.46,391.68z"/>
				<g>
					<path style="fill:#DA8071;" d="M216.451,388.94c-6.24,0.72-9.572-0.48-9.572-0.48s13.158-16.429,15.861-24.744l-9.192-7.042
						c-5.286,14.885-19.945,30.592-23.304,32.752c-3.36,2.16-23.203,11.994-30.402,12.474s-11.999,3.36-14.639,5.28
						c-2.64,1.92-4.32,4.08-2.16,4.08c2.16,0,9.119-1.92,16.799-2.64c7.68-0.72,16.981-4.015,21.119-5.28
						c2.066-0.631,3.409-1.161,4.316-1.609c-1.697,1.977-4.611,5.079-7.436,6.649c-4.32,2.4-5.76,6.24-4.08,6.24
						c1.68,0,9.12-0.96,14.879-4.56c5.76-3.6,9.84-8.4,12.479-9.36c2.64-0.96,6.24-3.84,6.24-3.84s2.29,0.754,6.61,0.514
						c4.32-0.24,5.308-1.771,7.708-2.251C224.077,394.642,222.691,388.22,216.451,388.94z"/>
					<path style="fill:#C97668;" d="M216.451,388.94c-6.24,0.72-9.572-0.48-9.572-0.48s13.158-16.429,15.861-24.744l-9.192-7.042
						c-1.743,4.907-4.506,9.901-7.545,14.472c1.348,1.914,3.764,3.241,4.312,5.586c0.505,2.156-1.594,4.047-2.878,5.486
						c-1.688,1.892-3.586,3.592-5.192,5.559c-1.84,2.253-2.768,4.777-3.734,7.481c-0.931,2.609-2.073,5.011-3.852,7.157
						c-3.197,3.857-8.43,5.979-12.94,7.854c-2.735,1.137-5.574,2.133-8.477,2.821c-0.32,0.901-0.158,1.529,0.518,1.529
						c1.68,0,9.12-0.96,14.879-4.56c5.76-3.6,9.84-8.4,12.479-9.36c2.64-0.96,6.24-3.84,6.24-3.84s2.29,0.754,6.61,0.514
						c4.32-0.24,5.308-1.771,7.708-2.251C224.077,394.642,222.691,388.22,216.451,388.94z"/>
					<path style="fill:#DA8071;" d="M194.159,388.94c-7.68,0.96-16.195,0.651-21.599,1.2c-4.87,0.495-6.96,3.84-7.919,4.8
						c-0.96,0.96,4.997,0.249,8.762,1.085c3.766,0.836,9.236,1.315,9.236,1.315L194.159,388.94z"/>
					<g>
						<path style="fill:#C97365;" d="M188.236,396.673c-0.34,1.721-1.167,3.284-2.155,4.7c-1.017,1.392-2.236,2.693-3.782,3.529
							l2.969-4.11C186.253,399.435,187.18,398.06,188.236,396.673z"/>
					</g>
					<g>
						<path style="fill:#C97365;" d="M187.69,391.97c-3.048,1.764-6.238,3.218-9.466,4.578c-1.621,0.663-3.251,1.307-4.91,1.879
							c-1.657,0.57-3.333,1.128-5.075,1.429c1.621-0.671,3.182-1.465,4.788-2.155c1.594-0.718,3.203-1.399,4.814-2.077
							C181.076,394.297,184.328,393.014,187.69,391.97z"/>
					</g>
					<g>
						<path style="fill:#C97365;" d="M208.713,393.14c-0.093,0.807-0.149,1.579-0.33,2.38c-0.175,0.798-0.526,1.607-1.073,2.281
							c-1.131,1.344-2.802,1.966-4.402,2.056c0.684-0.45,1.378-0.801,1.995-1.242c0.617-0.433,1.19-0.89,1.634-1.448
							c0.463-0.543,0.794-1.188,1.106-1.887C207.948,394.58,208.231,393.804,208.713,393.14z"/>
					</g>
				</g>
				<path style="fill:#6D7797;" d="M221.818,390.843c-2.652,0.069-2.188,2.941-1.041,3.565s4.098-0.59,5.179,0.171
					C225.956,394.579,225.42,390.749,221.818,390.843z"/>
				<path style="fill:#6D7797;" d="M145.297,407.274c1.034,0.926,1.275,3.134,0.684,3.699c-0.591,0.565-6.426,2.09-6.722,2.287
					c0,0,0.357-2.437,1.829-3.659C142.778,408.198,145.297,407.274,145.297,407.274z"/>
				<path style="fill:#6D7797;" d="M175.986,410.972c2.177,0.486,1.477,2.733-0.281,3.741c-1.759,1.008-3.096,1.782-3.096,1.782
					s-0.899-3.069,0.614-4.319C174.736,410.926,175.329,410.826,175.986,410.972z"/>
			</g>
			<path style="fill:#8B9AAE;" d="M200.821,331.405c4.457,13.43,7.193,24.559,7.694,35.324c0.5,10.765,16.043,7.934,20.608-6.266
				c4.564-14.2,4.629-32.453-4.31-36.153C215.873,320.612,195.531,315.463,200.821,331.405z"/>
			<g>
				<path style="fill:#7F8DA4;" d="M408.527,335.84c-32.274-3.756-96.828-36.486-96.828-36.486l12.11-25.068
					c0,0,3.265,1.351,8.658,3.666c21.162,9.038,75.101,32.615,91.915,45.066c4.743,3.548,7.616,6.571,8.787,8.975
					C437.206,340.281,413.824,336.456,408.527,335.84z"/>
				<path style="fill:#525C78;" d="M372.22,316.733c1.148-2.111,1-4.277-0.38-6.224c-2.633-3.715-7.997-7.426-20.074-5.895
					c-2.642,0.335-5.12,1.51-7.603,2.475c-2.835,1.101-5.588,2.389-8.314,3.736c8.086,3.658,17.509,7.742,27.17,11.548
					c2.184-0.491,4.324-1.239,6.188-2.457C370.448,319.103,371.508,318.042,372.22,316.733z"/>
				<path style="fill:#525C78;" d="M433.169,331.992c-6.649-0.722-15.025-2.36-24.888-5.103
					c-39.448-11.002-84.439-30.736-84.439-30.736l8.625-18.201c21.162,9.038,75.101,32.615,91.915,45.066
					C429.125,326.565,431.998,329.588,433.169,331.992z"/>
				<path style="fill:#646E8B;" d="M457.362,334.14c-4.401,1.458-14.343,0.274-31.628-5.663
					c-38.018-13.069-118.988-41.515-121.004-41.722c-2.008-0.168,16.541-21.22,17.083-21.812c0.105,0.461,5.071,2.648,13.021,5.928
					c30.958,12.793,107.254,42.144,117.853,50.348C460.032,326.884,462.64,332.401,457.362,334.14z"/>
				<path style="fill:#99A6C6;" d="M429.967,297.047c-36.266-11.206-86.718-21.404-86.718-21.404l-14.814,5.466
					c0,0,77.342,27.78,107.86,31.661C466.812,316.654,466.233,308.253,429.967,297.047z"/>
				<path style="fill:#525C78;" d="M457.362,334.14c-29.55-11.516-138.069-53.665-140.106-53.055
					c-1.651,0.494,10.241-6.155,17.577-10.213c30.958,12.793,107.254,42.144,117.853,50.348
					C460.032,326.884,462.64,332.401,457.362,334.14z"/>
				<path style="fill:#7F8DA4;" d="M321.813,264.943c0,0,121.905,42.96,132.729,51.883c10.824,8.923,11.58,14.785,11.58,14.785
					s-144.029-53.872-146.388-53.175C317.374,279.132,321.813,264.943,321.813,264.943z"/>
				<path style="fill:#525C78;" d="M376.217,285.197c-0.627-0.056-0.989-0.503-1.091-0.992
					c-28.342-10.462-53.313-19.262-53.313-19.262s-4.439,14.189-2.079,13.493c1.11-0.328,36.718,12.579,70.789,25.115
					C393.338,299.104,383.181,285.823,376.217,285.197z"/>
			</g>
			<g>
				<path style="fill:#ABB9CB;" d="M365.603,298.494c0,0-9.697,7.005-25.393,15.897c-10.275,5.823-23.104,12.439-37.492,18.425
					c-1.434,0.604-2.88,1.195-4.339,1.773c-15.96,6.377-33.618,11.822-51.654,14.514c-37.442,5.584-77.222-0.604-107.684-23.821
					c-4.704-3.585-8.816-7.647-12.325-12.011c-19.293-23.896-21.757-50.726-8.269-76.807c12.334-23.849,29.675-40.983,34.544-59.364
					l64.316,18.06c-1.182,16.602,9.594,33.104,15.092,41.026C261.545,278.184,365.603,298.494,365.603,298.494z"/>
				<path style="fill:#97A7BD;" d="M302.718,332.817c-1.434,0.604-2.88,1.195-4.339,1.773c-15.96,6.377-33.618,11.822-51.654,14.514
					c-37.442,5.584-77.222-0.604-107.684-23.821c-4.704-3.585-8.816-7.647-12.325-12.011c22.551,15.407,39.366,17.57,58.546,17.57
					c26.827,0,19.507-21.18,19.507-21.18L302.718,332.817z"/>
				<g>
					<path style="fill:#828CAB;" d="M302.718,332.817c-7.184,3.231-14.534,6.1-21.996,8.663c-7.481,2.501-15.083,4.676-22.802,6.38
						c-15.434,3.445-31.366,4.683-47.182,3.826c-7.907-0.525-15.768-1.7-23.493-3.451c-7.713-1.78-15.341-4.083-22.576-7.328
						c-7.253-3.184-14.21-7.026-20.72-11.516l-4.758-3.536c-1.573-1.197-3.068-2.499-4.523-3.834
						c-2.905-2.68-5.568-5.613-7.952-8.748c2.553,2.999,5.334,5.791,8.305,8.352c1.495,1.269,3.022,2.5,4.626,3.627l4.853,3.328
						c6.566,4.288,13.53,7.936,20.767,10.91c14.475,5.981,29.992,9.216,45.598,10.203c7.809,0.497,15.654,0.442,23.465-0.121
						c7.818-0.532,15.576-1.722,23.275-3.211c7.699-1.509,15.304-3.509,22.818-5.809
						C287.96,338.312,295.363,335.631,302.718,332.817z"/>
				</g>
				<path style="fill:#97A7BD;" d="M340.21,314.392c-11.294,6.402-25.695,13.772-41.831,20.199
					c-12.514-1.849-26.009-5.446-43.177-9.068c-30.902-6.502-39.039-3.371-63.249-18.538
					c-24.211-15.168-31.556-45.715-27.415-63.742l170.314,46.675C334.852,289.917,339.72,302.506,340.21,314.392z"/>
				<path style="fill:#99A6C6;" d="M236.373,215.988c0,0-51.701,6-68.892,4.51c-17.181-1.489-24.66-22.468-24.66-22.468
					s14.16-30.859,19.489-49.257c1.364-4.731,2.15-8.633,1.961-10.982c-0.682-8.297-6.157-15.45-10.279-20.716
					c-1.584-2.024-2.958-3.766-3.797-5.192c-5.989-10.185-5.244-19.258,0.105-26.726c4.584-6.388,15.01-13.856,30.345-10.972
					c15.325,2.874,33.187,17.464,37.908,32.925c11.139,36.471-1.825,73.539,8.821,91.884
					C232.954,208.603,236.373,215.988,236.373,215.988z"/>
				<path style="fill:#7884A2;" d="M177.268,119.689c-0.191-0.826-0.426-1.624-0.694-2.391c-0.039-0.116-0.066-0.196-0.066-0.196
					l-0.001,0.002c-1.778-4.935-5.077-8.409-8.816-7.959c-4.112,0.493-9.755,2.224-13.699,7.93
					c4.122,5.266,9.598,12.419,10.279,20.716c0.189,2.35-0.598,6.251-1.961,10.982c6.04-3.096,9.974-6.613,12.598-11.801
					c0.698,2.293-0.946,6.166-0.946,6.166s2.977-2.645,4.094-7.403C179.438,129.85,178.184,123.238,177.268,119.689z"/>
				<path style="fill:#646E8B;" d="M223.646,151.819c-21.492,12.503-46.111,21.105-70.693,22.704
					c-5.159,12.651-20.578,39.236-20.578,39.236s18.661-3.764,29.737,9.867c3.135,3.859,8.446,10.536,18.53,9.742
					c24.901-1.961,61.116-17.134,61.116-17.134s-7.939-7.238-12.458-19.322C225.122,185.739,223.827,170.214,223.646,151.819z"/>
				<g>
					<g>
						<g>
							<path style="fill:#7884A2;" d="M198.903,98.727c1.061,8.937-3.768,16.354-10.788,16.702
								c-7.038,0.349-13.776-6.527-15.056-15.495c-1.301-9.118,4.065-15.941,11.322-16.258c5.443-0.238,10.083,2.865,12.783,8.752
								c0.78,1.763,1.384,3.717,1.653,5.772C198.863,98.385,198.881,98.54,198.903,98.727z"/>
						</g>
					</g>
					<g>
						<path style="fill:#FFFFFF;" d="M199.164,101.413c0.865,7.405-3.413,13.583-9.558,13.912
							c-6.161,0.329-12.007-5.335-13.062-12.764c-1.073-7.554,3.671-13.243,10.022-13.547c4.764-0.229,8.802,2.319,11.121,7.185
							c0.67,1.458,1.184,3.075,1.405,4.778C199.131,101.13,199.146,101.258,199.164,101.413z"/>
					</g>
					<g>
						<path style="fill:#F3B04D;" d="M197.224,102.218c0.625,5.903-2.988,10.906-8.073,11.247
							c-5.094,0.342-9.829-4.118-10.579-10.033c-0.759-5.994,2.855-11.177,8.075-11.507c3.917-0.247,7.574,2.325,9.423,6.16
							c0.534,1.151,0.938,2.431,1.099,3.785C197.2,101.992,197.211,102.095,197.224,102.218z"/>
					</g>
					<g>
						<path style="fill:#333332;" d="M196.377,104.293c0.026,4.552-3.06,8.131-6.901,8.032c-3.849-0.099-7.047-3.853-7.138-8.425
							c-0.092-4.614,3.012-8.289,6.927-8.17c2.937,0.089,5.468,2.295,6.56,5.336c0.313,0.913,0.519,1.916,0.538,2.958
							C196.376,104.119,196.376,104.198,196.377,104.293z"/>
					</g>
					<path style="fill:#FFFFFF;" d="M192.841,97.132c0.387,1.751-0.566,3.467-2.128,3.838c-1.562,0.371-3.15-0.741-3.549-2.489
						c-0.4-1.756,0.55-3.487,2.123-3.86C190.861,94.246,192.453,95.373,192.841,97.132z"/>
				</g>
				<path style="fill:#EAA727;" d="M173.452,119.568c-2.271,3.185-5.47,8.619-13.671,12.172c-7.655,3.317-17.606,2.873-21.271-0.217
					c0,0,5.522-3.369,8.853-8.605s5.292-11.769,5.292-11.769s4.461-2.502,11.388-0.492
					C170.971,112.667,173.452,119.568,173.452,119.568z"/>
				<path style="fill:#A83034;" d="M166.619,115.909c0,0-1.251,6.426-11.837,12.553c-6.901,3.993-12.849,2.046-12.849,2.046
					s5.017-4.018,8.656-9.935c3.639-5.917,4.238-8.286,4.238-8.286S163.224,111.83,166.619,115.909z"/>
				<path style="fill:#87272A;" d="M162.105,122.944c3.904-3.94,4.514-7.036,4.514-7.036c-3.396-4.078-11.793-3.622-11.793-3.622
					s-0.6,2.369-4.238,8.286c-0.738,1.2-1.532,2.316-2.33,3.342C152.895,124.823,157.579,124.312,162.105,122.944z"/>
				<path style="fill:#F9E5D7;" d="M146.993,109.586c1.003-2.375,1.016-6.071,6.301-8.374c3.959-1.725,10.513-0.417,13.796,2.422
					c1.731,1.497,3.558,4.742,2.674,6.026c-2.053,2.981-7.496,4.802-13.205,2.505C150.851,109.869,146.993,109.586,146.993,109.586z
					"/>
				<path style="fill:#D9BFAD;" d="M167.091,103.634c-0.134-0.116-0.282-0.225-0.427-0.336c0.149,1.357-0.663,2.596-2.189,3.2
					c-1.968,0.779-4.252,0.862-6.347,0.942c-2.423,0.092-4.848-0.37-7.269-0.434c-0.941-0.025-2.012-0.02-3.05,0.131
					c-0.297,0.887-0.511,1.729-0.815,2.449c0,0,3.858,0.282,9.567,2.579c5.709,2.297,11.152,0.477,13.205-2.505
					C170.648,108.377,168.822,105.132,167.091,103.634z"/>
				<path style="fill:#EAA727;" d="M170.277,109.383c-3.123,1.104-5.686,2.371-11.119,1.01c-6.34-1.589-10.987-1.839-16.311,0.319
					c-5.323,2.158-7.013,8.528-7.516,12.53c0,0,7.347,0.634,16.812-2.125c8.334-2.429,15.648-4.387,16.84-4.552
					c1.192-0.165,4.376,2.239,4.47,3.002c0,0,0.971-1.453,0.232-4.202C172.692,111.675,170.277,109.383,170.277,109.383z"/>
				<path style="fill:#97A7BD;" d="M206.064,312.406c0.655,5.761-2.201,11.71-6.109,13.121c-3.907,1.411-14.054-2.385-14.054-2.385
					s-0.131,3.077,2.618,4.517c0,0-7.665,2.198-15.631,0.659c-16.969-3.277-25.348-10.609-25.348-10.609s1.44,8.445,12.241,12.11
					c10.801,3.666,32.993,9.099,43.27,3.077C213.331,326.873,206.064,312.406,206.064,312.406z"/>
			</g>
			<g>
				<g>
					<path style="fill:#6D7797;" d="M228.513,308.362c0,0,50.529,17.402,102.632,13.533c52.103-3.869,54.819-11.822,1.139-24.589
						c-53.68-12.768-80.563-13.595-80.563-13.595L228.513,308.362z"/>
					<path style="fill:#4F5873;" d="M370.994,310.849c-44.871,5.969-87.478,3.885-87.478,3.885s-2.507,0.56-1.388-5.513
						c0.529-3.038,1.937-6.794,4.956-11.464c2.175-3.419,5.679-5.997,9.765-7.953c5.044-2.552,10.911-4.114,16.178-5.06l0.06,0.003
						c7.825-1.512,14.301-1.625,14.301-1.625c7.983,1.741,15.579,3.637,22.411,5.55c18.94,5.332,33.536,6.857,36.599,11.204
						C388.78,303.257,383.706,309.158,370.994,310.849z"/>
					<path style="fill:#6D7797;" d="M371.912,306.506c-35.196,2.353-87.526,7.354-87.526,7.354s-2.459-2.909-1.341-8.982
						c0.53-3.038,1.937-6.794,4.956-11.464c2.175-3.419,5.679-5.997,9.765-7.953c5.044-2.552,10.911-4.114,16.178-5.06l0.06,0.003
						c7.825-1.513,14.301-1.625,14.301-1.625c7.983,1.741,15.579,3.637,22.411,5.55C384.386,293.807,401.161,304.59,371.912,306.506
						z"/>
					<path style="fill:#4F5873;" d="M368.536,296.32c-54.356-4.547-129-19.363-129-19.363s-2.781-3.579,0.839-9.052
						c1.765-2.748,5.083-5.904,11.12-9.423c4.367-2.587,10.47-3.942,17.251-4.514c8.415-0.838,17.756-0.462,25.996,0.312
						l0.089,0.022c12.276,1.049,22.073,3.011,22.073,3.011c11.478,4.222,22.324,8.471,32.012,12.491
						c26.85,11.172,44.93,17.127,48.164,22.279C399.595,296.089,391.933,298.277,368.536,296.32z"/>
					<path style="fill:#6D7797;" d="M371.529,291.027c-53.797-9.01-134.234-21.11-134.234-21.11s-2.832-3.281,0.688-8.168
						c1.715-2.455,4.971-5.253,10.934-8.334c4.312-2.267,10.375-3.391,17.128-3.797c8.378-0.619,17.699-0.126,25.928,0.709
						l0.089,0.021c12.259,1.15,22.061,3.084,22.061,3.084c11.515,4.005,22.4,8.024,32.128,11.817
						C394.176,283.986,416.224,298.548,371.529,291.027z"/>
					<path style="fill:#4F5873;" d="M338.677,294.689c-30.58-0.264-97.616-16.7-92.465-24.359
						c2.454-3.635-13.473-9.257-13.473-9.257l14.661-15.101c0,0,78.917,20.527,89.551,24.36
						c16.81,6.059,21.029,10.559,23.854,14.633C364.45,290.222,355.889,294.827,338.677,294.689z"/>
					<path style="fill:#4F5873;" d="M212.673,306.731c1.108-1.355,25.22,15.735,61.56,20.299
						c36.34,4.565,52.629-3.602,32.777-14.833c-19.853-11.231-57.698-23.834-57.698-23.834L212.673,306.731z"/>
					<path style="fill:#6D7797;" d="M206.887,301.939c1.108-1.355,25.22,15.735,61.559,20.299
						c36.34,4.565,52.629-3.602,32.777-14.833c-19.853-11.231-57.698-23.834-57.698-23.834L206.887,301.939z"/>
					<path style="fill:#4F5873;" d="M230.555,287.147c0,0,36.239,23.814,79.807,27.153c43.569,3.339,53.85-13.406,19.018-23.523
						c-34.832-10.117-70.144-21.212-70.144-21.212L230.555,287.147z"/>
					<path style="fill:#6D7797;" d="M307.234,311.117c-4.77-0.38-9.37-0.97-13.94-1.8c-37.12-6.39-68.33-24.05-68.33-24.05
						l20.72-12.71l7.97-4.88c0,0,35.26,11.07,70.08,21.18l0.06,0.01c9.23,2.68,15.29,5.86,18.38,9.03
						C350.874,306.507,339.274,313.577,307.234,311.117z"/>
					<path style="fill:#4F5873;" d="M258.417,264.073c-5.467-1.727-9.998-3.44-13.696-4.976l12.997-13.446l6.316-6.481
						c0,0,29.437,15.238,56.709,27.79c5.961,2.689,11.739,5.293,17.141,7.605c3.945,1.69,7.477,3.321,10.54,4.945
						c-2.302,1.696-6.9,2.532-14.174,2.155C307.558,280.26,277.403,270.096,258.417,264.073z"/>
					<path style="fill:#4F5873;" d="M342.174,297.897c-9.77-0.19-21.99-3.602-34.63-6.532c-27.32-6.49-53.644-17.706-56.51-15.668
						c-1.285,0.914-3.36-1.79-5.35-3.14l7.97-4.88c0,0,35.26,11.07,70.08,21.18l0.06,0.01
						C333.024,291.547,339.084,294.727,342.174,297.897z"/>
					<path style="fill:#6D7797;" d="M333.633,289.264c-30.061-0.226-95.508-12.457-90.445-19.02
						c2.412-3.114-13.244-7.931-13.244-7.931l26.01-23.352c0,0,18.421,8.287,39.471,17.091c11.059,4.623,22.859,9.408,33.088,13.19
						c12.971,4.806,21.334,9.278,24.11,12.77C356.208,286.517,350.553,289.383,333.633,289.264z"/>
					<path style="fill:#4F5873;" d="M338.038,262.098c-2.087,2.143-9.729,8.141-36.777,6.09
						c-21.069-1.598-39.677-14.676-50.499-24.122c-6.9-6.035-4.23-9.34-5.176-9.474l-0.027-0.301l4.428-4.727
						c0,0,40.447,13.239,70.805,26.346C326.924,258.565,333.672,260.462,338.038,262.098z"/>
					<path style="fill:#6D7797;" d="M231.798,244.686c2.212,0.09,34.51,19.571,68.912,19.428
						c34.402-0.143,43.066-5.734,10.99-18.143c-32.076-12.408-74.375-26.039-74.375-26.039L231.798,244.686z"/>
				</g>
				<path style="fill:#525C78;" d="M178.525,270.092c0,0,7.082,19.266,23.565,33.968c16.483,14.702,24.533,13.464,30.277,11.784
					c5.743-1.68-33.81-36.609-33.81-36.609L178.525,270.092z"/>
				<path style="fill:#525C78;" d="M194.469,282.483c0,0,15.79,17.895,33.1,24.69c17.31,6.794,28.731,2.268,23.515-6.308
					c-5.216-8.576-38.315-30.354-38.315-30.354L194.469,282.483z"/>
				<path style="fill:#525C78;" d="M201.056,271.587c0.87,1.163,33.874,25.785,51.066,27.958
					c17.192,2.173,19.656-12.252,5.357-19.473c-14.299-7.221-30.073-21.696-30.073-21.696L201.056,271.587z"/>
				<path style="fill:#525C78;" d="M213.941,259.532c0,0,34.908,26.066,53.304,26.436c18.396,0.37,7.711-17.15-3.014-21.318
					c-10.726-4.168-33.484-20.738-33.484-20.738L213.941,259.532z"/>
				<path style="fill:#525C78;" d="M222.208,246.359c0,0,40.312,24.565,51.57,23.662c11.257-0.903,4.27-16.585-11.224-28.003
					c-15.494-11.418-23.841-12.829-23.841-12.829L222.208,246.359z"/>
				<path style="fill:#525C78;" d="M245.808,242.357c1.11,1.042,20.723,12.394,35.147,10.758
					c14.424-1.635,24.322-5.798-0.304-18.234C256.026,222.446,245.808,242.357,245.808,242.357z"/>
				<g>
					<path style="fill:#99A6C6;" d="M211.23,211.383c-39.844,3.102-55.33,29.992-43.226,53.56
						c6.152,11.978,18.302,22.52,30.243,23.729c0.649,0.058,1.267,0.1,1.841,0.1c10.219,0.089,11.271-8.656,11.271-8.656
						s7.628,3.37,15.24-4.859c7.605-8.193,8.195-13.701,8.195-13.701s15.458-1.354,21.9-13.761c0,0,14.348-2.397,18.723-16.58
						c0,0-8.155-4.261-16.826-8.985C248.731,216.859,232.956,209.691,211.23,211.383z"/>
					<path style="fill:#99A6C6;" d="M227.122,312.183c-4.429,1.293-10.251,2.325-20.26-4.04c-2.953-1.877-6.202-4.496-10.014-7.738
						c-21.837-18.572-28.844-35.461-28.844-35.461l25.309,10.63c0,0,0.013,0.026,0.044,0.042c0.032,0.016,0.032,0.016,0.044,0.042
						c0.013,0.026,0.057,0.067,0.101,0.109c0.064,0.032,0.108,0.074,0.165,0.141c2.689,2.361,19.756,17.595,28.656,27.586
						C226.48,308.156,228.851,311.668,227.122,312.183z"/>
					<path style="fill:#99A6C6;" d="M222.325,303.492c-1.068-0.424-2.162-0.899-3.217-1.393
						c-15.992-7.555-29.889-23.29-29.889-23.29l4.43-2.893l0.058-0.029l6.706-4.385l7.122-4.657c0,0,18.084,11.91,29.599,21.581
						c3.115,2.595,5.74,5.02,7.418,7.025l0.013,0.026c0.525,0.632,0.943,1.19,1.278,1.725
						C251.061,305.777,239.639,310.288,222.325,303.492z"/>
					<path style="fill:#99A6C6;" d="M246.888,295.879c-0.745-0.106-1.522-0.228-2.323-0.402l-0.013-0.026
						c-1.922-0.411-4.009-1.06-6.215-1.904c-13.227-4.944-29.951-16.225-37.924-22.044c-2.711-1.966-4.405-3.323-4.601-3.577
						l26.351-13.21c0,0,10.216,9.363,21.659,16.8c0.826,0.514,1.632,1.036,2.433,1.499c1.975,1.248,3.989,2.381,5.991,3.392
						c3.209,1.621,5.569,3.603,7.113,5.675C264.68,289.262,260.202,297.549,246.888,295.879z"/>
					<path style="fill:#99A6C6;" d="M261.995,282.294c-0.847-0.023-1.72-0.097-2.637-0.213c-2.935-0.383-6.225-1.292-9.64-2.554
						c-13.336-4.922-28.855-15.112-36.41-20.373c-2.876-2.012-4.602-3.288-4.602-3.288l13.739-12.771l3.067-2.848
						c0,0,7.395,5.374,15.739,10.783c6.299,4.068,13.115,8.166,17.738,9.941c2.753,1.082,5.502,3.029,7.784,5.339
						C273.302,272.98,275.673,282.567,261.995,282.294z"/>
					<path style="fill:#99A6C6;" d="M269.55,266.612c-0.771,0.035-1.707-0.071-2.776-0.303c-3.717-0.759-9.025-3.053-14.745-5.942
						c-11.515-5.834-24.629-14.096-29.583-17.273c-1.321-0.841-2.064-1.331-2.064-1.331l14.995-16.438c0,0,4.15,0.861,12.095,5.799
						c3.023,1.874,6.598,4.335,10.691,7.559c0.59,0.472,1.18,0.943,1.751,1.424c3.546,2.987,6.601,6.188,8.98,9.279
						C275.666,258.206,277.045,266.212,269.55,266.612z"/>
					<path style="fill:#99A6C6;" d="M288.976,245.874c-2.361,1.855-7.457,2.907-13.265,3.58c-2.187,0.265-4.487,0.203-6.817-0.068
						c-1.974-0.226-3.954-0.608-5.933-1.087c-11.168-2.747-21.605-8.866-22.403-9.617c0,0,2.175-4.224,6.914-7.559
						c5.557-3.905,14.663-6.615,27.945,0.092C290.128,238.645,292.514,243.109,288.976,245.874z"/>
				</g>
				<path style="fill:#5A637D;" d="M289.204,245.874c-8.314,5.061-17.465,3.934-19.795,3.664c6.772,8.82,7.946,16.794,0.451,17.194
					c-0.771,0.035-1.556,0.05-2.626-0.181c6.528,6.672,8.737,16.098-4.941,15.825c-0.847-0.023-1.459,0.04-2.376-0.075
					c5.321,7.181,0.778,15.467-12.536,13.796c-0.745-0.106-1.288-0.161-2.09-0.335c0.525,0.632,0.445,0.906,0.78,1.441
					c5.218,8.575-5.816,13.524-23.131,6.728c4.156,4.664,6.139,7.738,4.41,8.253c-4.429,1.293-10.251,2.325-20.26-4.04
					c4.91,2.321,11.033,2.385,13.52,1.906c2.832-0.556,0.491-5.572-1.275-7.949c-0.898-1.244-2.229-2.688-3.775-4.375
					c-4.15-4.506-15.031-15.664-17.485-18.079c-0.057-0.067,16.106,12.311,23,17.297c7.522,5.438,17.56,6.619,20.217,4.7
					c2.597-1.876-0.853-4.907-4.834-8.923c-7.315-7.3-21.556-19.552-22.653-20.472c1.098,0.825,16.118,11.595,23.555,16.18
					c2.452,1.489,4.58,2.66,6.005,3.129c5.985,2.02,11.721,0.53,13-4.023c0.803-2.859-3.9-6.748-8.493-9.992
					c-8.877-6.268-15.178-12.173-18.109-14.637c2.215,1.736,23.803,13.977,26.311,14.511c8.961,1.903,13.895,0.229,11.092-3.578
					c-1.43-1.937-8.42-7.993-14.91-13.469c-5.766-4.879-7.349-6.952-7.997-7.491c0.115,0.039,14.202,8.917,20.288,11.239
					c7.109,2.703,8.705-2.842,5.056-9.471c-4.034-7.327-10.53-12.027-11.132-12.62c0.502,0.292,3.801,1.888,10.085,3.405
					C276.496,247.344,282.662,247.958,289.204,245.874z"/>
				<g>
					<path style="fill:#5A637D;" d="M275.417,231.216c-5.686-2.773-11.313-5.666-16.975-8.497
						c-5.566-2.947-11.387-5.384-17.405-7.141c-3.003-0.898-6.065-1.568-9.135-2.161c-3.077-0.572-6.189-0.917-9.307-1.14
						c-6.241-0.394-12.522-0.018-18.694,0.947c-6.166,0.962-12.238,2.627-17.862,5.288c-5.6,2.678-10.712,6.415-14.635,11.207
						c-3.919,4.781-6.418,10.739-6.925,16.953c-0.289,3.1-0.108,6.255,0.519,9.331c0.632,3.075,1.661,6.077,3.006,8.94
						c-3.091-5.512-4.8-11.907-4.5-18.337c0.316-6.426,2.747-12.722,6.695-17.836c3.918-5.175,9.303-9.05,15.049-11.895
						c5.796-2.81,12.028-4.578,18.339-5.625c6.327-0.932,12.75-1.252,19.131-0.789c6.371,0.502,12.71,1.632,18.774,3.641
						c6.074,1.964,11.905,4.607,17.429,7.739C264.416,224.967,269.946,228.031,275.417,231.216z"/>
				</g>
			</g>
			<path style="fill:#4F8C9E;" d="M223.193,135.736c0.443,6.58,0.497,13.066,0.522,19.251
				c-17.158,12.237-48.493,18.246-71.421,21.302c1.942-4.867,4.039-10.107,5.906-15.09
				C195.202,153.805,208.828,144.684,223.193,135.736z"/>
			<g>
				<path style="fill:#6D7797;" d="M201.012,407.182c-4.943-1.077-6.605,0.51-7.682,1.456c-1.077,0.946-1.38,1.776-1.38,1.776
					s2.863-0.636,6.908,0c1.686,0.265,3.105-1.678,3.105-1.678L201.012,407.182z"/>
				<path style="fill:#E69082;" d="M245.645,404.464c-6.24,0.72-11.729-0.514-11.729-0.514s13.159-16.429,15.861-24.744
					l-9.192-7.042c-5.286,14.885-19.944,30.592-23.304,32.752c-3.36,2.16-23.203,11.994-30.402,12.474
					c-7.2,0.48-11.999,3.36-14.639,5.28c-2.64,1.92-4.32,4.08-2.16,4.08c2.16,0,9.119-1.92,16.799-2.64
					c7.68-0.72,16.981-4.015,21.119-5.28c2.066-0.631,3.409-1.161,4.316-1.609c-1.697,1.977-4.611,5.079-7.436,6.649
					c-4.32,2.4-5.76,6.24-4.08,6.24c1.68,0,9.12-0.96,14.879-4.56c5.76-3.6,9.84-8.4,12.479-9.36c2.64-0.96,6.24-3.84,6.24-3.84
					s1.65,0.754,5.97,0.514c4.32-0.24,8.4-2.88,10.799-3.36C253.565,409.023,251.885,403.744,245.645,404.464z"/>
				<path style="fill:#D87F70;" d="M245.645,404.464c-6.24,0.72-11.729-0.514-11.729-0.514s13.159-16.429,15.861-24.744
					l-9.192-7.042c-1.101,3.101-2.613,6.236-4.34,9.279c0.038,0.12,0.067,0.241,0.108,0.36c0.574,1.686,1.567,3.127,2.307,4.731
					c1.254,2.719,0.851,5.176-0.718,7.664c-1.494,2.37-3.285,4.531-4.946,6.782c-1.712,2.319-3.134,4.708-4.219,7.381
					c-0.942,2.32-1.966,4.626-3.379,6.703c-3.149,4.63-7.918,7.675-12.902,10.043c-3.949,1.876-8.096,3.265-12.367,4.105
					c-0.051,0.548,0.167,0.898,0.67,0.898c1.68,0,9.12-0.96,14.879-4.56c5.76-3.6,9.84-8.4,12.479-9.36
					c2.64-0.96,6.24-3.84,6.24-3.84s1.65,0.754,5.97,0.514c4.32-0.24,8.4-2.88,10.799-3.36
					C253.565,409.023,251.885,403.744,245.645,404.464z"/>
				<path style="fill:#E69082;" d="M221.196,404.43c-7.68,0.96-13.285,1.518-18.833,1.2c-4.887-0.281-6.96,3.84-7.92,4.8
					c0,0,2.231,0.249,5.996,1.085c3.766,0.836,9.236,1.315,9.236,1.315L221.196,404.43z"/>
				<g>
					<path style="fill:#C97365;" d="M215.273,412.163c-0.34,1.721-1.167,3.284-2.155,4.7c-1.017,1.392-2.236,2.693-3.782,3.529
						l2.969-4.11C213.29,414.924,214.217,413.549,215.273,412.163z"/>
				</g>
				<g>
					<path style="fill:#C97365;" d="M214.727,407.46c-3.049,1.764-6.238,3.218-9.466,4.578c-1.621,0.663-3.251,1.307-4.91,1.879
						c-1.657,0.57-3.333,1.128-5.075,1.429c1.621-0.671,3.182-1.465,4.788-2.155c1.594-0.718,3.203-1.399,4.815-2.077
						C208.113,409.787,211.365,408.504,214.727,407.46z"/>
				</g>
				<g>
					<path style="fill:#C97365;" d="M235.75,408.63c-0.093,0.807-0.149,1.579-0.33,2.38c-0.175,0.798-0.526,1.607-1.073,2.281
						c-1.131,1.344-2.802,1.966-4.402,2.056c0.684-0.45,1.378-0.801,1.995-1.242c0.618-0.433,1.19-0.891,1.634-1.449
						c0.463-0.544,0.794-1.188,1.106-1.887C234.985,410.07,235.268,409.294,235.75,408.63z"/>
				</g>
				<path style="fill:#6D7797;" d="M251.069,405.335c-2.652,0.069-2.188,2.941-1.041,3.565c1.147,0.624,4.098-0.59,5.18,0.171
					C255.208,409.071,254.672,405.241,251.069,405.335z"/>
				<path style="fill:#6D7797;" d="M174.548,421.766c1.034,0.926,1.275,3.134,0.684,3.699c-0.591,0.565-6.426,2.09-6.722,2.287
					c0,0,0.357-2.437,1.829-3.659C172.03,422.69,174.548,421.766,174.548,421.766z"/>
				<path style="fill:#6D7797;" d="M205.238,425.464c2.177,0.486,1.477,2.733-0.281,3.741c-1.759,1.008-3.096,1.782-3.096,1.782
					s-0.898-3.069,0.615-4.319C203.988,425.418,204.58,425.318,205.238,425.464z"/>
			</g>
			<path style="fill:#97A7BD;" d="M229.823,341.622c4.457,13.43,7.193,24.559,7.694,35.324c0.5,10.765,13.127,8.531,17.692-5.668
				c4.564-14.2,13.323-36.888,4.384-40.587C250.653,326.992,224.532,325.68,229.823,341.622z"/>
			<g>
				<path style="fill:#828CAB;" d="M216.162,322.147c2.78,2.692,5.235,5.694,7.521,8.814c2.277,3.129,4.37,6.402,6.176,9.844
					c1.762,3.459,3.39,7.015,4.452,10.779c1.063,3.745,1.715,7.66,1.438,11.527c-0.56-3.833-1.614-7.475-2.919-11.033
					c-0.36-0.879-0.712-1.758-1.048-2.643c-0.369-0.873-0.782-1.729-1.169-2.594c-0.373-0.87-0.795-1.722-1.223-2.569
					c-0.43-0.846-0.825-1.709-1.299-2.535l-1.338-2.519l-1.422-2.477c-0.946-1.654-1.938-3.283-2.938-4.912
					C220.377,328.583,218.301,325.363,216.162,322.147z"/>
			</g>
			<g>
				<path style="fill:#828CAB;" d="M262.413,334.801c0.201,3.141,0.132,6.278-0.061,9.405c-0.185,3.129-0.551,6.243-1.012,9.348
					c-0.511,3.097-1.145,6.185-2.049,9.21l-0.736,2.254l-0.891,2.205c-0.314,0.726-0.72,1.423-1.087,2.12
					c-0.382,0.694-0.914,1.311-1.369,1.936l0.447-1.091c0.146-0.36,0.327-0.695,0.419-1.079c0.21-0.752,0.493-1.461,0.665-2.217
					l0.558-2.243l0.48-2.265c0.579-3.034,1.118-6.078,1.589-9.142l1.441-9.205C261.289,340.961,261.789,337.884,262.413,334.801z"/>
			</g>
			<path style="fill:#333332;" d="M153.456,111.305c-2.044,0.16-3.122,1.184-4.03,1.898c-0.908,0.714,4.675-0.404,7.134-1.037
				C159.019,111.532,154.709,111.207,153.456,111.305z"/>
			<g>
				<path style="fill:#C98B14;" d="M171.459,115.339c-2.265,1.435-4.785,2.406-7.303,3.296c-2.526,0.888-5.11,1.593-7.712,2.2
					c-2.604,0.604-5.23,1.097-7.871,1.493l-3.969,0.52c-1.331,0.112-2.657,0.257-3.989,0.339c2.608-0.579,5.22-1.079,7.824-1.616
					c2.596-0.572,5.2-1.087,7.779-1.709c2.589-0.578,5.153-1.251,7.709-1.956c1.28-0.348,2.544-0.746,3.803-1.165
					C168.991,116.331,170.241,115.882,171.459,115.339z"/>
			</g>
			<g>
				<g>
					<path style="fill:#7884A2;" d="M200.803,118.468c0.497,0.516,0.912,1.1,1.284,1.709c0.368,0.611,0.69,1.256,0.953,1.928
						c0.529,1.342,0.84,2.811,0.806,4.333l-1.726-0.708c0.479-0.59,0.978-1.308,1.432-1.996c0.453-0.703,0.918-1.407,1.313-2.153
						c0.429-0.73,0.822-1.485,1.2-2.259c0.4-0.77,0.724-1.573,1.13-2.392c0.079,0.902,0.036,1.816-0.115,2.712
						c-0.137,0.901-0.39,1.78-0.696,2.64c-0.332,0.849-0.699,1.691-1.168,2.479c-0.466,0.802-0.967,1.53-1.618,2.28l-1.872,2.159
						l0.147-2.867c0.032-0.618,0.049-1.249,0.005-1.893c-0.062-0.639-0.113-1.294-0.23-1.949
						C201.44,121.176,201.133,119.851,200.803,118.468z"/>
				</g>
				<g>
					<path style="fill:#6D7797;" d="M273.834,332.025c2.21-0.37,4.226-0.446,6.095-0.868c0.922-0.213,1.816-0.453,2.609-0.902
						c0.802-0.444,1.492-1.087,2.236-1.971c0.069,1.126-0.399,2.327-1.265,3.208c-0.871,0.884-2.029,1.367-3.158,1.619
						c-1.141,0.247-2.291,0.249-3.391,0.065C275.863,332.981,274.789,332.652,273.834,332.025z"/>
				</g>
				<g>
					<path style="fill:#6D7797;" d="M183.205,265.268c-1.65-0.23-3.211-0.926-4.613-1.844c-1.404-0.925-2.651-2.125-3.628-3.525
						c-0.988-1.389-1.71-2.984-2.043-4.645c-0.405-1.644-0.35-3.362-0.027-4.972c0.511,1.59,0.881,3.099,1.517,4.506
						c0.565,1.424,1.328,2.73,2.188,3.96c0.862,1.23,1.846,2.389,2.961,3.46C180.68,263.273,181.884,264.277,183.205,265.268z"/>
				</g>
				<g>
					<path style="fill:#828CAB;" d="M169.474,310.645c0.291,1.304,0.84,2.389,1.581,3.344c0.724,0.963,1.591,1.823,2.505,2.643
						l1.305,1.17l-1.7,0.446c-0.709,0.186-1.208,0.19-1.79,0.155c-0.564-0.026-1.101-0.156-1.628-0.303
						c-1.049-0.315-1.977-0.872-2.8-1.505c-0.831-0.633-1.514-1.405-2.122-2.205c-0.29-0.412-0.55-0.845-0.806-1.269
						c-0.226-0.449-0.439-0.9-0.628-1.359c0.398,0.31,0.772,0.626,1.133,0.946c0.37,0.311,0.758,0.597,1.109,0.908
						c0.765,0.556,1.491,1.124,2.283,1.55c0.771,0.452,1.577,0.806,2.389,1.031c0.407,0.102,0.816,0.19,1.219,0.221
						c0.379,0.04,0.859,0.02,1.091-0.018l-0.395,1.616c-0.925-0.98-1.77-2.079-2.347-3.347c-0.265-0.643-0.491-1.31-0.556-2.005
						C169.227,311.979,169.29,311.283,169.474,310.645z"/>
				</g>
				<g>
					<path style="fill:#828CAB;" d="M210.389,177.102c0.185,1.612,0.491,3.185,0.927,4.708c0.457,1.518,1.027,2.988,1.748,4.378
						c0.702,1.399,1.561,2.707,2.497,3.946c0.933,1.22,2.035,2.401,3.13,3.339l-1.52,1.092c-0.664-1.749-1.284-3.577-1.533-5.536
						c-0.126-0.974-0.18-1.973-0.084-2.958c0.085-0.985,0.272-1.953,0.529-2.887l0.714-2.599l0.895,2.459
						c0.355,0.976,0.766,1.974,1.181,2.95c0.22,0.484,0.421,0.98,0.672,1.449c0.24,0.477,0.487,0.953,0.836,1.384
						c-0.509-0.237-0.946-0.616-1.35-1.005c-0.39-0.404-0.775-0.819-1.102-1.27c-0.685-0.89-1.259-1.824-1.799-2.819l1.61-0.14
						c-0.376,1.726-0.427,3.454-0.17,5.165c0.273,1.71,0.822,3.418,1.424,5.139l1.201,3.434l-2.722-2.342
						c-1.351-1.163-2.373-2.438-3.339-3.818c-0.961-1.368-1.73-2.859-2.36-4.396C210.538,183.687,210.034,180.327,210.389,177.102z"
						/>
				</g>
				<g>
					<path style="fill:#828CAB;" d="M118.587,261.508c-0.081,1.354,0.177,2.653,0.585,3.889c0.214,0.616,0.465,1.216,0.74,1.803
						c0.277,0.578,0.601,1.167,0.934,1.669l-1.244,0.144c0.321-1.113,0.819-2.109,1.365-3.061c0.559-0.952,1.176-1.825,1.871-2.707
						l1.585-2.009l0.022,2.639c0.01,1.252,0.065,2.562,0.167,3.837c0.104,1.281,0.281,2.552,0.491,3.807
						c0.219,1.253,0.52,2.486,0.936,3.656c0.394,1.178,0.936,2.289,1.663,3.213l-1.489,0.501c0.237-2.113,0.597-4.162,1.147-6.193
						c0.558-2.012,1.27-4.033,2.453-5.758c-0.374,0.971-0.641,1.962-0.863,2.959c-0.237,0.994-0.376,2.009-0.531,3.016
						c-0.152,1.008-0.233,2.028-0.334,3.041c-0.091,1.01-0.156,2.042-0.182,3.034l-0.055,2.135l-1.434-1.634
						c-0.964-1.098-1.646-2.362-2.157-3.65c-0.506-1.296-0.839-2.628-1.1-3.961c-0.269-1.333-0.402-2.68-0.495-4.022
						c-0.088-1.349-0.124-2.673-0.045-4.052l1.607,0.63c-0.657,0.739-1.289,1.574-1.868,2.4c-0.579,0.831-1.103,1.701-1.446,2.596
						l-0.572,1.489l-0.673-1.345c-0.332-0.663-0.57-1.295-0.792-1.961c-0.22-0.659-0.383-1.337-0.496-2.021
						C118.147,264.229,118.172,262.799,118.587,261.508z"/>
				</g>
			</g>
			<path style="fill:#4F8C9E;" d="M152.294,176.289c0,0,10.939,0.865,19.647-0.694c0,0-1.336,3.349-3.869,5.354
				c0,0,9.394,0,24.013-10.488c0,0-1.087,3.83,0.843,4.822c0,0,5.617-4.124,10.397-7.688c4.341-3.236,12.573-7.912,12.573-7.912
				s-10.128,1.566-25.15,4.968C175.725,168.052,152.294,176.289,152.294,176.289z"/>
			<g>
				<path style="fill:#7884A2;" d="M198.041,88.616c-1.688-0.807-3.347-1.506-5.021-2.099c-1.676-0.584-3.374-1.009-5.081-1.263
					c-1.708-0.274-3.436-0.287-5.165-0.092c-1.757,0.135-3.432,0.702-5.255,1.2c1.397-1.216,3.067-2.274,4.949-2.73
					c1.853-0.519,3.848-0.673,5.757-0.356c1.915,0.28,3.756,0.919,5.426,1.822C195.315,86.005,196.856,87.151,198.041,88.616z"/>
			</g>
		</g>
	</g>
</g>
</svg>
